<svg width="968" height="970" viewBox="0 0 968 970" fill="none" xmlns="http://www.w3.org/2000/svg">
<path fill-rule="evenodd" clip-rule="evenodd" d="M948.93 44.6897C948.93 44.093 948.908 43.5031 948.861 42.9177C948.977 42.1535 949.09 41.4072 949.2 40.6743C951.039 28.4025 952.255 20.2936 968 0C962.21 6.44447 944.634 17.8312 926.289 22.3448H798.617C786.227 22.3448 776.183 32.3486 776.183 44.6897V170.938C776.183 189.931 753.748 230.152 720.096 230.152H670.739C660.827 230.152 652.791 238.156 652.791 248.028V297.186C651.67 318.414 629.235 350.814 596.704 350.814H549.591C539.68 350.814 531.643 358.818 531.643 368.69V421.2C531.643 436.841 505.85 473.71 466.583 473.71H345.435C333.044 473.71 323 483.714 323 496.055V625.655C323 625.771 323.001 625.887 323.003 626.003L323 626C321.903 646.769 299.588 678.469 267.763 678.469H221.673C211.976 678.469 204.115 686.3 204.115 695.959V747.334C204.115 762.638 178.881 798.71 140.466 798.71H21.9478C9.82604 798.71 0 808.498 0 820.572V947.372C0 959.447 9.82604 969.234 21.9478 969.234H147.05C159.172 969.234 168.998 959.447 168.998 947.372V828.224C168.998 809.152 193.744 765.43 219.25 765.751C220.042 765.86 220.852 765.917 221.673 765.917H272.153C281.85 765.917 289.711 758.086 289.711 748.428V703.61C289.711 683.934 314.87 648 344.5 648L344.481 647.98C344.797 647.993 345.115 648 345.435 648H473.313C485.704 648 495.748 637.996 495.748 625.655V503.876C495.748 484.382 521.043 439.695 547.115 440.023C547.924 440.135 548.752 440.193 549.591 440.193H601.191C611.103 440.193 619.139 432.189 619.139 422.317V376.51C619.139 356.4 640.452 319.531 670.739 319.531H722.339C732.251 319.531 740.287 311.527 740.287 301.655V255.848C740.287 232.386 764.965 196.634 800.861 196.634H926.496C938.886 196.634 948.93 186.631 948.93 174.29V44.6897Z" fill="url(#paint0_linear)"/>
<path fill-rule="evenodd" clip-rule="evenodd" d="M426.942 616.362C425.792 616.079 424.8 615.835 424.8 614.998C424.8 613.876 426.122 613.755 426.691 613.755C427.479 613.755 427.927 613.868 428.514 614.147C428.799 613.928 430.099 612.928 430.099 612.928C429.242 612.358 427.956 611.913 426.705 611.913C423.723 611.913 422.66 613.568 422.66 615.117C422.66 617.348 424.518 617.813 426.158 618.222C427.31 618.51 428.304 618.759 428.304 619.609C428.304 620.045 428.055 620.777 426.386 620.777C425.277 620.777 424.064 620.371 423.201 619.715L422.477 621.445C423.355 622.16 424.878 622.62 426.372 622.62C428.845 622.62 430.444 621.368 430.444 619.43C430.444 617.224 428.584 616.766 426.942 616.362Z" fill="#161D27"/>
<path fill-rule="evenodd" clip-rule="evenodd" d="M437.243 620.72H434.576V618.071H437.243C438.462 618.071 439.079 618.512 439.079 619.396C439.079 620.282 438.479 620.72 437.243 620.72ZM434.576 616.348H436.855H434.576ZM434.576 613.817H436.855C438.292 613.817 438.595 614.509 438.595 615.083C438.595 615.915 437.992 616.348 436.855 616.348H434.576V613.817ZM439.504 617.106L439.401 617.071L439.497 617.017C440.313 616.555 440.762 615.754 440.762 614.762C440.762 613.091 439.405 612.094 437.133 612.094H432.438V622.443H437.411C439.885 622.443 441.247 621.448 441.247 619.642C441.247 618.412 440.612 617.488 439.504 617.106Z" fill="#161D27"/>
<path fill-rule="evenodd" clip-rule="evenodd" d="M448.491 613.813L450.731 612.09H443.234V622.439H450.731V620.716H445.374V618.067H449.943V616.344H445.374V613.813H448.491Z" fill="#161D27"/>
<path fill-rule="evenodd" clip-rule="evenodd" d="M454.862 613.817H456.758C458.129 613.817 458.884 614.522 458.884 615.803C458.884 617.083 458.129 617.788 456.758 617.788H454.862V613.817ZM461.179 622.443L459.001 619.081C460.286 618.496 461.027 617.343 461.027 615.798C461.027 613.513 459.409 612.094 456.804 612.094H452.723V622.443H454.862V619.511H456.804C456.865 619.511 456.925 619.51 456.985 619.508L458.886 622.443H461.179Z" fill="#161D27"/>
<path fill-rule="evenodd" clip-rule="evenodd" d="M417.704 617.267C417.704 616.741 417.658 616.226 417.572 615.726L415.799 617.09C415.8 617.149 415.801 617.208 415.801 617.267C415.801 620.913 412.959 623.88 409.465 623.88C405.972 623.88 403.13 620.913 403.13 617.267C403.13 613.62 405.972 610.654 409.465 610.654C410.789 610.654 412.019 611.08 413.037 611.808L414.64 610.575C413.225 609.382 411.425 608.667 409.465 608.667C404.915 608.667 401.227 612.518 401.227 617.267C401.227 622.016 404.915 625.867 409.465 625.867C414.015 625.867 417.704 622.016 417.704 617.267Z" fill="#161D27"/>
<path fill-rule="evenodd" clip-rule="evenodd" d="M415.98 612.01C416.369 612.535 416.702 613.108 416.967 613.719L409.461 619.494L406.324 617.442V614.973L409.461 617.025L415.98 612.01Z" fill="#161D27"/>
<path fill-rule="evenodd" clip-rule="evenodd" d="M444.814 527.218C444.184 526.559 443.83 525.667 443.83 524.736V513.332C443.83 511.565 442.458 510.133 440.765 510.133H430.811C429.118 510.133 427.746 511.565 427.746 513.332V523.723C427.746 525.489 429.118 526.921 430.811 526.921H441.731C442.623 526.921 443.478 527.291 444.109 527.949L444.111 527.952C444.742 528.61 445.096 529.502 445.096 530.433V596.157C445.096 597.923 446.468 599.355 448.16 599.355H458.115C459.808 599.355 461.179 597.923 461.179 596.157V531.444C461.179 529.677 459.808 528.245 458.115 528.245H447.192C446.3 528.245 445.445 527.876 444.814 527.218Z" fill="#161D27"/>
<path fill-rule="evenodd" clip-rule="evenodd" d="M370.02 564.181L370.032 564.168C370.663 563.513 371.515 563.146 372.404 563.146H399.424C401.108 563.146 402.474 561.72 402.474 559.961V548.526C402.474 547.604 402.826 546.719 403.453 546.067L403.465 546.055C404.095 545.401 404.948 545.033 405.837 545.033H416.774C418.458 545.033 419.824 543.608 419.824 541.849V531.429C419.824 529.671 418.458 528.245 416.774 528.245H405.836C404.944 528.245 404.089 527.875 403.459 527.218C402.828 526.559 402.474 525.667 402.474 524.736V513.317C402.474 511.559 401.108 510.133 399.424 510.133H356.058C354.346 510.133 352.957 511.582 352.957 513.371V523.684C352.957 525.472 354.346 526.921 356.058 526.921H400.374C401.267 526.921 402.123 527.291 402.755 527.95C403.386 528.609 403.741 529.503 403.741 530.435V542.855C403.741 543.782 403.387 544.672 402.756 545.327L402.748 545.336C402.118 545.99 401.265 546.358 400.377 546.358H373.357C371.673 546.358 370.307 547.783 370.307 549.542V560.968C370.307 561.893 369.954 562.781 369.328 563.436L369.317 563.446C368.69 564.101 367.84 564.469 366.953 564.469H356.008C354.323 564.469 352.957 565.894 352.957 567.653V578.073C352.957 579.831 354.322 581.256 356.008 581.256H366.964C367.851 581.256 368.701 581.624 369.328 582.279C369.955 582.933 370.307 583.82 370.307 584.745V596.171C370.307 597.929 371.673 599.354 373.357 599.355H416.723C418.436 599.355 419.824 597.906 419.824 596.118V585.804C419.824 584.016 418.436 582.567 416.723 582.567L372.404 582.566C371.515 582.566 370.662 582.199 370.032 581.545L370.02 581.533C369.393 580.882 369.041 579.997 369.041 579.075V566.639C369.041 565.716 369.393 564.832 370.02 564.181Z" fill="#161D27"/>
<path fill-rule="evenodd" clip-rule="evenodd" d="M454.781 559.088L454.741 559.046C454.682 558.984 454.648 558.9 454.648 558.812V557.598C454.648 557.415 454.506 557.267 454.332 557.267H451.483C451.4 557.267 451.319 557.232 451.26 557.17L451.239 557.148C451.179 557.087 451.146 557.002 451.146 556.914V553.933C451.146 553.75 451.004 553.602 450.83 553.602H449.777C449.603 553.602 449.461 553.75 449.461 553.933V562.618C449.461 562.801 449.603 562.949 449.777 562.949H450.83C451.004 562.949 451.146 562.801 451.146 562.618V557.205L451.186 557.247C451.245 557.309 451.278 557.393 451.278 557.48V558.696C451.278 558.878 451.42 559.026 451.595 559.026H454.443C454.527 559.026 454.608 559.061 454.667 559.123L454.688 559.144C454.747 559.206 454.781 559.29 454.781 559.378V562.618C454.781 562.801 454.923 562.949 455.097 562.949H456.149C456.324 562.949 456.466 562.801 456.466 562.618V553.933C456.466 553.75 456.324 553.602 456.149 553.602H455.097C454.923 553.602 454.781 553.75 454.781 553.933V559.088Z" fill="white"/>
<path fill-rule="evenodd" clip-rule="evenodd" d="M454.686 549.966L454.67 549.982C454.609 550.046 454.526 550.082 454.44 550.082H452.963H451.487C451.401 550.082 451.318 550.046 451.257 549.982L451.241 549.966C451.18 549.902 451.146 549.816 451.146 549.726V544.608C451.146 544.518 451.18 544.432 451.241 544.369L451.257 544.352C451.318 544.288 451.401 544.252 451.487 544.252H454.439C454.526 544.252 454.608 544.288 454.669 544.352L454.685 544.369C454.746 544.432 454.781 544.518 454.781 544.608V545.811C454.781 545.998 454.926 546.15 455.106 546.15H456.141C456.32 546.15 456.466 545.998 456.466 545.811V544.73C456.466 544.543 456.32 544.391 456.141 544.391H454.989C454.903 544.391 454.82 544.356 454.759 544.292L454.743 544.275C454.682 544.212 454.648 544.125 454.648 544.036V542.833C454.648 542.646 454.503 542.494 454.323 542.494H451.603C451.424 542.494 451.278 542.646 451.278 542.833V544.035C451.278 544.125 451.244 544.211 451.183 544.275L451.167 544.292C451.106 544.356 451.024 544.391 450.937 544.391H449.786C449.606 544.391 449.461 544.543 449.461 544.73V549.604C449.461 549.791 449.606 549.943 449.786 549.943H450.937C451.024 549.943 451.106 549.979 451.167 550.042L451.183 550.059C451.244 550.123 451.278 550.209 451.278 550.299V551.501C451.278 551.689 451.424 551.841 451.603 551.841H453.457H454.323C454.503 551.841 454.648 551.689 454.648 551.501V550.299C454.648 550.209 454.682 550.123 454.743 550.059L454.758 550.044C454.819 549.98 454.902 549.944 454.988 549.944H456.141C456.32 549.944 456.466 549.793 456.466 549.605V548.525C456.466 548.338 456.32 548.186 456.141 548.186H455.106C454.926 548.186 454.781 548.338 454.781 548.525V549.726C454.781 549.816 454.747 549.902 454.686 549.966Z" fill="white"/>
<path fill-rule="evenodd" clip-rule="evenodd" d="M454.669 566.564L454.686 566.581C454.747 566.645 454.781 566.731 454.781 566.821V571.938C454.781 572.029 454.747 572.115 454.686 572.178L454.67 572.195C454.609 572.258 454.527 572.294 454.44 572.294H451.487C451.401 572.294 451.318 572.259 451.257 572.195L451.241 572.178C451.18 572.114 451.146 572.029 451.146 571.938V566.821C451.146 566.731 451.18 566.645 451.241 566.581L451.257 566.564C451.318 566.5 451.401 566.465 451.487 566.465H454.44C454.526 566.465 454.608 566.5 454.669 566.564ZM454.648 566.248V565.046C454.648 564.858 454.503 564.706 454.323 564.706H451.603C451.424 564.706 451.279 564.858 451.279 565.046V566.248C451.279 566.337 451.244 566.424 451.184 566.488L451.168 566.504C451.107 566.568 451.024 566.603 450.938 566.603H449.786C449.607 566.603 449.461 566.755 449.461 566.943V571.817C449.461 572.004 449.607 572.156 449.786 572.156H450.937C451.024 572.156 451.106 572.191 451.167 572.255L451.184 572.272C451.244 572.335 451.279 572.422 451.279 572.512V573.714C451.279 573.901 451.424 574.053 451.603 574.053H454.323C454.503 574.053 454.648 573.901 454.648 573.714V572.512C454.648 572.422 454.683 572.335 454.744 572.272L454.759 572.256C454.82 572.192 454.902 572.157 454.988 572.157H456.141C456.32 572.157 456.466 572.005 456.466 571.818V566.943C456.466 566.755 456.32 566.603 456.141 566.603H454.989C454.903 566.603 454.82 566.568 454.759 566.504L454.744 566.488C454.683 566.424 454.648 566.338 454.648 566.248Z" fill="white"/>
<path fill-rule="evenodd" clip-rule="evenodd" d="M454.669 577.673L454.686 577.69C454.747 577.753 454.781 577.839 454.781 577.93V583.047C454.781 583.137 454.747 583.223 454.686 583.287L454.67 583.303C454.609 583.367 454.527 583.403 454.44 583.403H451.487C451.401 583.403 451.318 583.367 451.257 583.303L451.241 583.286C451.18 583.223 451.146 583.137 451.146 583.047V577.93C451.146 577.839 451.18 577.753 451.241 577.69L451.257 577.673C451.318 577.609 451.401 577.573 451.487 577.573H454.44C454.526 577.573 454.608 577.609 454.669 577.673ZM454.648 577.357V576.154C454.648 575.967 454.503 575.815 454.323 575.815H451.603C451.424 575.815 451.279 575.967 451.279 576.154V577.356C451.279 577.446 451.244 577.532 451.184 577.596L451.168 577.613C451.107 577.677 451.024 577.712 450.938 577.712H449.786C449.607 577.712 449.461 577.864 449.461 578.051V582.925C449.461 583.112 449.607 583.264 449.786 583.264H450.937C451.024 583.264 451.106 583.3 451.167 583.363L451.184 583.38C451.244 583.444 451.279 583.53 451.279 583.62V584.822C451.279 585.009 451.424 585.162 451.603 585.162L454.323 585.161C454.503 585.161 454.648 585.009 454.648 584.822V583.62C454.648 583.53 454.683 583.444 454.744 583.38L454.759 583.365C454.82 583.301 454.902 583.266 454.988 583.266H456.141C456.32 583.266 456.466 583.114 456.466 582.926V578.051C456.466 577.864 456.32 577.712 456.141 577.712H454.989C454.903 577.712 454.82 577.677 454.759 577.613L454.744 577.596C454.683 577.533 454.648 577.446 454.648 577.357Z" fill="white"/>
<path fill-rule="evenodd" clip-rule="evenodd" d="M451.278 531.732V532.935C451.278 533.025 451.244 533.111 451.183 533.174L451.167 533.191C451.106 533.255 451.024 533.291 450.938 533.291H449.786C449.606 533.291 449.461 533.442 449.461 533.63V534.71C449.461 534.897 449.606 535.049 449.786 535.049H450.938C451.024 535.049 451.106 535.085 451.167 535.148L451.183 535.165C451.244 535.229 451.278 535.315 451.278 535.405V536.607C451.278 536.795 451.424 536.947 451.603 536.947H454.44C454.526 536.947 454.608 536.982 454.669 537.046L454.686 537.063C454.747 537.126 454.781 537.213 454.781 537.303V538.625C454.781 538.715 454.747 538.801 454.686 538.865L454.669 538.882C454.609 538.945 454.526 538.981 454.44 538.981H449.786C449.606 538.981 449.461 539.133 449.461 539.32V540.401C449.461 540.588 449.606 540.74 449.786 540.74H454.323C454.503 540.74 454.648 540.588 454.648 540.401V539.198C454.648 539.108 454.683 539.022 454.743 538.959L454.758 538.943C454.819 538.88 454.902 538.844 454.988 538.844H456.141C456.321 538.844 456.466 538.692 456.466 538.504V537.424C456.466 537.237 456.321 537.085 456.141 537.085H454.989C454.903 537.085 454.82 537.049 454.759 536.986L454.743 536.969C454.683 536.905 454.648 536.819 454.648 536.729V535.527C454.648 535.34 454.503 535.188 454.323 535.188H451.487C451.401 535.188 451.318 535.152 451.257 535.088L451.241 535.071C451.18 535.008 451.146 534.922 451.146 534.832V533.508C451.146 533.418 451.18 533.332 451.241 533.268L451.257 533.251C451.318 533.188 451.401 533.152 451.487 533.152H456.141C456.321 533.152 456.466 533 456.466 532.813V531.732C456.466 531.545 456.321 531.393 456.141 531.393H451.603C451.424 531.393 451.278 531.545 451.278 531.732Z" fill="white"/>
<path fill-rule="evenodd" clip-rule="evenodd" d="M451.257 594.408L451.241 594.391C451.18 594.327 451.146 594.241 451.146 594.151V587.258C451.146 587.071 451 586.919 450.821 586.919H449.786C449.606 586.919 449.461 587.071 449.461 587.258V594.029C449.461 594.216 449.606 594.368 449.786 594.368H450.937C451.024 594.368 451.106 594.404 451.167 594.468L451.183 594.484C451.244 594.548 451.278 594.634 451.278 594.724V595.927C451.278 596.114 451.424 596.266 451.603 596.266H456.141C456.32 596.266 456.466 596.114 456.466 595.927V594.846C456.466 594.659 456.32 594.507 456.141 594.507H451.487C451.4 594.507 451.318 594.471 451.257 594.408Z" fill="white"/>
<defs>
<linearGradient id="paint0_linear" x1="957" y1="1.51608e-05" x2="3.01476" y2="979.865" gradientUnits="userSpaceOnUse">
<stop stop-color="#851BE2"/>
<stop offset="0.624941" stop-color="#0BEBC4"/>
<stop offset="1" stop-color="#605DDA"/>
</linearGradient>
</defs>
</svg>
