<svg xmlns="http://www.w3.org/2000/svg" xmlns:xlink="http://www.w3.org/1999/xlink" viewBox="0 0 512 512" width="512" height="512" preserveAspectRatio="xMidYMid meet" style="width: 100%; height: 100%; transform: translate3d(0px, 0px, 0px); content-visibility: visible;"><defs><clipPath id="__lottie_element_170"><rect width="512" height="512" x="0" y="0"/></clipPath></defs><g clip-path="url(#__lottie_element_170)"><g transform="matrix(1,0,0,1.0099962949752808,0,-4.843841552734375)" opacity="1" style="display: block;"><g opacity="1" transform="matrix(1,0,0,1,339.4549865722656,383.1730041503906)"><path fill="rgb(76,188,129)" fill-opacity="1" d=" M-2.197999954223633,-13.83899974822998 C-0.9359999895095825,-14.357999801635742 36.39799880981445,-31.270999908447266 46.119998931884766,-22.895000457763672 C59.78300094604492,-11.12399959564209 0.8450000286102295,29.24799919128418 -35.90999984741211,24.892000198364258 C-72.66500091552734,20.535999298095703 -16.155000686645508,-8.095000267028809 -2.197999954223633,-13.83899974822998z"/><path stroke-linecap="round" stroke-linejoin="round" fill-opacity="0" stroke="rgb(47,148,101)" stroke-opacity="1" stroke-width="3.507" d=" M-2.197999954223633,-13.83899974822998 C-0.9359999895095825,-14.357999801635742 36.39799880981445,-31.270999908447266 46.119998931884766,-22.895000457763672 C59.78300094604492,-11.12399959564209 0.8450000286102295,29.24799919128418 -35.90999984741211,24.892000198364258 C-72.66500091552734,20.535999298095703 -16.155000686645508,-8.095000267028809 -2.197999954223633,-13.83899974822998z"/></g><g opacity="1" transform="matrix(1,0,0,1,378.52099609375,370.6679992675781)"><path fill="rgb(80,217,127)" fill-opacity="1" d=" M7.743000030517578,-8.777000427246094 C9.802000045776367,-6.698999881744385 7.617000102996826,-1.878999948501587 3.184999942779541,2.5139999389648438 C-1.246999979019165,6.9070000648498535 -5.5279998779296875,10.770999908447266 -7.586999893188477,8.692999839782715 C-9.645999908447266,6.614999771118164 -8.272000312805176,2.806999921798706 -3.8399999141693115,-1.5859999656677246 C0.5920000076293945,-5.979000091552734 5.684000015258789,-10.854999542236328 7.743000030517578,-8.777000427246094z"/></g></g><g transform="matrix(0.9999082088470459,-0.013686112128198147,0.013550655916333199,1.0099035501480103,-5.42352294921875,0.16998496651649475)" opacity="1" style="display: block;"><g opacity="1" transform="matrix(1,0,0,1,414.51800537109375,463.97601318359375)"><path fill="rgb(76,188,129)" fill-opacity="1" d=" M22.951745986938477,5.446197986602783 C23.681930541992188,7.998508930206299 16.967134475708008,11.057480812072754 -7.242517948150635,11.13663101196289 C-25.271841049194336,11.195157051086426 -42.576026916503906,8.355329513549805 -43.306209564208984,5.803018569946289 C-44.03639602661133,3.2507073879241943 -42.428714752197266,-7.6072235107421875 -19.585819244384766,-10.808554649353027 C3.257077693939209,-14.009885787963867 22.221561431884766,2.8938872814178467 22.951745986938477,5.446197986602783z"/></g><g opacity="1" transform="matrix(1,0,0,1,399.6159973144531,433.7139892578125)"><path fill="rgb(76,188,129)" fill-opacity="1" d=" M38.114906311035156,37.407745361328125 C23.83156394958496,-12.724702835083008 -22.003000259399414,-45.59700012207031 -38.13800048828125,-35.696998596191406 C-38.13800048828125,-35.696998596191406 -34.146820068359375,-7.734015941619873 -27.925764083862305,36.155670166015625"/><path stroke-linecap="round" stroke-linejoin="round" fill-opacity="0" stroke="rgb(47,148,101)" stroke-opacity="1" stroke-width="3.795" d=" M38.114906311035156,37.407745361328125 C23.83156394958496,-12.724702835083008 -22.003000259399414,-45.59700012207031 -38.13800048828125,-35.696998596191406 C-38.13800048828125,-35.696998596191406 -34.146820068359375,-7.734015941619873 -27.925764083862305,36.155670166015625"/></g></g><g transform="matrix(1,0,0,1.0099962949752808,0,-4.843841552734375)" opacity="1" style="display: block;"><g opacity="1" transform="matrix(1,0,0,1,0,0)"><g opacity="1" transform="matrix(1,0,0,1,265.36700439453125,450.5690002441406)"><path fill="rgb(80,217,127)" fill-opacity="1" d=" M138,23.672000885009766 C138,23.672000885009766 126.01100158691406,33.31399917602539 21.843000411987305,33.97800064086914 C-97.31099700927734,34.73699951171875 -138.0570068359375,10.720999717712402 -138.0570068359375,10.720999717712402 C-140.6490020751953,-2.247999906539917 -69.35700225830078,-13.333999633789062 17.834999084472656,-30.763999938964844 C105.0270004272461,-48.194000244140625 135.4080047607422,10.70300006866455 138,23.672000885009766z"/></g><g opacity="1" transform="matrix(1,0,0,1,263.7200012207031,433.0459899902344)"><path fill="rgb(80,217,127)" fill-opacity="1" d=" M-139.7689971923828,33.09400177001953 C-139.7689971923828,33.09400177001953 -140.55999755859375,-14.284000396728516 -118.2020034790039,-28.38599967956543 C-87.52100372314453,-47.737998962402344 -25.04599952697754,-30.702999114990234 33.20600128173828,-37.803001403808594 C91.45800018310547,-44.90299987792969 108.78800201416016,-36.34299850463867 118.99400329589844,-28.35700035095215 C129.1999969482422,-20.371000289916992 139.4739990234375,7.436999797821045 139.64700317382812,41.194000244140625"/><path stroke-linecap="round" stroke-linejoin="round" fill-opacity="0" stroke="rgb(47,148,101)" stroke-opacity="1" stroke-width="3.795" d=" M-139.7689971923828,33.09400177001953 C-139.7689971923828,33.09400177001953 -140.55999755859375,-14.284000396728516 -118.2020034790039,-28.38599967956543 C-87.52100372314453,-47.737998962402344 -25.04599952697754,-30.702999114990234 33.20600128173828,-37.803001403808594 C91.45800018310547,-44.90299987792969 108.78800201416016,-36.34299850463867 118.99400329589844,-28.35700035095215 C129.1999969482422,-20.371000289916992 139.4739990234375,7.436999797821045 139.64700317382812,41.194000244140625"/></g><g opacity="1" transform="matrix(1,0,0,1,186.25999450683594,436.13800048828125)"><path fill="rgb(76,188,129)" fill-opacity="1" d=" M-6.526000022888184,-46.117000579833984 C-6.526000022888184,-46.117000579833984 34.60100173950195,-29.201000213623047 36.59199905395508,46.117000579833984 C36.59199905395508,46.117000579833984 24.4689998626709,45.810001373291016 10.815999984741211,43.72800064086914 C-26.010000228881836,38.111000061035156 -49.834999084472656,30.461999893188477 -49.834999084472656,30.461999893188477 C-49.834999084472656,0.9319999814033508 -16.12299919128418,-23.094999313354492 -36.59199905395508,-34.428001403808594 C-36.59199905395508,-34.428001403808594 -18.534000396728516,-45.374000549316406 -6.526000022888184,-46.117000579833984z"/></g><g opacity="1" transform="matrix(1,0,0,1,261.24798583984375,418.3599853515625)"><path fill="rgb(76,188,129)" fill-opacity="1" d=" M-105.26100158691406,18.25 C-105.26100158691406,18.25 -75.02899932861328,10.192999839782715 -49.81800079345703,13.86299991607666 C-19.575000762939453,18.264999389648438 20.33799934387207,24.95800018310547 62.66699981689453,16.23900032043457 C118.38800048828125,4.761000156402588 125.7969970703125,-5.9720001220703125 125.7969970703125,-5.9720001220703125 C125.7969970703125,-5.9720001220703125 122.30699920654297,-11.371000289916992 118.73999786376953,-13.699999809265137 C114.27100372314453,-16.618000030517578 111.6709976196289,-21.38599967956543 103.58899688720703,-20.343000411987305 C86.4469985961914,-18.1299991607666 -10.371999740600586,-7.559000015258789 -54.83599853515625,-11.23900032043457 C-103.4530029296875,-15.26200008392334 -125.7969970703125,-7.910999774932861 -125.7969970703125,-7.910999774932861 C-125.7969970703125,-7.910999774932861 -110.44200134277344,10.930999755859375 -105.26100158691406,18.25z"/></g></g><g opacity="1" transform="matrix(1,0,0,1,0,0)"><g opacity="1" transform="matrix(1,0,0,1,375.37799072265625,451.4800109863281)"><g opacity="1" transform="matrix(1,0,0,1,0,0)"><path fill="rgb(255,255,255)" fill-opacity="1" d=" M7.486999988555908,-7.701000213623047 C8.366999626159668,-6.869999885559082 9.154000282287598,-5.935999870300293 9.826000213623047,-4.913000106811523 C9.826000213623047,-4.913000106811523 -2.6530001163482666,7.701000213623047 -2.6530001163482666,7.701000213623047 C-2.6530001163482666,7.701000213623047 -9.128999710083008,4.928999900817871 -9.128999710083008,4.928999900817871 C-9.128999710083008,4.928999900817871 -9.826000213623047,0.4830000102519989 -9.826000213623047,0.4830000102519989 C-9.826000213623047,0.4830000102519989 -3.3510000705718994,3.253999948501587 -3.3510000705718994,3.253999948501587 C-3.3510000705718994,3.253999948501587 7.486999988555908,-7.701000213623047 7.486999988555908,-7.701000213623047z"/></g></g><g opacity="1" transform="matrix(1,0,0,1,372.09600830078125,455.1709899902344)"><path fill="rgb(255,255,255)" fill-opacity="1" d=" M15.487000465393066,-2.430000066757202 C15.338000297546387,-3.377000093460083 15.107000350952148,-4.290999889373779 14.803000450134277,-5.165999889373779 C14.803000450134277,-5.165999889373779 11.854999542236328,-2.186000108718872 11.854999542236328,-2.186000108718872 C11.87399959564209,-2.0810000896453857 11.892999649047852,-1.975000023841858 11.90999984741211,-1.86899995803833 C12.9399995803833,4.697999954223633 8.435999870300293,10.878999710083008 1.86899995803833,11.909000396728516 C-4.697999954223633,12.939000129699707 -10.880000114440918,8.435999870300293 -11.90999984741211,1.86899995803833 C-12.9399995803833,-4.697999954223633 -8.435999870300293,-10.880000114440918 -1.86899995803833,-11.90999984741211 C0.6200000047683716,-12.300000190734863 3.052999973297119,-11.895000457763672 5.171999931335449,-10.885000228881836 C5.171999931335449,-10.885000228881836 7.835999965667725,-13.57699966430664 7.835999965667725,-13.57699966430664 C4.840000152587891,-15.307999610900879 1.253999948501587,-16.065000534057617 -2.430000066757202,-15.487000465393066 C-10.982999801635742,-14.145000457763672 -16.82900047302246,-6.123000144958496 -15.487000465393066,2.430000066757202 C-14.145000457763672,10.982999801635742 -6.123000144958496,16.82900047302246 2.430000066757202,15.487000465393066 C10.982999801635742,14.145000457763672 16.82900047302246,6.123000144958496 15.487000465393066,-2.430000066757202z"/></g></g></g><g transform="matrix(0.9998757243156433,-0.015923935920000076,0.015766331925988197,1.0098707675933838,-6.63800048828125,-0.41277870535850525)" opacity="1" style="display: block;"><g opacity="1" transform="matrix(1,0,0,1,275.9280090332031,373.6919860839844)"><path fill="rgb(248,248,248)" fill-opacity="1" d=" M88.90699768066406,-32.95600128173828 C89.5739974975586,-32.404998779296875 82.66400146484375,-10.27400016784668 92.7750015258789,28.263999938964844 C92.7750015258789,28.263999938964844 57.53200149536133,64.697998046875 -52.250999450683594,28.770000457763672 C-52.250999450683594,28.770000457763672 -76.7770004272461,3.256999969482422 -92.7750015258789,-40.45899963378906 C-92.7750015258789,-40.45899963378906 57.32600021362305,-59.047000885009766 88.90699768066406,-32.95600128173828z"/></g><g opacity="1" transform="matrix(1,0,0,1,281.9289855957031,381.4330139160156)"><path fill="rgb(198,193,211)" fill-opacity="1" d=" M-83.8499984741211,-13.232999801635742 C-82.54000091552734,-13.236000061035156 -98.42900085449219,-41.93299865722656 -98.46199798583984,-46.641998291015625 C56.07099914550781,-66.93299865722656 82.71199798583984,-40.76100158691406 82.71199798583984,-40.76100158691406 C82.71199798583984,-40.76100158691406 80.3499984741211,-17.20800018310547 80.3499984741211,-17.20800018310547 C80.3499984741211,-17.20800018310547 63.86800003051758,11.913000106811523 25.298999786376953,16.583999633789062 C-13.270000457763672,21.2549991607666 -68.87699890136719,-2.9769999980926514 -83.8499984741211,-13.232999801635742z"/></g><g opacity="1" transform="matrix(1,0,0,1,275.9280090332031,373.6919860839844)"><path stroke-linecap="round" stroke-linejoin="round" fill-opacity="0" stroke="rgb(117,114,127)" stroke-opacity="1" stroke-width="3.507" d=" M88.90699768066406,-32.95600128173828 C89.5739974975586,-32.404998779296875 82.66400146484375,-10.27400016784668 92.7750015258789,28.263999938964844 C92.7750015258789,28.263999938964844 57.53200149536133,64.697998046875 -52.250999450683594,28.770000457763672 C-52.250999450683594,28.770000457763672 -76.7770004272461,3.256999969482422 -92.7750015258789,-40.45899963378906 C-92.7750015258789,-40.45899963378906 57.32600021362305,-59.047000885009766 88.90699768066406,-32.95600128173828z"/></g></g><g transform="matrix(1,0,0,1.0099962949752808,0,-4.843841552734375)" opacity="1" style="display: block;"><g opacity="1" transform="matrix(1,0,0,1,219.48599243164062,377.3810119628906)"><path fill="rgb(76,188,129)" fill-opacity="1" d=" M100.30599975585938,45.72700119018555 C100.30599975585938,45.72700119018555 93.2750015258789,45.042999267578125 44.04600143432617,21.909000396728516 C20.472000122070312,10.831000328063965 4.448999881744385,-3.9549999237060547 -24.325000762939453,-20.801000595092773 C-39.82699966430664,-29.87700080871582 -23.486000061035156,-126.38099670410156 -85.11000061035156,-49.564998626708984 C-85.11000061035156,-49.564998626708984 -102.36000061035156,-27.652999877929688 -93.20500183105469,-0.15600000321865082 C-93.20500183105469,-0.15600000321865082 -108.25299835205078,18.493999481201172 -94.53900146484375,38.124000549316406 C-94.53900146484375,38.124000549316406 -83.11799621582031,25.716999053955078 -36.33300018310547,29.570999145507812 C-6.223999977111816,32.05099868774414 53.805999755859375,59.47600173950195 100.30599975585938,45.72700119018555z"/><path stroke-linecap="round" stroke-linejoin="round" fill-opacity="0" stroke="rgb(47,148,101)" stroke-opacity="1" stroke-width="3.795" d=" M100.30599975585938,45.72700119018555 C100.30599975585938,45.72700119018555 93.2750015258789,45.042999267578125 44.04600143432617,21.909000396728516 C20.472000122070312,10.831000328063965 4.448999881744385,-3.9549999237060547 -24.325000762939453,-20.801000595092773 C-39.82699966430664,-29.87700080871582 -23.486000061035156,-126.38099670410156 -85.11000061035156,-49.564998626708984 C-85.11000061035156,-49.564998626708984 -102.36000061035156,-27.652999877929688 -93.20500183105469,-0.15600000321865082 C-93.20500183105469,-0.15600000321865082 -108.25299835205078,18.493999481201172 -94.53900146484375,38.124000549316406 C-94.53900146484375,38.124000549316406 -83.11799621582031,25.716999053955078 -36.33300018310547,29.570999145507812 C-6.223999977111816,32.05099868774414 53.805999755859375,59.47600173950195 100.30599975585938,45.72700119018555z"/></g><g opacity="1" transform="matrix(1,0,0,1,205.76699829101562,391.6180114746094)"><path fill="rgb(80,217,127)" fill-opacity="1" d=" M66.9739990234375,24.052000045776367 C68.5790023803711,20.910999298095703 54.749000549316406,13.803999900817871 30.14900016784668,3.322999954223633 C-31.746999740600586,-23.048999786376953 -53.49700164794922,-32.27000045776367 -63.94300079345703,-20.663999557495117 C-71.19599914550781,-12.605999946594238 -63.65399932861328,-2.9079999923706055 -63.849998474121094,-0.5849999785423279 C-64.20099639892578,3.565000057220459 -68.29900360107422,7.163000106811523 -61.90800094604492,10.484999656677246 C-54.71799850463867,14.222000122070312 -45.56999969482422,5.072999954223633 -16.1200008392334,8.826000213623047 C13.329999923706055,12.579000473022461 63.433998107910156,30.981000900268555 66.9739990234375,24.052000045776367z"/></g></g><g transform="matrix(1,0,0,1.0099962949752808,0,-4.843841552734375)" opacity="1" style="display: block;"><g opacity="1" transform="matrix(1,0,0,1,333.23699951171875,394.1809997558594)"><path fill="rgb(80,217,127)" fill-opacity="1" d=" M36.33100128173828,-18.398000717163086 C28.46299934387207,-10.586000442504883 15.732000350952148,-0.2849999964237213 -5.559000015258789,11.845999717712402 C-18.124000549316406,19.0049991607666 -30.333999633789062,20.423999786376953 -39.141998291015625,23.62299919128418 C-49.224998474121094,27.284000396728516 -55.03799819946289,32.19499969482422 -55.03799819946289,32.19499969482422 C-55.03799819946289,32.19499969482422 -45.79899978637695,38.900001525878906 1.3259999752044678,25.742000579833984 C48.45100021362305,12.583999633789062 54.45500183105469,4.895999908447266 54.691001892089844,-0.1289999932050705 C54.926998138427734,-5.1539998054504395 49.47800064086914,-11.470000267028809 49.47800064086914,-11.470000267028809 C54.10200119018555,-16.08799934387207 57.750999450683594,-29.291000366210938 52.3390007019043,-33.90299987792969"/><path stroke-linecap="round" stroke-linejoin="round" fill-opacity="0" stroke="rgb(47,148,101)" stroke-opacity="1" stroke-width="3.507" d=" M36.33100128173828,-18.398000717163086 C28.46299934387207,-10.586000442504883 15.732000350952148,-0.2849999964237213 -5.559000015258789,11.845999717712402 C-18.124000549316406,19.0049991607666 -30.333999633789062,20.423999786376953 -39.141998291015625,23.62299919128418 C-49.224998474121094,27.284000396728516 -55.03799819946289,32.19499969482422 -55.03799819946289,32.19499969482422 C-55.03799819946289,32.19499969482422 -45.79899978637695,38.900001525878906 1.3259999752044678,25.742000579833984 C48.45100021362305,12.583999633789062 54.45500183105469,4.895999908447266 54.691001892089844,-0.1289999932050705 C54.926998138427734,-5.1539998054504395 49.47800064086914,-11.470000267028809 49.47800064086914,-11.470000267028809 C54.10200119018555,-16.08799934387207 57.750999450683594,-29.291000366210938 52.3390007019043,-33.90299987792969"/></g><g opacity="1" transform="matrix(1,0,0,1,311.5299987792969,415.5050048828125)"><path fill="rgb(76,188,129)" fill-opacity="1" d=" M22.023000717163086,-10.845000267028809 C22.023000717163086,-10.845000267028809 17.155000686645508,2.680999994277954 29.624000549316406,0.6439999938011169 C28.233999252319336,1.0670000314712524 -8.631999969482422,13.579000473022461 -29.624000549316406,10.29699993133545 C-29.624000549316406,10.29699993133545 -22.840999603271484,5.109000205993652 -12.114999771118164,2.2760000228881836 C9.267000198364258,-3.371000051498413 10.07699966430664,-4.103000164031982 22.023000717163086,-10.845000267028809z"/></g><g opacity="1" transform="matrix(1,0,0,1,372.09600830078125,390.364013671875)"><path fill="rgb(80,217,127)" fill-opacity="1" d=" M-10.618000030517578,7.6529998779296875 C-10.618000030517578,7.6529998779296875 2.053999900817871,3.953000068664551 10.618000030517578,-7.6529998779296875"/><path stroke-linecap="round" stroke-linejoin="round" fill-opacity="0" stroke="rgb(47,148,101)" stroke-opacity="1" stroke-width="3.507" d=" M-10.618000030517578,7.6529998779296875 C-10.618000030517578,7.6529998779296875 2.053999900817871,3.953000068664551 10.618000030517578,-7.6529998779296875"/></g></g><g transform="matrix(0.9961814880371094,-0.08817949146032333,0.08730674535036087,1.0061396360397339,-19.80984115600586,22.051557540893555)" opacity="1" style="display: block;"><g opacity="1" transform="matrix(1,0,0,1,311.885986328125,88.75800323486328)"><path fill="rgb(196,193,211)" fill-opacity="1" d=" M-44.26599884033203,14.538999557495117 C-44.26599884033203,14.538999557495117 -26.609893798828125,-15.622145652770996 -17.658916473388672,-27.81955337524414 C-8.331589698791504,-40.530155181884766 0.5905441045761108,-50.041290283203125 10.550773620605469,-48.29871368408203 C25.23702621459961,-45.729530334472656 41.4010009765625,19.03499984741211 44.26599884033203,47.03200149536133 C44.26599884033203,47.03200149536133 -5.4720001220703125,48.19300079345703 -44.26599884033203,14.538999557495117z"/><path stroke-linecap="round" stroke-linejoin="round" fill-opacity="0" stroke="rgb(117,114,127)" stroke-opacity="1" stroke-width="3.507" d=" M-44.26599884033203,14.538999557495117 C-44.26599884033203,14.538999557495117 -26.609893798828125,-15.622145652770996 -17.658916473388672,-27.81955337524414 C-8.331589698791504,-40.530155181884766 0.5905441045761108,-50.041290283203125 10.550773620605469,-48.29871368408203 C25.23702621459961,-45.729530334472656 41.4010009765625,19.03499984741211 44.26599884033203,47.03200149536133 C44.26599884033203,47.03200149536133 -5.4720001220703125,48.19300079345703 -44.26599884033203,14.538999557495117z"/></g><g opacity="1" transform="matrix(1,0,0,1,0,0)"><g opacity="1" transform="matrix(1,0,0,1,315.16400146484375,91.7040023803711)"><path fill="rgb(237,165,192)" fill-opacity="1" d=" M-24.12299919128418,17.30900001525879 C-24.12299919128418,17.30900001525879 -20.729961395263672,7.98891544342041 -14.765884399414062,-7.453421592712402 C-6.70775842666626,-28.31744956970215 0.5080397129058838,-36.64936065673828 4.910490036010742,-36.90646743774414 C9.31294059753418,-37.163578033447266 25.374000549316406,-10.244000434875488 24.014999389648438,35.40599822998047 C24.014999389648438,35.40599822998047 -11.307000160217285,26.29800033569336 -24.12299919128418,17.30900001525879z"/></g><g opacity="1" transform="matrix(1,0,0,1,310.90399169921875,87.55000305175781)"><path fill="rgb(206,149,177)" fill-opacity="1" d=" M15.906408309936523,-25.151447296142578 C15.906408309936523,-25.151447296142578 8.874835968017578,-26.09818458557129 5.085211277008057,-18.157630920410156 C2.8462350368499756,-13.46621036529541 -5.041999816894531,7.817999839782715 2.0940001010894775,32.19499969482422 C2.0940001010894775,32.19499969482422 -10.149999618530273,27.266000747680664 -19.988000869750977,21.634000778198242 C-19.988000869750977,21.634000778198242 -15.017350196838379,7.412513256072998 -8.224478721618652,-9.006208419799805 C-1.4316074848175049,-25.424930572509766 5.6006760597229,-32.4964714050293 8.993403434753418,-32.582645416259766 C12.331130027770996,-32.667728424072266 15.906408309936523,-25.151447296142578 15.906408309936523,-25.151447296142578z"/></g><g opacity="1" transform="matrix(1,0,0,1,315.16400146484375,91.7040023803711)"><path stroke-linecap="round" stroke-linejoin="round" fill-opacity="0" stroke="rgb(174,103,139)" stroke-opacity="1" stroke-width="3.507" d=" M-24.12299919128418,17.30900001525879 C-24.12299919128418,17.30900001525879 -20.729961395263672,7.98891544342041 -14.765884399414062,-7.453421592712402 C-6.70775842666626,-28.31744956970215 0.5080397129058838,-36.64936065673828 4.910490036010742,-36.90646743774414 C9.31294059753418,-37.163578033447266 25.374000549316406,-10.244000434875488 24.014999389648438,35.40599822998047 C24.014999389648438,35.40599822998047 -11.307000160217285,26.29800033569336 -24.12299919128418,17.30900001525879z"/></g></g></g><g transform="matrix(0.9994485378265381,-0.03353961184620857,0.03320765867829323,1.0094393491744995,-12.970105171203613,4.899620056152344)" opacity="1" style="display: block;"><g opacity="1" transform="matrix(1,0,0,1,251.88400268554688,233.73399353027344)"><path fill="rgb(196,193,211)" fill-opacity="1" d=" M93.89600372314453,137.5260009765625 C99.67500305175781,135.13099670410156 166.7239990234375,109.43399810791016 172.99400329589844,53.92100143432617 C176.14599609375,26.014999389648438 159.61000061035156,-6.695000171661377 151.47999572753906,-28.17300033569336 C143.35000610351562,-49.6510009765625 122.2030029296875,-124.72899627685547 34.801998138427734,-138.4340057373047 C-60.861000061035156,-153.43499755859375 -119.66799926757812,-89.12000274658203 -133.96600341796875,-38.86199951171875 C-140.5070037841797,-15.869999885559082 -141.83399963378906,6.010000228881836 -151.822998046875,21.336000442504883 C-162.1381072998047,30.98101234436035 -172.42730712890625,42.245872497558594 -172.42730712890625,42.245872497558594 C-172.42730712890625,42.245872497558594 -160.17347717285156,41.55522537231445 -147.31700134277344,36.25199890136719 C-159.00491333007812,45.67488479614258 -173.37197875976562,52.2374153137207 -173.37197875976562,52.2374153137207 C-173.37197875976562,52.2374153137207 -167.078369140625,54.785484313964844 -151.13600158691406,59.41999816894531 C-158.10401916503906,62.23109436035156 -166.91064453125,66.93598175048828 -166.91064453125,66.93598175048828 C-166.91064453125,66.93598175048828 -158.56585693359375,71.33470916748047 -149.51199340820312,81.25299835205078 C-127.89399719238281,103.56300354003906 -74.69000244140625,139.04299926757812 -10.965999603271484,143.0260009765625"/></g><g opacity="1" transform="matrix(1,0,0,1,133.46800231933594,243.8769989013672)"><path fill="rgb(173,170,198)" fill-opacity="1" d=" M36.632999420166016,-122.14299774169922 C36.632999420166016,-122.14299774169922 12.97599983215332,-51.8380012512207 23.81399917602539,28.183000564575195 C31.215999603271484,82.83599853515625 53.909000396728516,122.14299774169922 53.909000396728516,122.14299774169922 C53.909000396728516,122.14299774169922 7.145762920379639,109.8450927734375 -31.481000900268555,70.85299682617188 C-35.829010009765625,66.46614074707031 -43.44198989868164,59.64198303222656 -48.53836441040039,57.070533752441406 C-48.53836441040039,57.070533752441406 -40.30421447753906,52.694984436035156 -32.55400085449219,49.33399963378906 C-50.72600173950195,44.347999572753906 -54.903289794921875,42.165096282958984 -54.903289794921875,42.165096282958984 C-54.903289794921875,42.165096282958984 -40.37248611450195,35.052852630615234 -29.020999908447266,26.216999053955078 C-41.767333984375,31.522916793823242 -54.00807189941406,32.38499069213867 -54.00807189941406,32.38499069213867 C-54.00807189941406,32.38499069213867 -44.423431396484375,22.612260818481445 -32.041297912597656,9.463140487670898 C-19.45397186279297,-15.055231094360352 -19.42099952697754,-57.244998931884766 0.6169999837875366,-83.01200103759766 C19.01799964904785,-106.67400360107422 27.56399917602539,-117.2959976196289 36.632999420166016,-122.14299774169922z"/></g><g opacity="1" transform="matrix(1,0,0,1,262.3030090332031,319.0929870605469)"><path fill="rgb(248,248,248)" fill-opacity="1" d=" M163.7209930419922,-46.42300033569336 C163.7209930419922,-46.42300033569336 150.63699340820312,-35.02299880981445 129.23500061035156,-37.54100036621094 C99.2699966430664,-41.06700134277344 83.46600341796875,-63.2869987487793 60.21200180053711,-59.90700149536133 C28.979999542236328,-55.367000579833984 -6.10699987411499,-36.25 -25.63800048828125,-28.402000427246094 C-72.6500015258789,-9.571999549865723 -121.94400024414062,4.989999771118164 -164.2100067138672,-10.85200023651123 C-118.02799987792969,36.88999938964844 -73.1449966430664,60.25600051879883 47.11399841308594,60.25600051879883 C79.53600311279297,60.25600051879883 124.74199676513672,32.82600021362305 143.33299255371094,11.555000305175781 C157.29400634765625,-4.419000148773193 166.47799682617188,-24.93899917602539 163.7209930419922,-46.42300033569336z"/></g><g opacity="1" transform="matrix(1,0,0,1,251.88400268554688,234.92300415039062)"><path stroke-linecap="round" stroke-linejoin="round" fill-opacity="0" stroke="rgb(117,114,127)" stroke-opacity="1" stroke-width="3.507" d=" M93.89600372314453,136.33700561523438 C99.67500305175781,133.94200134277344 166.7239990234375,108.24500274658203 172.99400329589844,52.731998443603516 C176.14599609375,24.826000213623047 159.61000061035156,-7.883999824523926 151.47999572753906,-29.36199951171875 C143.35000610351562,-50.84000015258789 122.2030029296875,-125.91799926757812 34.801998138427734,-139.6230010986328 C-60.861000061035156,-154.62399291992188 -119.66799926757812,-90.30799865722656 -133.96600341796875,-40.04999923706055 C-140.5070037841797,-17.058000564575195 -141.83399963378906,4.821000099182129 -151.822998046875,20.14699935913086 C-162.1381072998047,29.792011260986328 -172.42730712890625,41.0568733215332 -172.42730712890625,41.0568733215332 C-172.42730712890625,41.0568733215332 -160.17347717285156,40.367225646972656 -147.31700134277344,35.06399917602539 C-159.00491333007812,44.48688507080078 -173.37197875976562,51.049190521240234 -173.37197875976562,51.049190521240234 C-173.37197875976562,51.049190521240234 -167.078369140625,53.59748458862305 -151.13600158691406,58.231998443603516 C-158.10401916503906,61.043094635009766 -166.91064453125,65.74697875976562 -166.91064453125,65.74697875976562 C-166.91064453125,65.74697875976562 -158.56585693359375,70.14570617675781 -149.51199340820312,80.06400299072266 C-127.89399719238281,102.3740005493164 -74.69000244140625,137.85400390625 -10.965999603271484,141.83700561523438"/></g></g><g transform="matrix(0.9994485378265381,-0.03353961184620857,0.03320765867829323,1.0094393491744995,241.08267211914062,80.95540618896484)" opacity="1" style="display: block;"><g opacity="1" transform="matrix(1,0,0,1,0,0)"><path fill="rgb(196,193,211)" fill-opacity="1" d=" M42.18000030517578,15.027999877929688 C28.108999252319336,-13.13700008392334 -7.717232704162598,-15.548558235168457 -7.717232704162598,-15.548558235168457 C-7.717232704162598,-15.548558235168457 4.840008735656738,-5.843154430389404 1.597000002861023,5.9629998207092285 C-4.268682956695557,-12.008709907531738 -27.004825592041016,-12.890541076660156 -27.004825592041016,-12.890541076660156 C-27.004825592041016,-12.890541076660156 -14.635000228881836,-6.607999801635742 -21.174999237060547,7.289999961853027 C-23.86928939819336,3.2060139179229736 -32.19540023803711,0.7515580654144287 -32.19540023803711,0.7515580654144287 C-32.19540023803711,0.7515580654144287 -28.35245132446289,13.1327543258667 -42.18000030517578,17.86400032043457"/><path stroke-linecap="round" stroke-linejoin="round" fill-opacity="0" stroke="rgb(117,114,127)" stroke-opacity="1" stroke-width="3.507" d=" M42.18000030517578,15.027999877929688 C28.108999252319336,-13.13700008392334 -7.717232704162598,-15.548558235168457 -7.717232704162598,-15.548558235168457 C-7.717232704162598,-15.548558235168457 4.840008735656738,-5.843154430389404 1.597000002861023,5.9629998207092285 C-4.268682956695557,-12.008709907531738 -27.004825592041016,-12.890541076660156 -27.004825592041016,-12.890541076660156 C-27.004825592041016,-12.890541076660156 -14.635000228881836,-6.607999801635742 -21.174999237060547,7.289999961853027 C-23.86928939819336,3.2060139179229736 -32.19540023803711,0.7515580654144287 -32.19540023803711,0.7515580654144287 C-32.19540023803711,0.7515580654144287 -28.35245132446289,13.1327543258667 -42.18000030517578,17.86400032043457"/></g></g><g transform="matrix(0.9994485378265381,-0.03353961184620857,0.03320765867829323,1.0094393491744995,-12.970105171203613,4.899620056152344)" opacity="1" style="display: block;"><g opacity="1" transform="matrix(1,0,0,1,213.1060028076172,104.69000244140625)"><path fill="rgb(196,193,211)" fill-opacity="1" d=" M13.538999557495117,0.32100000977516174 C13.786999702453613,2.490000009536743 7.784999847412109,6.5960001945495605 1.7799999713897705,6.5960001945495605 C-4.224999904632568,6.5960001945495605 -13.293000221252441,2.5169999599456787 -13.541000366210938,0.3479999899864197 C-13.788999557495117,-1.8209999799728394 -5.315999984741211,-5.438000202178955 3.7130000591278076,-6.4720001220703125 C12.741999626159668,-7.50600004196167 13.291000366210938,-1.8480000495910645 13.538999557495117,0.32100000977516174z"/></g><g opacity="1" transform="matrix(1,0,0,1,156.83299255371094,138.7779998779297)"><path fill="rgb(196,193,211)" fill-opacity="1" d=" M59.98500061035156,-40.560001373291016 C-1.156000018119812,-32.59700012207031 -47.643455505371094,-51.685813903808594 -57.26445770263672,-43.00181198120117 C-76.38045501708984,-25.748811721801758 -30.558000564575195,31.591999053955078 -36.180999755859375,50.1349983215332"/></g><g opacity="1" transform="matrix(1,0,0,1,136.3419952392578,146.6699981689453)"><path fill="rgb(173,170,198)" fill-opacity="1" d=" M-20.524581909179688,-20.25249481201172 C-35.6356315612793,-29.082674026489258 -39.82380676269531,-47.6735954284668 -39.82380676269531,-47.6735954284668 C-45.170143127441406,-34.78453826904297 -36.75510025024414,-16.543081283569336 -28.635990142822266,2.194347381591797 C-22.117355346679688,17.23807144165039 -13.958999633789062,27.742000579833984 -14.446000099182129,41.18199920654297 C-14.96399974822998,55.48500061035156 17.691999435424805,52.97200012207031 27.665000915527344,5.326000213623047 C28.666000366210938,0.5419999957084656 33.80099868774414,-16.48200035095215 37.89799880981445,-19.559999465942383 C-2.444999933242798,-9.211000442504883 -20.524581909179688,-20.25249481201172 -20.524581909179688,-20.25249481201172z"/></g><g opacity="1" transform="matrix(1,0,0,1,147.95199584960938,130.18800354003906)"><g opacity="1" transform="matrix(1,0,0,1,0,0)"><path fill="rgb(237,165,192)" fill-opacity="1" d=" M-15.289999961853027,28.788000106811523 C13.32699966430664,4.321000099182129 41.20600128173828,-12.97700023651123 41.20600128173828,-12.97700023651123 C-9.334269523620605,-14.557798385620117 -33.39381790161133,-27.069377899169922 -39.973812103271484,-23.123779296875 C-51.402034759521484,-16.269250869750977 -25.400997161865234,22.06908416748047 -15.289999961853027,28.788000106811523z"/></g></g><g opacity="1" transform="matrix(1,0,0,1,133.48399353027344,129.94900512695312)"><path fill="rgb(206,149,177)" fill-opacity="1" d=" M-19.53024673461914,-23.04171371459961 C-19.53024673461914,-23.04171371459961 -22.4648494720459,-11.334488868713379 -6.494654655456543,3.357053279876709 C1.7362935543060303,10.956010818481445 25.97800064086914,7.664000034332275 25.97800064086914,7.664000034332275 C25.97800064086914,7.664000034332275 6.339000225067139,22.865999221801758 -0.6200000047683716,29.152000427246094 C-9.348237991333008,21.71106719970703 -33.8174934387207,-9.021650314331055 -27.4237003326416,-20.556005477905273 C-25.401081085205078,-24.22208023071289 -21.99942398071289,-23.89152717590332 -19.53024673461914,-23.04171371459961z"/></g><g opacity="1" transform="matrix(1,0,0,1,147.95199584960938,130.18800354003906)"><g opacity="1" transform="matrix(1,0,0,1,0,0)"><path stroke-linecap="round" stroke-linejoin="round" fill-opacity="0" stroke="rgb(174,103,139)" stroke-opacity="1" stroke-width="3.507" d=" M-15.289999961853027,28.788000106811523 C13.32699966430664,4.321000099182129 41.20600128173828,-12.97700023651123 41.20600128173828,-12.97700023651123 C-9.334269523620605,-14.557798385620117 -33.39381790161133,-27.069377899169922 -39.973812103271484,-23.123779296875 C-51.402034759521484,-16.269250869750977 -25.400997161865234,22.06908416748047 -15.289999961853027,28.788000106811523z"/></g></g><g opacity="1" transform="matrix(1,0,0,1,156.83299255371094,138.7779998779297)"><path stroke-linecap="round" stroke-linejoin="round" fill-opacity="0" stroke="rgb(117,114,127)" stroke-opacity="1" stroke-width="3.507" d=" M59.98500061035156,-40.560001373291016 C-1.156000018119812,-32.59700012207031 -47.643455505371094,-51.685813903808594 -57.26445770263672,-43.00181198120117 C-76.38045501708984,-25.748811721801758 -30.558000564575195,31.591999053955078 -36.180999755859375,50.1349983215332"/></g></g><g transform="matrix(0.9994485378265381,-0.03353961184620857,0.03320765867829323,1.0094393491744995,256.27886962890625,224.99302673339844)" opacity="1" style="display: block;"><g opacity="1" transform="matrix(1,0,0,1,0,0)"><path fill="rgb(248,248,248)" fill-opacity="1" d=" M40.34400177001953,20.336999893188477 C42.7130012512207,10.187999725341797 37.856998443603516,-11.54800033569336 32.03900146484375,-28.05299949645996 C22.614999771118164,-54.74800109863281 5.060999870300293,-68.68199920654297 -13.390999794006348,-65.08399963378906 C-54.32400131225586,-57.10200119018555 -53.17300033569336,4.715000152587891 -47.263999938964844,16.26300048828125 C-42.854000091552734,24.881999969482422 -40.29199981689453,32.97700119018555 -16.843000411987305,37.39500045776367 C-6.5279998779296875,39.3380012512207 2.378999948501587,39.67300033569336 11.973999977111816,37.55699920654297 C28.517000198364258,33.90800094604492 38.415000915527344,28.60300064086914 40.34400177001953,20.336999893188477z"/></g></g><g transform="matrix(0.9994485378265381,-0.03353961184620857,0.03320765867829323,1.0094393491744995,366.1565856933594,206.1393585205078)" opacity="1" style="display: block;"><g opacity="1" transform="matrix(1,0,0,1,0,0)"><path fill="rgb(248,248,248)" fill-opacity="1" d=" M12.819999694824219,51.404998779296875 C27.1299991607666,47.707000732421875 31.57900047302246,41.54899978637695 33.159000396728516,32.78799819946289 C37.80400085449219,7.0269999504089355 25.000999450683594,-34.62900161743164 -9.574999809265137,-47.88999938964844 C-20.864999771118164,-52.395999908447266 -30.58300018310547,-54.82899856567383 -34.013999938964844,-16.03499984741211 C-37.553001403808594,23.976999282836914 -26.31399917602539,41.685001373291016 -22.73900032043457,45.560001373291016 C-19.163999557495117,49.435001373291016 -8.958999633789062,57.03300094604492 12.819999694824219,51.404998779296875z"/></g></g><g transform="matrix(1.2431819438934326,-0.26466718316078186,0.262047678232193,1.255609154701233,247.73379516601562,244.61160278320312)" opacity="1" style="display: block;"><g opacity="1" transform="matrix(1,0,0,1,0,0)"><path fill="rgb(255,255,255)" fill-opacity="1" d=" M21.12299919128418,10.842000007629395 C22.89900016784668,8.923999786376953 23.722999572753906,6.005000114440918 24.13599967956543,3.3910000324249268 C26.117000579833984,-7.745999813079834 19.84000015258789,-20.159000396728516 7.991000175476074,-21.96500015258789 C-3.1700000762939453,-25.08799934387207 -15.27400016784668,-19.617000579833984 -20.191999435424805,-9.095999717712402 C-21.39299964904785,-6.672999858856201 -22.493999481201172,-3.9240000247955322 -22.493999481201172,-1.24399995803833 C-21.913999557495117,7.677999973297119 -10.965999603271484,10.675999641418457 -3.7239999771118164,12.9350004196167 C4.181000232696533,14.496999740600586 14.12600040435791,15.376999855041504 21.12299919128418,10.842000007629395z"/></g></g><g transform="matrix(1.1839827299118042,-0.2520640194416046,0.24956925213336945,1.1958181858062744,-51.06746292114258,64.44910430908203)" opacity="1" style="display: block;"><g opacity="1" transform="matrix(1,0,0,1,210.24600219726562,188.43299865722656)"><path fill="rgb(103,164,129)" fill-opacity="1" d=" M-15.291999816894531,0.4440000057220459 C-15.031999588012695,9.401000022888184 -7.973999977111816,16.461999893188477 0.47099998593330383,16.216999053955078 C8.916000366210938,15.972000122070312 15.552000045776367,8.512999534606934 15.291999816894531,-0.4440000057220459 C15.031999588012695,-9.401000022888184 7.973999977111816,-16.461999893188477 -0.47099998593330383,-16.216999053955078 C-8.916000366210938,-15.972000122070312 -15.552000045776367,-8.512999534606934 -15.291999816894531,0.4440000057220459z"/><path stroke-linecap="round" stroke-linejoin="round" fill-opacity="0" stroke="rgb(96,104,113)" stroke-opacity="1" stroke-width="2.453" d=" M-15.291999816894531,0.4440000057220459 C-15.031999588012695,9.401000022888184 -7.973999977111816,16.461999893188477 0.47099998593330383,16.216999053955078 C8.916000366210938,15.972000122070312 15.552000045776367,8.512999534606934 15.291999816894531,-0.4440000057220459 C15.031999588012695,-9.401000022888184 7.973999977111816,-16.461999893188477 -0.47099998593330383,-16.216999053955078 C-8.916000366210938,-15.972000122070312 -15.552000045776367,-8.512999534606934 -15.291999816894531,0.4440000057220459z"/></g><g opacity="1" transform="matrix(1,0,0,1,210.468994140625,188.43800354003906)"><path fill="rgb(0,0,0)" fill-opacity="1" d=" M-10.958999633789062,0.3179999887943268 C-10.77299976348877,6.736999988555908 -5.716000080108643,11.798999786376953 0.3370000123977661,11.623000144958496 C6.389999866485596,11.446999549865723 11.145000457763672,6.10099983215332 10.958999633789062,-0.3179999887943268 C10.77299976348877,-6.736999988555908 5.716000080108643,-11.798999786376953 -0.3370000123977661,-11.623000144958496 C-6.389999866485596,-11.446999549865723 -11.145000457763672,-6.10099983215332 -10.958999633789062,0.3179999887943268z"/></g><g opacity="1" transform="matrix(1,0,0,1,203.6820068359375,180.03399658203125)"><path fill="rgb(255,255,255)" fill-opacity="1" d=" M-3.7190001010894775,0.1080000028014183 C-3.6559998989105225,2.2860000133514404 -1.940000057220459,4.004000186920166 0.11400000005960464,3.944000005722046 C2.1679999828338623,3.884000062942505 3.7820000648498535,2.069999933242798 3.7190001010894775,-0.1080000028014183 C3.6559998989105225,-2.2860000133514404 1.940000057220459,-4.004000186920166 -0.11400000005960464,-3.944000005722046 C-2.1679999828338623,-3.884000062942505 -3.7820000648498535,-2.069999933242798 -3.7190001010894775,0.1080000028014183z"/></g></g><g transform="matrix(1.1839827299118042,-0.2520640194416046,0.24956925213336945,1.1958181858062744,248.1288604736328,243.9567108154297)" opacity="1" style="display: block;"><g opacity="1" transform="matrix(1,0,0,1,0,0)"><path fill="rgb(250,250,250)" fill-opacity="1" d=" M8.16264820098877,-59.97946548461914 C-34.21235275268555,-62.60446548461914 -23.829999923706055,-1.9819999933242798 -23.829999923706055,-1.9819999933242798 C-23.829999923706055,-1.9819999933242798 -21.382999420166016,-26.132999420166016 5.453000068664551,-24.17099952697754 C29.291000366210938,-22.429000854492188 25.398000717163086,4.711999893188477 25.398000717163086,4.711999893188477 C25.398000717163086,4.711999893188477 50.53764724731445,-57.35446548461914 8.16264820098877,-59.97946548461914z"/></g><g opacity="1" transform="matrix(1,0,0,1,0,0)"><path fill="rgb(250,250,250)" fill-opacity="1" d=" M-2.5940001010894775,14.118000030517578 C-24.128999710083008,10.82699966430664 -24.60700035095215,-2.2880001068115234 -24.60700035095215,-2.2880001068115234 C-24.60700035095215,-2.2880001068115234 -21.173999786376953,11.152000427246094 -3.0880000591278076,13.939000129699707 C26.413000106811523,18.486000061035156 25.488000869750977,3.5759999752044678 25.488000869750977,3.5759999752044678 C25.488000869750977,3.5759999752044678 27.889999389648438,18.775999069213867 -2.5940001010894775,14.118000030517578z"/></g><g opacity="1" transform="matrix(1,0,0,1,0,0)"><path fill="rgb(0,0,0)" fill-opacity="1" d=" M21.12299919128418,10.842000007629395 C22.89900016784668,8.923999786376953 23.722999572753906,6.005000114440918 24.13599967956543,3.3910000324249268 C26.117000579833984,-7.745999813079834 19.84000015258789,-20.159000396728516 7.991000175476074,-21.96500015258789 C-3.1700000762939453,-25.08799934387207 -15.27400016784668,-19.617000579833984 -20.191999435424805,-9.095999717712402 C-21.39299964904785,-6.672999858856201 -22.493999481201172,-3.9240000247955322 -22.493999481201172,-1.24399995803833 C-21.913999557495117,7.677999973297119 -10.965999603271484,10.675999641418457 -3.7239999771118164,12.9350004196167 C4.181000232696533,14.496999740600586 14.12600040435791,15.376999855041504 21.12299919128418,10.842000007629395z M22.75,12.51200008392334 C15.062000274658203,17.80299949645996 4.422999858856201,16.722000122070312 -4.2769999504089355,15.010000228881836 C-12.574000358581543,12.654999732971191 -24.586999893188477,9.184000015258789 -25.16699981689453,-1.1929999589920044 C-25.216999053955078,-4.486000061035156 -24.06599998474121,-7.4730000495910645 -22.70599937438965,-10.352999687194824 C-17.437999725341797,-22.176000595092773 -3.747999906539917,-28.426000595092773 8.675999641418457,-25.0049991607666 C21.926000595092773,-22.96299934387207 29.19700050354004,-8.675000190734863 26.625999450683594,3.802999973297119 C26.025999069213867,6.9670000076293945 25.097000122070312,10.071999549865723 22.75,12.51200008392334z"/></g></g><g transform="matrix(1.175182819366455,-0.2881757915019989,0.2881757915019989,1.175182819366455,-56.56267166137695,78.0555191040039)" opacity="1" style="display: none;"><g opacity="1" transform="matrix(1,0,0,1,0,0)"><g opacity="1" transform="matrix(1,0,0,1,201.76699829101562,202.177001953125)"><path fill="rgb(198,195,213)" fill-opacity="1" d=" M16.39299964904785,1.3270000219345093 C15.152000427246094,3.2799999713897705 6.868000030517578,7.956999778747559 -2.243000030517578,5.059999942779541 C-11.354000091552734,2.1630001068115234 -17.549999237060547,0.47099998593330383 -16.364999771118164,-3.255000114440918 C-15.180000305175781,-6.980999946594238 -8.138999938964844,-6.267000198364258 1.3519999980926514,-4.770999908447266 C12.51200008392334,-3.01200008392334 17.347999572753906,-0.1770000010728836 16.39299964904785,1.3270000219345093z"/></g><g opacity="1" transform="matrix(1,0,0,1,202.43600463867188,199.26800537109375)"><path stroke-linecap="round" stroke-linejoin="round" fill-opacity="0" stroke="rgb(117,114,127)" stroke-opacity="1" stroke-width="2.864" d=" M15.152999877929688,2.5280001163482666 C15.152999877929688,2.5280001163482666 4.28000020980835,-2.6029999256134033 -15.152999877929688,-2.5269999504089355"/></g></g><g opacity="1" transform="matrix(1,0,0,1,0,0)"><g opacity="1" transform="matrix(1,0,0,1,212.79600524902344,181.9669952392578)"><path stroke-linecap="round" stroke-linejoin="round" fill-opacity="0" stroke="rgb(117,114,127)" stroke-opacity="1" stroke-width="2.864" d=" M-25.5,-2.8529999256134033 C-25.5,-2.8529999256134033 -19.253999710083008,-11.564000129699707 -2.8519999980926514,-10.11400032043457 C14.609999656677246,-8.569999694824219 25.5,10.277000427246094 25.5,10.277000427246094"/></g></g></g><g transform="matrix(1.2675533294677734,-0.0873444601893425,0.08647998422384262,1.2802242040634155,-45.911624908447266,10.022880554199219)" opacity="1" style="display: block;"><g opacity="1" transform="matrix(1,0,0,1,0,0)"><path fill="rgb(255,255,255)" fill-opacity="1" d=" M329.135986328125,206.74099731445312 C329.8399963378906,204.37399291992188 330.0119934082031,201.77999877929688 329.85400390625,199.2429962158203 C329.4519958496094,189.13400268554688 322.2409973144531,179.50100708007812 311.6919860839844,178.62600708007812 C300.4209899902344,177.6909942626953 292.7980041503906,186.2989959716797 291.1180114746094,196.20399475097656 C290.60101318359375,198.71400451660156 290.3739929199219,201.3280029296875 290.6780090332031,203.79600524902344 C290.9739990234375,206.24099731445312 292.0849914550781,208.50100708007812 293.9639892578125,210.05599975585938 C299.0539855957031,214.02499389648438 306.3039855957031,214.1009979248047 312.5480041503906,213.822998046875 C316.4079895019531,213.58999633789062 320.3030090332031,212.67999267578125 323.8080139160156,211.09300231933594 C325.77301025390625,210.1580047607422 328.39801025390625,208.72799682617188 329.135986328125,206.74099731445312z"/></g></g><g transform="matrix(1.2071937322616577,-0.08318520337343216,0.08236189186573029,1.2192611694335938,-25.39164161682129,21.7243595123291)" opacity="1" style="display: block;"><g opacity="1" transform="matrix(1,0,0,1,304.072998046875,193.8939971923828)"><path fill="rgb(103,164,129)" fill-opacity="1" d=" M-13.781000137329102,2.755000114440918 C-12.076000213623047,11.284000396728516 -4.52400016784668,16.96299934387207 3.0869998931884766,15.442000389099121 C10.697999954223633,13.920999526977539 15.486000061035156,5.77400016784668 13.781000137329102,-2.755000114440918 C12.076000213623047,-11.284000396728516 4.52400016784668,-16.96299934387207 -3.0869998931884766,-15.442000389099121 C-10.697999954223633,-13.920999526977539 -15.486000061035156,-5.77400016784668 -13.781000137329102,2.755000114440918z"/><path stroke-linecap="round" stroke-linejoin="round" fill-opacity="0" stroke="rgb(96,104,113)" stroke-opacity="1" stroke-width="2.466" d=" M-13.781000137329102,2.755000114440918 C-12.076000213623047,11.284000396728516 -4.52400016784668,16.96299934387207 3.0869998931884766,15.442000389099121 C10.697999954223633,13.920999526977539 15.486000061035156,5.77400016784668 13.781000137329102,-2.755000114440918 C12.076000213623047,-11.284000396728516 4.52400016784668,-16.96299934387207 -3.0869998931884766,-15.442000389099121 C-10.697999954223633,-13.920999526977539 -15.486000061035156,-5.77400016784668 -13.781000137329102,2.755000114440918z"/></g><g opacity="1" transform="matrix(1,0,0,1,304.072998046875,193.8939971923828)"><path fill="rgb(0,0,0)" fill-opacity="1" d=" M-10.02400016784668,2.003999948501587 C-8.859999656677246,7.827000141143799 -3.427999973297119,11.651000022888184 2.1080000400543213,10.543999671936035 C7.644000053405762,9.437000274658203 11.187999725341797,3.819000005722046 10.02400016784668,-2.003999948501587 C8.859999656677246,-7.827000141143799 3.427999973297119,-11.651000022888184 -2.1080000400543213,-10.543999671936035 C-7.644000053405762,-9.437000274658203 -11.187999725341797,-3.819000005722046 -10.02400016784668,2.003999948501587z"/></g><g opacity="1" transform="matrix(1,0,0,1,300.7919921875,184.79200744628906)"><path fill="rgb(255,255,255)" fill-opacity="1" d=" M-3.5179998874664307,0.703000009059906 C-3.1089999675750732,2.746999979019165 -1.2029999494552612,4.0879998207092285 0.7400000095367432,3.700000047683716 C2.683000087738037,3.312000036239624 3.927000045776367,1.340999960899353 3.5179998874664307,-0.703000009059906 C3.1089999675750732,-2.746999979019165 1.2029999494552612,-4.0879998207092285 -0.7400000095367432,-3.700000047683716 C-2.683000087738037,-3.312000036239624 -3.927000045776367,-1.340999960899353 -3.5179998874664307,0.703000009059906z"/></g></g><g transform="matrix(1.2071937322616577,-0.08318520337343216,0.08236189186573029,1.2192611694335938,-26.522048950195312,19.73455810546875)" opacity="1" style="display: block;"><g opacity="1" transform="matrix(1,0,0,1,312.4679870605469,179.78900146484375)"><path fill="rgb(250,250,250)" fill-opacity="1" d=" M-22.100000381469727,15.901000022888184 C-22.100000381469727,15.901000022888184 -16.14699935913086,-5.578000068664551 1.8619999885559082,-2.0980000495910645 C20.003999710083008,1.4079999923706055 18.672000885009766,21.089000701904297 18.672000885009766,21.089000701904297 C18.672000885009766,21.089000701904297 24.79599952697754,-8.118000030517578 14.145000457763672,-30.422000885009766 C7.10699987411499,-45.1609992980957 -14.428000450134277,-48.290000915527344 -20.049999237060547,-37.56100082397461 C-34.060001373291016,-10.824999809265137 -22.100000381469727,15.901000022888184 -22.100000381469727,15.901000022888184z"/></g><g opacity="1" transform="matrix(1,0,0,1,312.4679870605469,179.78900146484375)"><path fill="rgb(250,250,250)" fill-opacity="1" d=" M15.042911529541016,30.378999710083008 C15.042911529541016,30.378999710083008 11.062000274658203,34.44499969482422 0.5649999976158142,35.10499954223633 C-13.916999816894531,36.01499938964844 -17.191999435424805,32.53799819946289 -17.191999435424805,32.53799819946289 C-17.191999435424805,32.53799819946289 -14.04800033569336,35.32699966430664 -4.151000022888184,35.3650016784668 C5.169000148773193,35.4010009765625 12.991999626159668,33.27399826049805 14.425999641418457,30.795000076293945 C14.795000076293945,30.363000869750977 15.042911529541016,30.378999710083008 15.042911529541016,30.378999710083008z"/></g><g opacity="1" transform="matrix(1,0,0,1,307.69000244140625,195.3730010986328)"><path fill="rgb(0,0,0)" fill-opacity="1" d=" M21.445999145507812,11.368000030517578 C22.149999618530273,9.00100040435791 22.32200050354004,6.4079999923706055 22.163999557495117,3.871000051498413 C21.761999130249023,-6.23799991607666 14.550000190734863,-15.871999740600586 4.000999927520752,-16.746999740600586 C-7.269999980926514,-17.68199920654297 -14.892910957336426,-9.072999954223633 -16.57291030883789,0.8320000171661377 C-17.08991050720215,3.3420000076293945 -17.31599998474121,5.954999923706055 -17.011999130249023,8.42300033569336 C-16.715999603271484,10.868000030517578 -15.605999946594238,13.128000259399414 -13.72700023651123,14.682999610900879 C-8.63700008392334,18.652000427246094 -1.3860000371932983,18.72800064086914 4.857999801635742,18.450000762939453 C8.718000411987305,18.216999053955078 12.61299991607666,17.30699920654297 16.118000030517578,15.720000267028809 C18.08300018310547,14.78499984741211 20.70800018310547,13.354999542236328 21.445999145507812,11.368000030517578z M23.739999771118164,12.104000091552734 C22.448999404907227,15.20199966430664 19.71299934387207,16.454999923706055 17.013999938964844,17.73699951171875 C13.166000366210938,19.36400032043457 9.081999778747559,20.19099998474121 4.934999942779541,20.32200050354004 C-1.8470886945724487,20.264999389648438 -9.258999824523926,20.55500030517578 -15.013999938964844,16.246000289916992 C-17.322999954223633,14.442999839782715 -18.802000045776367,11.616999626159668 -19.207000732421875,8.743000030517578 C-19.624000549316406,5.9039998054504395 -19.430999755859375,3.1089999675750732 -18.944000244140625,0.375 C-17.37700080871582,-10.902000427246094 -8.590999603271484,-20.945999145507812 4.322000026702881,-19.702999114990234 C16.23699951171875,-18.555999755859375 24.646089553833008,-7.730000019073486 24.760087966918945,3.7320001125335693 C24.863088607788086,6.5269999504089355 24.625999450683594,9.354000091552734 23.739999771118164,12.104000091552734z"/></g></g><g transform="matrix(0.9777942895889282,0.21166212856769562,-0.20956723392009735,0.9875686168670654,247.29391479492188,152.18099975585938)" opacity="1" style="display: block;"><g opacity="1" transform="matrix(1,0,0,1,0,0)"><path fill="rgb(133,134,159)" fill-opacity="1" d=" M25.298999786376953,-4.303999900817871 C30.329999923706055,-4.635000228881836 32.42599868774414,6.248000144958496 25.676000595092773,7.294000148773193 C18.187000274658203,8.454999923706055 10.972000122070312,9.994999885559082 0.8190000057220459,13.418999671936035 C-13.663000106811523,18.302000045776367 -23.357999801635742,26.28499984741211 -27.851999282836914,30.60099983215332 C-27.173999786376953,20.280000686645508 -16.02899932861328,7.734000205993652 -2.2750000953674316,2.312999963760376 C8.159000396728516,-1.7990000247955322 18.4689998626709,-3.8540000915527344 25.298999786376953,-4.303999900817871z"/><path stroke-linecap="round" stroke-linejoin="round" fill-opacity="0" stroke="rgb(124,119,147)" stroke-opacity="1" stroke-width="2.183" d=" M25.298999786376953,-4.303999900817871 C30.329999923706055,-4.635000228881836 32.42599868774414,6.248000144958496 25.676000595092773,7.294000148773193 C18.187000274658203,8.454999923706055 10.972000122070312,9.994999885559082 0.8190000057220459,13.418999671936035 C-13.663000106811523,18.302000045776367 -23.357999801635742,26.28499984741211 -27.851999282836914,30.60099983215332 C-27.173999786376953,20.280000686645508 -16.02899932861328,7.734000205993652 -2.2750000953674316,2.312999963760376 C8.159000396728516,-1.7990000247955322 18.4689998626709,-3.8540000915527344 25.298999786376953,-4.303999900817871z"/></g></g><g transform="matrix(0.9784981608390808,-0.2083173543214798,0.20625557005405426,0.9882795214653015,357.0900573730469,164.03067016601562)" opacity="1" style="display: block;"><g opacity="1" transform="matrix(1,0,0,1,0,0)"><path fill="rgb(133,134,159)" fill-opacity="1" d=" M-23.788000106811523,-7.75 C-18.60700035095215,-4.39900016784668 -11.467000007629395,-5.744999885559082 0.08100000023841858,-0.019999999552965164 C18.479000091552734,9.10099983215332 24.756999969482422,17.024999618530273 24.756999969482422,17.024999618530273 C24.756999969482422,17.024999618530273 24.917999267578125,9.63700008392334 18.12700080871582,0.4440000057220459 C13.156999588012695,-6.283999919891357 0.30399999022483826,-15.73900032043457 -17.264999389648438,-17.006000518798828 C-23.52199935913086,-17.457000732421875 -26.416000366210938,-9.449000358581543 -23.788000106811523,-7.75z"/><path stroke-linecap="round" stroke-linejoin="round" fill-opacity="0" stroke="rgb(124,119,147)" stroke-opacity="1" stroke-width="2.183" d=" M-23.788000106811523,-7.75 C-18.60700035095215,-4.39900016784668 -11.467000007629395,-5.744999885559082 0.08100000023841858,-0.019999999552965164 C18.479000091552734,9.10099983215332 24.756999969482422,17.024999618530273 24.756999969482422,17.024999618530273 C24.756999969482422,17.024999618530273 24.917999267578125,9.63700008392334 18.12700080871582,0.4440000057220459 C13.156999588012695,-6.283999919891357 0.30399999022483826,-15.73900032043457 -17.264999389648438,-17.006000518798828 C-23.52199935913086,-17.457000732421875 -26.416000366210938,-9.449000358581543 -23.788000106811523,-7.75z"/></g></g><g transform="matrix(0.9994485378265381,-0.03353961184620857,0.03320765867829323,1.0094393491744995,303.1678161621094,310.4908752441406)" opacity="1" style="display: block;"><g opacity="1" transform="matrix(1,0,0,1,0,0)"><path fill="rgb(135,77,116)" fill-opacity="1" d=" M-19.878000259399414,-36.547000885009766 C-19.88800048828125,-34.05099868774414 -9.503999710083008,-27.371999740600586 24.656999588012695,-28.492000579833984 C44.36399841308594,-29.13800048828125 36.57099914550781,-32.70899963378906 55.39799880981445,-35.95600128173828 C55.39799880981445,-35.95600128173828 55.867000579833984,-38.02399826049805 24.420000076293945,-38.5260009765625 C-7.0269999504089355,-39.02799987792969 -16.79800033569336,-37.53799819946289 -19.878000259399414,-36.547000885009766z"/></g></g><g transform="matrix(0.9282186031341553,-0.3759896159172058,0.37203502655029297,0.9380852580070496,-93.12113189697266,120.93244171142578)" opacity="1" style="display: none;"><g opacity="1" transform="matrix(1,0,0,1,305.7619934082031,334.1709899902344)"><path fill="rgb(236,123,178)" fill-opacity="1" d=" M-9.121847152709961,-9.72352409362793 C-9.121847152709961,-9.72352409362793 -9.225049018859863,-14.412884712219238 -3.292912721633911,-15.954419136047363 C2.639224052429199,-17.495952606201172 6.050293445587158,-12.205477714538574 10.968851089477539,-8.112666130065918 C15.334978103637695,-4.439068794250488 21.84016990661621,0.15484900772571564 17.355712890625,4.901479721069336 C7.392928600311279,16.373214721679688 -11.6458158493042,5.261078357696533 -16.934764862060547,-11.054570198059082"/><path stroke-linecap="round" stroke-linejoin="round" fill-opacity="0" stroke="rgb(202,107,156)" stroke-opacity="1" stroke-width="3.507" d=" M-9.121847152709961,-9.72352409362793 C-9.121847152709961,-9.72352409362793 -9.225049018859863,-14.412884712219238 -3.292912721633911,-15.954419136047363 C2.639224052429199,-17.495952606201172 6.050293445587158,-12.205477714538574 10.968851089477539,-8.112666130065918 C15.334978103637695,-4.439068794250488 21.84016990661621,0.15484900772571564 17.355712890625,4.901479721069336 C7.392928600311279,16.373214721679688 -11.6458158493042,5.261078357696533 -16.934764862060547,-11.054570198059082"/></g><g opacity="1" transform="matrix(1,0,0,1,300.22698974609375,327.5830078125)"><path fill="rgb(236,123,178)" fill-opacity="1" d=" M-5.382124900817871,1.690999984741211 C-8.332015037536621,-2.7060000896453857 -11.402189254760742,-5.442999839782715 -11.402189254760742,-5.442999839782715 C-11.402189254760742,-5.442999839782715 -1.6741634607315063,-13.04699993133545 2.9851369857788086,-0.21699999272823334 C7.644437789916992,12.61299991607666 -1.676300287246704,7.215000152587891 -5.382124900817871,1.690999984741211z"/></g><g opacity="1" transform="matrix(1,0,0,1,298.7330017089844,322.7359924316406)"><path stroke-linecap="round" stroke-linejoin="round" fill-opacity="0" stroke="rgb(202,107,156)" stroke-opacity="1" stroke-width="3.507" d=" M-10.313799858093262,-0.19801755249500275 C-10.313799858093262,-0.19801755249500275 -9.244854927062988,-4.511000156402588 -3.466426372528076,-4.046000003814697 C2.312001943588257,-3.5810000896453857 5.2012505531311035,4.079999923706055 5.2012505531311035,4.079999923706055"/></g></g><g transform="matrix(0.9994485378265381,-0.03353961184620857,0.03320765867829323,1.0094393491744995,303.1678161621094,310.4908752441406)" opacity="1" style="display: block;"><g opacity="1" transform="matrix(1,0,0,1,0,0)"><path fill="rgb(248,248,248)" fill-opacity="1" d=" M-19.878000259399414,-36.547000885009766 C-19.88800048828125,-34.05099868774414 -7.921999931335449,-33.11600112915039 26.23900032043457,-34.236000061035156 C45.94599914550781,-34.88199996948242 36.57099914550781,-32.70899963378906 55.39799880981445,-35.95600128173828 C55.39799880981445,-35.95600128173828 48.95820999145508,6.094537258148193 17.511211395263672,5.592536926269531 C-13.935789108276367,5.090537071228027 -21.33099937438965,-22.518999099731445 -19.878000259399414,-36.547000885009766z"/></g></g><g transform="matrix(0.9994485378265381,-0.03353961184620857,0.03320765867829323,1.0094393491744995,302.95672607421875,363.5348205566406)" opacity="1" style="display: block;"><g opacity="1" transform="matrix(1,0,0,1,0,0)"><path fill="rgb(216,217,228)" fill-opacity="1" d=" M1.7039999961853027,-48.95000076293945 C1.7039999961853027,-48.95000076293945 19.458999633789062,-38.090999603271484 34.32400131225586,-48.09199905395508 C34.32400131225586,-48.09199905395508 30.959999084472656,-35.06100082397461 19.459999084472656,-35.05099868774414 C5.626999855041504,-35.03900146484375 1.7039999961853027,-48.95000076293945 1.7039999961853027,-48.95000076293945z"/></g></g><g transform="matrix(0.9994485378265381,-0.03353961184620857,0.03320765867829323,1.0094393491744995,300.9381408691406,327.114501953125)" opacity="1" style="display: block;"><g opacity="1" transform="matrix(1,0,0,1,0,0)"><path fill="rgb(255,255,255)" fill-opacity="1" d=" M-16.04800033569336,-51.39799880981445 C-16.051000595092773,-52.34700012207031 -12.791999816894531,-53.6879997253418 -8.079000473022461,-52.53799819946289 C-5.52400016784668,-51.91400146484375 7.218999862670898,-47.25699996948242 22.325000762939453,-48.30099868774414 C38.44300079345703,-49.415000915527344 45.20600128173828,-53.1510009765625 47.16899871826172,-52.141998291015625 C51.99399948120117,-49.66299819946289 47.79999923706055,-46.12300109863281 24.406999588012695,-45.20000076293945 C1.0140000581741333,-44.277000427246094 -16.038999557495117,-48.46200180053711 -16.04800033569336,-51.39799880981445z"/></g></g><g transform="matrix(0.9994485378265381,-0.03353961184620857,0.03320765867829323,1.0094393491744995,304.0037536621094,295.9977111816406)" opacity="1" style="display: block;"><g opacity="1" transform="matrix(1,0,0,1,0,0)"><path fill="rgb(255,255,255)" fill-opacity="1" d=" M-21.025999069213867,-22.900999069213867 C-21.025999069213867,-22.900999069213867 -13.3100004196167,-15.166999816894531 26.10700035095215,-16.708999633789062 C37.72100067138672,-17.163000106811523 49.74800109863281,-20.13800048828125 52.22700119018555,-21.076000213623047 C52.22700119018555,-21.076000213623047 50.70399856567383,-25.28700065612793 26.520000457763672,-25.059999465942383 C2.3359999656677246,-24.83300018310547 -10.807999610900879,-22.291000366210938 -21.025999069213867,-22.900999069213867z"/></g></g><g transform="matrix(0.9994485378265381,-0.03353961184620857,0.03320765867829323,1.0094393491744995,-12.970105171203613,4.899620056152344)" opacity="1" style="display: block;"><g opacity="1" transform="matrix(1,0,0,1,305.9159851074219,312.66400146484375)"><g opacity="1" transform="matrix(1,0,0,1,0,0)"><path stroke-linecap="round" stroke-linejoin="round" fill-opacity="0" stroke="rgb(117,114,127)" stroke-opacity="1" stroke-width="3.507" d=" M-19.277000427246094,-36.38199996948242 C-17.488000869750977,-31.886999130249023 -5.650000095367432,-27.60099983215332 22.1560001373291,-28.191999435424805 C38.10900115966797,-28.5310001373291 39.6879997253418,-32.34600067138672 55.62099838256836,-35.38800048828125"/></g></g><g opacity="1" transform="matrix(1,0,0,1,315.0140075683594,284.7980041503906)"><path fill="rgb(248,248,248)" fill-opacity="1" d=" M51.277000427246094,-8.498000144958496 C51.277000427246094,-8.498000144958496 29.340999603271484,-26.871999740600586 -2.4059998989105225,-21.42300033569336 C-34.15299987792969,-15.973999977111816 -55.9630012512207,-0.03999999910593033 -55.9630012512207,-0.03999999910593033 C-55.9630012512207,-0.03999999910593033 -14.677000045776367,27.55500030517578 14.265000343322754,10.006999969482422 C24.791000366210938,14.810999870300293 42.4379997253418,15.706000328063965 50.90599822998047,7.736000061035156 C57.082000732421875,1.9229999780654907 55.56999969482422,-5.684999942779541 51.277000427246094,-8.498000144958496z"/></g><g opacity="1" transform="matrix(1,0,0,1,315.0140075683594,284.7980041503906)"><path stroke-linecap="round" stroke-linejoin="round" fill-opacity="0" stroke="rgb(117,114,127)" stroke-opacity="1" stroke-width="3.507" d=" M-32.255001068115234,8.697999954223633 C-32.255001068115234,8.697999954223633 -14.430999755859375,27.808000564575195 14.265000343322754,10.006999969482422 C21.259000778198242,14.522000312805176 28.140945434570312,16.059999465942383 36.435001373291016,15.454999923706055 C43.35499954223633,14.949999809265137 51.72800064086914,9.586000442504883 54.06800079345703,1.6440000534057617"/></g><g opacity="1" transform="matrix(1,0,0,1,257.6050109863281,286.72100830078125)"><path stroke-linecap="round" stroke-linejoin="round" fill-opacity="0" stroke="rgb(117,114,127)" stroke-opacity="1" stroke-width="3.507" d=" M28.87299919128418,4.005000114440918 C28.87299919128418,4.005000114440918 24.23900032043457,5.322999954223633 21.04400062561035,10.074999809265137"/></g><g opacity="1" transform="matrix(1,0,0,1,257.6050109863281,286.72100830078125)"><path stroke-linecap="round" stroke-linejoin="round" fill-opacity="0" stroke="rgb(117,114,127)" stroke-opacity="1" stroke-width="3.507" d=" M115.89600372314453,2.1519999504089355 C115.89600372314453,2.1519999504089355 112.63700103759766,-1.3960000276565552 106.95600128173828,-2.117000102996826"/></g></g><g transform="matrix(0.6973329782485962,-0.7453532218933105,0.7167472839355469,0.7251641154289246,-164.18112182617188,295.8052978515625)" opacity="1" style="display: none;"><g opacity="1" transform="matrix(1,0,0,1,305.7619934082031,334.1709899902344)"><path fill="rgb(236,123,178)" fill-opacity="1" d=" M-8.541763305664062,-10.362553596496582 C-8.541763305664062,-10.362553596496582 -8.005215644836426,-14.97908878326416 -1.3639271259307861,-15.997681617736816 C5.277360916137695,-17.01627540588379 8.317090034484863,-10.823407173156738 12.41239070892334,-6.399094104766846 C16.06215476989746,-2.3128764629364014 20.96319580078125,3.174060106277466 15.289188385009766,7.118704319000244 C4.873764514923096,16.50552749633789 -11.165778160095215,3.390497922897339 -17.247699737548828,-11.127216339111328"/><path stroke-linecap="round" stroke-linejoin="round" fill-opacity="0" stroke="rgb(202,107,156)" stroke-opacity="1" stroke-width="3.507" d=" M-8.541763305664062,-10.362553596496582 C-8.541763305664062,-10.362553596496582 -8.005215644836426,-14.97908878326416 -1.3639271259307861,-15.997681617736816 C5.277360916137695,-17.01627540588379 8.317090034484863,-10.823407173156738 12.41239070892334,-6.399094104766846 C16.06215476989746,-2.3128764629364014 20.96319580078125,3.174060106277466 15.289188385009766,7.118704319000244 C4.873764514923096,16.50552749633789 -11.165778160095215,3.390497922897339 -17.247699737548828,-11.127216339111328"/></g><g opacity="1" transform="matrix(1,0,0,1,300.22698974609375,327.5830078125)"><path fill="rgb(236,123,178)" fill-opacity="1" d=" M-4.823853015899658,1.690999984741211 C-7.9895172119140625,-2.7060000896453857 -11.284117698669434,-5.442999839782715 -11.284117698669434,-5.442999839782715 C-11.284117698669434,-5.442999839782715 -0.8445969223976135,-13.04699993133545 4.155399322509766,-0.21699999272823334 C9.1553955078125,12.61299991607666 -0.8470942974090576,7.215000152587891 -4.823853015899658,1.690999984741211z"/></g><g opacity="1" transform="matrix(1,0,0,1,298.7330017089844,322.7359924316406)"><path stroke-linecap="round" stroke-linejoin="round" fill-opacity="0" stroke="rgb(202,107,156)" stroke-opacity="1" stroke-width="3.507" d=" M-10.54778003692627,-0.15854014456272125 C-10.54778003692627,-0.15854014456272125 -9.078473091125488,-4.511000156402588 -2.8773295879364014,-4.046000003814697 C3.3238136768341064,-3.5810000896453857 6.424509525299072,4.079999923706055 6.424509525299072,4.079999923706055"/></g></g><g transform="matrix(0.9994485378265381,-0.03353961184620857,0.03320765867829323,1.0094393491744995,-12.970105171203613,4.899620056152344)" opacity="1" style="display: block;"><g opacity="0.61" transform="matrix(1,0,0,1,332.2200012207031,257.5299987792969)"><path fill="rgb(173,170,196)" fill-opacity="1" d=" M14.675999641418457,11.63599967956543 C14.675999641418457,11.63599967956543 12.35200023651123,-12.96399974822998 -4.416999816894531,-13.581999778747559 C-21.18600082397461,-14.199999809265137 -12.350000381469727,13.592000007629395 -12.350000381469727,13.592000007629395 C-12.350000381469727,13.592000007629395 4.8470001220703125,9.005000114440918 14.675999641418457,11.63599967956543z"/></g><g opacity="1" transform="matrix(1,0,0,1,332.2200012207031,286.7430114746094)"><path stroke-linecap="round" stroke-linejoin="round" fill-opacity="0" stroke="rgb(117,114,127)" stroke-opacity="1" stroke-width="3.507" d=" M-2.941999912261963,8.062000274658203 C-2.941999912261963,8.062000274658203 3.7269999980926514,3.496000051498413 2.865000009536743,-8.062000274658203"/></g><g opacity="1" transform="matrix(1,0,0,1,333.23699951171875,272.6700134277344)"><path fill="rgb(252,149,198)" fill-opacity="1" d=" M2.3610000610351562,9.739999771118164 C8.319000244140625,9.244999885559082 7.760000228881836,2.822000026702881 9.644000053405762,2.322000026702881 C11.527999877929688,1.8220000267028809 15.706999778747559,1.7109999656677246 16.059999465942383,-2.009000062942505 C16.39699935913086,-5.568999767303467 13.04800033569336,-10.25 0.9670000076293945,-9.737000465393066 C-11.909000396728516,-9.1899995803833 -16.06399917602539,-5.041999816894531 -16.08300018310547,-1.503000020980835 C-16.101999282836914,2.0360000133514404 -13.715999603271484,3.377000093460083 -11.340999603271484,3.4860000610351562 C-8.965999603271484,3.5950000286102295 -7.163000106811523,3.256999969482422 -6.276000022888184,4.438000202178955 C-4.500999927520752,6.798999786376953 -2.678999900817871,10.159000396728516 2.3610000610351562,9.739999771118164z"/><path stroke-linecap="round" stroke-linejoin="round" fill-opacity="0" stroke="rgb(207,111,156)" stroke-opacity="1" stroke-width="3.507" d=" M2.3610000610351562,9.739999771118164 C8.319000244140625,9.244999885559082 7.760000228881836,2.822000026702881 9.644000053405762,2.322000026702881 C11.527999877929688,1.8220000267028809 15.706999778747559,1.7109999656677246 16.059999465942383,-2.009000062942505 C16.39699935913086,-5.568999767303467 13.04800033569336,-10.25 0.9670000076293945,-9.737000465393066 C-11.909000396728516,-9.1899995803833 -16.06399917602539,-5.041999816894531 -16.08300018310547,-1.503000020980835 C-16.101999282836914,2.0360000133514404 -13.715999603271484,3.377000093460083 -11.340999603271484,3.4860000610351562 C-8.965999603271484,3.5950000286102295 -7.163000106811523,3.256999969482422 -6.276000022888184,4.438000202178955 C-4.500999927520752,6.798999786376953 -2.678999900817871,10.159000396728516 2.3610000610351562,9.739999771118164z"/></g></g><g transform="matrix(0.9999082088470459,0.013686112128198147,-0.013550655916333199,1.0099035501480103,5.5515899658203125,-6.904643535614014)" opacity="1" style="display: block;"><g opacity="1" transform="matrix(1,0,0,1,136.6750030517578,464.0060119628906)"><path fill="rgb(76,188,129)" fill-opacity="1" d=" M47.24945068359375,13.105321884155273 C47.24945068359375,13.105321884155273 36.93476104736328,15.634671211242676 4.640895843505859,13.093818664550781 C-38.7026252746582,9.683309555053711 -47.558998107910156,2.1180062294006348 -47.558998107910156,2.1180062294006348 C-46.456695556640625,-6.755205154418945 -18.813711166381836,-17.46439552307129 14.779693603515625,-13.292642593383789 C48.37309646606445,-9.120889663696289 48.35175323486328,4.232110023498535 47.24945068359375,13.105321884155273z"/></g><g opacity="1" transform="matrix(1,0,0,1,136.843994140625,442.0899963378906)"><path fill="rgb(76,188,129)" fill-opacity="1" d=" M-47.72711181640625,24.033893585205078 C-46.95442199707031,21.578123092651367 -36.775001525878906,-32.185001373291016 17.236000061035156,-35.0099983215332 C29.756999969482422,-32.54100036621094 51.80634307861328,-13.778188705444336 47.080562591552734,35.02132034301758"/><path stroke-linecap="round" stroke-linejoin="round" fill-opacity="0" stroke="rgb(47,148,101)" stroke-opacity="1" stroke-width="3.795" d=" M-47.72711181640625,24.033893585205078 C-46.95442199707031,21.578123092651367 -36.775001525878906,-32.185001373291016 17.236000061035156,-35.0099983215332 C29.756999969482422,-32.54100036621094 51.80634307861328,-13.778188705444336 47.080562591552734,35.02132034301758"/></g><g opacity="1" transform="matrix(1,0,0,1,137.60000610351562,447.2720031738281)"><path fill="rgb(80,217,127)" fill-opacity="1" d=" M-38.441707611083984,23.120098114013672 C-38.441707611083984,23.120098114013672 -28.90999984741211,-30.055999755859375 7.122000217437744,-30.93400001525879 C32.65399932861328,-31.555999755859375 38.45012283325195,5.028583526611328 38.44321823120117,30.716360092163086 C22.074325561523438,31.41865348815918 -9.218122482299805,31.777143478393555 -38.441707611083984,23.120098114013672z"/></g></g><g transform="matrix(0.9994485378265381,-0.03353961184620857,0.03320765867829323,1.0094393491744995,317.6705627441406,246.94764709472656)" opacity="1" style="display: block;"/></g></svg>