<svg xmlns="http://www.w3.org/2000/svg" xmlns:xlink="http://www.w3.org/1999/xlink" viewBox="0 0 512 512" width="512" height="512" preserveAspectRatio="xMidYMid meet" style="width: 100%; height: 100%; transform: translate3d(0px, 0px, 0px); content-visibility: visible;"><defs><clipPath id="__lottie_element_203"><rect width="512" height="512" x="0" y="0"/></clipPath><clipPath id="__lottie_element_205"><path d="M0,0 L512,0 L512,512 L0,512z"/></clipPath></defs><g clip-path="url(#__lottie_element_203)"><g clip-path="url(#__lottie_element_205)" transform="matrix(1,0,0,1,0,0)" opacity="1" style="display: block;"><g transform="matrix(0.9999927878379822,0.0038001316133886576,-0.0038001316133886576,0.9999927878379822,266.4297180175781,410.42181396484375)" opacity="1" style="display: block;"><g opacity="1" transform="matrix(1,0,0,1,0,0)"><path fill="rgb(255,161,177)" fill-opacity="1" d=" M-51.04999923706055,17.618999481201172 C-52.76599884033203,21.295000076293945 -53.57099914550781,25.451000213623047 -53.33700180053711,29.783000946044922 C-52.612998962402344,43.18600082397461 -41.54100036621094,54.01900100708008 -28.12299919128418,54.37099838256836 C-20.5310001373291,54.56999969482422 -13.723999977111816,51.56100082397461 -8.876999855041504,46.6510009765625 C-5.642000198364258,43.374000549316406 -2.4700000286102295,40.03300094604492 0.8700000047683716,36.862998962402344 C0.8700000047683716,36.862998962402344 44.03900146484375,-4.105000019073486 44.03900146484375,-4.105000019073486 C55.2869987487793,-14.473999977111816 56.5369987487793,-31.799999237060547 46.89500045776367,-43.67599868774414 C46.89500045776367,-43.67599868774414 46.89500045776367,-43.676998138427734 46.89500045776367,-43.676998138427734 C36.95800018310547,-55.91600036621094 19.086000442504883,-57.941001892089844 6.618000030517578,-48.292999267578125 C-13.859000205993652,-32.446998596191406 -38.53200149536133,-9.197999954223633 -51.04999923706055,17.618999481201172z"/><path stroke-linecap="round" stroke-linejoin="round" fill-opacity="0" stroke="rgb(214,56,105)" stroke-opacity="1" stroke-width="3" d=" M-51.04999923706055,17.618999481201172 C-52.76599884033203,21.295000076293945 -53.57099914550781,25.451000213623047 -53.33700180053711,29.783000946044922 C-52.612998962402344,43.18600082397461 -41.54100036621094,54.01900100708008 -28.12299919128418,54.37099838256836 C-20.5310001373291,54.56999969482422 -13.723999977111816,51.56100082397461 -8.876999855041504,46.6510009765625 C-5.642000198364258,43.374000549316406 -2.4700000286102295,40.03300094604492 0.8700000047683716,36.862998962402344 C0.8700000047683716,36.862998962402344 44.03900146484375,-4.105000019073486 44.03900146484375,-4.105000019073486 C55.2869987487793,-14.473999977111816 56.5369987487793,-31.799999237060547 46.89500045776367,-43.67599868774414 C46.89500045776367,-43.67599868774414 46.89500045776367,-43.676998138427734 46.89500045776367,-43.676998138427734 C36.95800018310547,-55.91600036621094 19.086000442504883,-57.941001892089844 6.618000030517578,-48.292999267578125 C-13.859000205993652,-32.446998596191406 -38.53200149536133,-9.197999954223633 -51.04999923706055,17.618999481201172z"/></g></g><g transform="matrix(1,0,0,1,0,0)" opacity="1" style="display: block;"><g opacity="1" transform="matrix(1,0,0,1,277.54400634765625,467.00799560546875)"><path fill="rgb(255,133,159)" fill-opacity="1" d=" M-14.54699993133545,-31.964000701904297 C-17.840999603271484,-3.5820000171661377 -17.99799919128418,21.10700035095215 -17.99799919128418,21.10700035095215 C-5.5970001220703125,26.06599998474121 6.442999839782715,29.57900047302246 17.99799919128418,31.964000701904297 C0.09000000357627869,15.607999801635742 -9.598999977111816,-7.505000114440918 -14.54699993133545,-31.964000701904297z"/></g><g opacity="1" transform="matrix(1,0,0,1,348.75299072265625,424.39599609375)"><path fill="rgb(255,161,177)" fill-opacity="1" d=" M75.53399658203125,-53.020999908447266 C59.94200134277344,-73.58499908447266 -25.53700065612793,-89.15599822998047 -57.01100158691406,-70.25199890136719 C-73.90699768066406,-60.104000091552734 -81.93800354003906,-22.246000289916992 -85.75599670410156,10.64900016784668 C-80.80799865722656,35.108001708984375 -71.11900329589844,58.22100067138672 -53.21099853515625,74.5770034790039 C20.100000381469727,89.70999908447266 73.72599792480469,59.07600021362305 73.72599792480469,59.07600021362305 C73.72599792480469,59.07600021362305 76.98400115966797,32.972999572753906 81.15599822998047,3.8420000076293945 C85.3280029296875,-25.288999557495117 91.1259994506836,-32.457000732421875 75.53399658203125,-53.020999908447266z"/></g><g opacity="1" transform="matrix(1,0,0,1,262.48699951171875,452.5150146484375)"><path stroke-linecap="round" stroke-linejoin="round" fill-opacity="0" stroke="rgb(214,56,105)" stroke-opacity="1" stroke-width="3" d=" M2.5190000534057617,-36.084999084472656 C2.5190000534057617,-36.084999084472656 -3.311000108718872,5.0980000495910645 -2.427999973297119,36.084999084472656"/></g><g opacity="1" transform="matrix(1,0,0,1,359.9649963378906,415.7959899902344)"><path stroke-linecap="round" stroke-linejoin="round" fill-opacity="0" stroke="rgb(214,56,105)" stroke-opacity="1" stroke-width="3" d=" M63.02899932861328,68.16100311279297 C63.02899932861328,68.16100311279297 67.36100006103516,24.322999954223633 72.83300018310547,-8.407999992370605 C76.2750015258789,-28.996999740600586 69.80599975585938,-45.077999114990234 42.05099868774414,-57.11899948120117 C5.3429999351501465,-73.04499816894531 -49.94300079345703,-69.677001953125 -73.677001953125,-59.99700164794922"/></g></g><g transform="matrix(0.999998927116394,0.0014507316518574953,-0.0014507316518574953,0.999998927116394,0.52081298828125,-0.479156494140625)" opacity="1" style="display: block;"><g opacity="1" transform="matrix(1,0,0,1,342.9469909667969,365.6099853515625)"><path fill="rgb(249,172,126)" fill-opacity="1" d=" M-43.277000427246094,-14.888999938964844 C-43.277000427246094,-14.888999938964844 -44.970001220703125,12.07699966430664 -11.23799991607666,16.45599937438965 C22.493999481201172,20.834999084472656 43.29100036621094,-6.230000019073486 43.29100036621094,-6.230000019073486 C43.29100036621094,-6.230000019073486 -9.345999717712402,-22.549999237060547 -43.277000427246094,-14.888999938964844z"/></g><g opacity="0.15" transform="matrix(1,0,0,1,343.8689880371094,362.3710021972656)"><path fill="rgb(226,62,30)" fill-opacity="1" d=" M-42.31999969482422,-12.043999671936035 C-42.31999969482422,-12.043999671936035 -42.25899887084961,4.120999813079834 -14.795999526977539,10.887999534606934 C12.666999816894531,17.655000686645508 42.31999969482422,-7.51800012588501 42.31999969482422,-7.51800012588501 C42.31999969482422,-7.51800012588501 -42.31999969482422,-12.043999671936035 -42.31999969482422,-12.043999671936035z"/></g><g opacity="1" transform="matrix(1,0,0,1,310.6650085449219,376.4429931640625)"><path stroke-linecap="round" stroke-linejoin="round" fill-opacity="0" stroke="rgb(242,87,143)" stroke-opacity="1" stroke-width="3" d=" M-19.950000762939453,-16.56800079345703 C-19.950000762939453,-16.56800079345703 -16.865999221801758,12.885000228881836 19.950000762939453,16.56800079345703"/></g><g opacity="1" transform="matrix(1,0,0,1,367.0830078125,380.07598876953125)"><path stroke-linecap="round" stroke-linejoin="round" fill-opacity="0" stroke="rgb(242,87,143)" stroke-opacity="1" stroke-width="3" d=" M-23.433000564575195,13.232999801635742 C-23.433000564575195,13.232999801635742 6.716000080108643,13.234999656677246 23.433000564575195,-13.232999801635742"/></g><g opacity="1" transform="matrix(1,0,0,1,342.9469909667969,365.6099853515625)"><path stroke-linecap="round" stroke-linejoin="round" fill-opacity="0" stroke="rgb(214,56,105)" stroke-opacity="1" stroke-width="3" d=" M-43.277000427246094,-14.888999938964844 C-43.277000427246094,-14.888999938964844 -44.970001220703125,12.07699966430664 -11.23799991607666,16.45599937438965 C22.493999481201172,20.834999084472656 43.29100036621094,-6.230000019073486 43.29100036621094,-6.230000019073486 C43.29100036621094,-6.230000019073486 -9.345999717712402,-22.549999237060547 -43.277000427246094,-14.888999938964844z"/></g></g><g transform="matrix(0.999998927116394,0.0014507316518574953,-0.0014507316518574953,0.999998927116394,0.52081298828125,-0.479156494140625)" opacity="1" style="display: block;"><g opacity="1" transform="matrix(1,0,0,1,262.3580017089844,184.3679962158203)"><path fill="rgb(249,172,126)" fill-opacity="1" d=" M-28.6560001373291,52.220001220703125 C-28.6560001373291,52.220001220703125 -42.63600158691406,-1.7879999876022339 -33.55400085449219,-46.83700180053711 C-32.86000061035156,-50.28200149536133 -29.586999893188477,-52.5989990234375 -26.100000381469727,-52.16899871826172 C-15.380000114440918,-50.84600067138672 8.336000442504883,-45.930999755859375 36.62099838256836,-27.679000854492188 C36.62099838256836,-27.679000854492188 -28.6560001373291,52.220001220703125 -28.6560001373291,52.220001220703125z"/></g><g opacity="0.15" transform="matrix(1,0,0,1,233.23500061035156,183.32899475097656)"><path fill="rgb(226,62,30)" fill-opacity="1" d=" M8.380000114440918,-50.970001220703125 C8.380000114440918,-50.970001220703125 1.215999960899353,-49.676998138427734 0.7179999947547913,-44.70199966430664 C0.2199999988079071,-39.72700119018555 -1.8700000047683716,1.2690000534057617 7.880000114440918,44.45399856567383 C7.880000114440918,44.45399856567383 1.1139999628067017,51.81700134277344 1.1139999628067017,51.81700134277344 C1.1139999628067017,51.81700134277344 -17.194000244140625,-26.393999099731445 -2.9639999866485596,-48.084999084472656 C-2.9639999866485596,-48.084999084472656 -1.371000051498413,-53.95500183105469 8.380000114440918,-50.970001220703125z"/></g><g opacity="1" transform="matrix(1,0,0,1,261.28399658203125,176.89100646972656)"><path fill="rgb(255,161,143)" fill-opacity="1" d=" M-8.675000190734863,21.389999389648438 C-8.675000190734863,21.389999389648438 2.1710000038146973,3.380000114440918 15.305999755859375,-7.366000175476074 C15.305999755859375,-7.366000175476074 7.843999862670898,-13.137999534606934 -10.479000091552734,-21.128999710083008 C-12.810999870300293,-22.145999908447266 -15.369000434875488,-20.030000686645508 -15.305000305175781,-17.48699951171875 C-15.092000007629395,-9.045000076293945 -13.982000350952148,8.376999855041504 -8.675000190734863,21.389999389648438z"/><path stroke-linecap="round" stroke-linejoin="round" fill-opacity="0" stroke="rgb(237,72,72)" stroke-opacity="1" stroke-width="3" d=" M-8.675000190734863,21.389999389648438 C-8.675000190734863,21.389999389648438 2.1710000038146973,3.380000114440918 15.305999755859375,-7.366000175476074 C15.305999755859375,-7.366000175476074 7.843999862670898,-13.137999534606934 -10.479000091552734,-21.128999710083008 C-12.810999870300293,-22.145999908447266 -15.369000434875488,-20.030000686645508 -15.305000305175781,-17.48699951171875 C-15.092000007629395,-9.045000076293945 -13.982000350952148,8.376999855041504 -8.675000190734863,21.389999389648438z"/></g><g opacity="1" transform="matrix(1,0,0,1,262.3580017089844,184.3679962158203)"><path stroke-linecap="round" stroke-linejoin="round" fill-opacity="0" stroke="rgb(183,70,21)" stroke-opacity="1" stroke-width="3" d=" M-28.6560001373291,52.220001220703125 C-28.6560001373291,52.220001220703125 -42.63600158691406,-1.7879999876022339 -33.55400085449219,-46.83700180053711 C-32.86000061035156,-50.28200149536133 -29.586999893188477,-52.5989990234375 -26.100000381469727,-52.16899871826172 C-15.380000114440918,-50.84600067138672 8.336000442504883,-45.930999755859375 36.62099838256836,-27.679000854492188 C36.62099838256836,-27.679000854492188 -28.6560001373291,52.220001220703125 -28.6560001373291,52.220001220703125z"/></g></g><g transform="matrix(0.999998927116394,0.0014507316518574953,-0.0014507316518574953,0.999998927116394,0.52081298828125,-0.479156494140625)" opacity="1" style="display: block;"><g opacity="1" transform="matrix(1,0,0,1,343.5530090332031,252.94500732421875)"><path fill="rgb(249,172,126)" fill-opacity="1" d=" M-10.64900016784668,107.12999725341797 C-105.177001953125,97.67500305175781 -133.4340057373047,28.518999099731445 -133.4340057373047,28.518999099731445 C-133.4340057373047,28.518999099731445 -126.46900177001953,29.215999603271484 -126.46900177001953,29.215999603271484 C-131.94200134277344,23.643999099731445 -136.41900634765625,18.17099952697754 -136.41900634765625,18.17099952697754 C-136.41900634765625,18.17099952697754 -127.16500091552734,16.082000732421875 -127.16500091552734,16.082000732421875 C-131.8419952392578,12.598999977111816 -133.9810028076172,8.866999626159668 -133.9810028076172,8.866999626159668 C-133.9810028076172,8.866999626159668 -127.81199645996094,7.474999904632568 -116.96600341796875,-10.53499984741211 C-106.12000274658203,-28.545000076293945 -83.23100280761719,-116.70500183105469 0.25200000405311584,-107.3499984741211 C0.25200000405311584,-107.3499984741211 41.14799880981445,-104.26399993896484 60.45100021362305,-86.25299835205078 C60.45100021362305,-86.25299835205078 94.96800231933594,-63.678001403808594 125.15599822998047,30.868999481201172 C126.28700256347656,34.4109992980957 128.2169952392578,37.678001403808594 130.9550018310547,40.194000244140625 C132.50399780273438,41.61800003051758 134.36399841308594,42.89500045776367 136.41900634765625,43.45199966430664 C136.41900634765625,43.45199966430664 133.93099975585938,48.22800064086914 125.77200317382812,49.422000885009766 C125.77200317382812,49.422000885009766 135.32400512695312,54.39699935913086 135.32400512695312,54.39699935913086 C135.32400512695312,54.39699935913086 130.8470001220703,58.974998474121094 121.39399719238281,63.05400085449219 C121.39399719238281,63.05400085449219 129.45399475097656,62.85499954223633 129.45399475097656,62.85499954223633 C129.45399475097656,62.85499954223633 98.70500183105469,109.02300262451172 8.355999946594238,108.0260009765625"/></g><g opacity="1" transform="matrix(1,0,0,1,340.9460144042969,313.4339904785156)"><path fill="rgb(248,248,248)" fill-opacity="1" d=" M-127.0780029296875,-29.13800048828125 C-127.0780029296875,-29.13800048828125 -104.68800354003906,-7.057000160217285 -71.75700378417969,-5.3470001220703125 C-37.04800033569336,-3.5450000762939453 -22.295000076293945,-29.06800079345703 -17.176000595092773,-42.30799865722656 C-16.05500030517578,-45.20800018310547 -13.767999649047852,-47.49800109863281 -10.13599967956543,-47.16899871826172 C-5.531000137329102,-46.75199890136719 -4.178999900817871,-44.2599983215332 -3.322000026702881,-41.42300033569336 C0.0020000000949949026,-30.426000595092773 11.14799976348877,-4.710999965667725 39.7599983215332,4.8470001220703125 C80.81700134277344,18.562999725341797 124.0780029296875,3.6710000038146973 124.0780029296875,3.6710000038146973 C124.0780029296875,3.6710000038146973 130.04800415039062,4.26800012588501 130.04800415039062,4.26800012588501 C130.04800415039062,4.26800012588501 98.16999816894531,51.064998626708984 10.392999649047852,48.03099822998047 C10.392999649047852,48.03099822998047 -79.28299713134766,53.176998138427734 -130.04800415039062,-29.735000610351562 C-130.04800415039062,-29.735000610351562 -127.0780029296875,-29.13800048828125 -127.0780029296875,-29.13800048828125z"/></g><g opacity="1" transform="matrix(1,0,0,1,343.5530090332031,252.94500732421875)"><path stroke-linecap="round" stroke-linejoin="round" fill-opacity="0" stroke="rgb(183,70,21)" stroke-opacity="1" stroke-width="3" d=" M-30.815000534057617,104.05000305175781 C-109.25599670410156,87.69100189208984 -133.4340057373047,28.518999099731445 -133.4340057373047,28.518999099731445 C-133.4340057373047,28.518999099731445 -126.46900177001953,29.215999603271484 -126.46900177001953,29.215999603271484 C-131.94200134277344,23.643999099731445 -136.41900634765625,18.17099952697754 -136.41900634765625,18.17099952697754 C-136.41900634765625,18.17099952697754 -127.16500091552734,16.082000732421875 -127.16500091552734,16.082000732421875 C-131.8419952392578,12.598999977111816 -133.9810028076172,8.866999626159668 -133.9810028076172,8.866999626159668 C-133.9810028076172,8.866999626159668 -127.81199645996094,7.474999904632568 -116.96600341796875,-10.53499984741211 C-106.12000274658203,-28.545000076293945 -83.23100280761719,-116.70500183105469 0.25200000405311584,-107.3499984741211 C0.25200000405311584,-107.3499984741211 41.14799880981445,-104.26399993896484 60.45100021362305,-86.25299835205078 C60.45100021362305,-86.25299835205078 94.96800231933594,-63.678001403808594 125.15599822998047,30.868999481201172 C126.28700256347656,34.4109992980957 128.2169952392578,37.678001403808594 130.9550018310547,40.194000244140625 C132.50399780273438,41.61800003051758 134.36399841308594,42.89500045776367 136.41900634765625,43.45199966430664 C136.41900634765625,43.45199966430664 133.93099975585938,48.22800064086914 125.77200317382812,49.422000885009766 C125.77200317382812,49.422000885009766 135.32400512695312,54.39699935913086 135.32400512695312,54.39699935913086 C135.32400512695312,54.39699935913086 130.8470001220703,58.974998474121094 121.39399719238281,63.05400085449219 C121.39399719238281,63.05400085449219 129.45399475097656,62.85499954223633 129.45399475097656,62.85499954223633 C129.45399475097656,62.85499954223633 98.70500183105469,109.02300262451172 8.355999946594238,108.0260009765625 C8.355999946594238,108.0260009765625 -2.5490000247955322,107.51200103759766 -2.5490000247955322,107.51200103759766 C-12.043999671936035,107.06400299072266 -21.509000778198242,105.99099731445312 -30.815000534057617,104.05000305175781z"/></g><g opacity="0.15" transform="matrix(1,0,0,1,270.5660095214844,285.4859924316406)"><path fill="rgb(226,62,30)" fill-opacity="1" d=" M-29.176000595092773,-74.14099884033203 C-29.176000595092773,-74.14099884033203 -34.220001220703125,-33.91699981689453 -44.441001892089844,-18.052000045776367 C-44.441001892089844,-18.052000045776367 -38.99300003051758,-10.553000450134277 -38.99300003051758,-10.553000450134277 C-38.99300003051758,-10.553000450134277 -45.11199951171875,-9.178000450134277 -45.11199951171875,-9.178000450134277 C-45.11199951171875,-9.178000450134277 -42.42499923706055,-4.935999870300293 -37.821998596191406,0.4909999966621399 C-37.821998596191406,0.4909999966621399 -41.801998138427734,0.09300000220537186 -41.801998138427734,0.09300000220537186 C-41.801998138427734,0.09300000220537186 -20.027999877929688,56.90700149536133 62.8849983215332,74.14099884033203 C62.8849983215332,74.14099884033203 -22.288999557495117,71.6520004272461 -60.89500045776367,-4.568999767303467 C-60.89500045776367,-4.568999767303467 -55.025001525878906,-2.9769999980926514 -55.025001525878906,-2.9769999980926514 C-55.025001525878906,-2.9769999980926514 -62.8849983215332,-14.817999839782715 -62.8849983215332,-14.817999839782715 C-62.8849983215332,-14.817999839782715 -55.62099838256836,-17.10700035095215 -55.62099838256836,-17.10700035095215 C-55.62099838256836,-17.10700035095215 -59.900001525878906,-24.56999969482422 -59.900001525878906,-24.56999969482422 C-59.900001525878906,-24.56999969482422 -44.12699890136719,-38.83700180053711 -29.176000595092773,-74.14099884033203z"/></g></g><g transform="matrix(0.999998927116394,0.0014507316518574953,-0.0014507316518574953,0.999998927116394,0.52081298828125,-0.479156494140625)" opacity="1" style="display: block;"><g opacity="1" transform="matrix(1,0,0,1,442.4580078125,210.1219940185547)"><path fill="rgb(249,172,126)" fill-opacity="1" d=" M-43.52799987792969,-42.93299865722656 C-43.52799987792969,-42.93299865722656 22.2450008392334,-57.45899963378906 42.941001892089844,-43.32899856567383 C42.941001892089844,-43.32899856567383 49.805999755859375,-1.437000036239624 16.56999969482422,49.507999420166016 C16.56999969482422,49.507999420166016 -42.534000396728516,7.415999889373779 -43.52799987792969,-42.93299865722656z"/></g><g opacity="0.27" transform="matrix(1,0,0,1,444.1300048828125,176.50399780273438)"><path fill="rgb(226,62,30)" fill-opacity="1" d=" M40.77000045776367,15.36400032043457 C40.77000045776367,15.36400032043457 40.37200164794922,-0.7549999952316284 35.59600067138672,-3.243000030517578 C30.81999969482422,-5.730999946594238 -29.08099937438965,10.38700008392334 -29.08099937438965,10.38700008392334 C-29.08099937438965,10.38700008392334 -42.63399887084961,-9.85099983215332 -42.63399887084961,-9.85099983215332 C-42.63399887084961,-9.85099983215332 15.397000312805176,-22.349000930786133 41.268001556396484,-9.711000442504883 C41.268001556396484,-9.711000442504883 44.6510009765625,-3.3429999351501465 40.77000045776367,15.36400032043457z"/></g><g opacity="1" transform="matrix(1,0,0,1,444.2149963378906,210.19400024414062)"><path stroke-linecap="round" stroke-linejoin="round" fill-opacity="0" stroke="rgb(183,70,21)" stroke-opacity="1" stroke-width="3" d=" M-42.74700164794922,-43.25400161743164 C-42.74700164794922,-43.25400161743164 -4.254000186920166,-54.00600051879883 36.7400016784668,-46.06100082397461 C40.3380012512207,-45.36399841308594 42.895999908447266,-42.1609992980957 42.74100112915039,-38.5 C42.106998443603516,-23.523000717163086 37.849998474121094,15.057000160217285 15.361000061035156,48.98699951171875"/></g><g opacity="1" transform="matrix(1,0,0,1,0,0)"><g opacity="1" transform="matrix(1,0,0,1,441.30999755859375,205.11399841308594)"><path fill="rgb(255,161,143)" fill-opacity="1" d=" M-25.71299934387207,-18.670000076293945 C-25.71299934387207,-18.670000076293945 -10.725000381469727,-24.3799991607666 20.773000717163086,-25.408000946044922 C23.739999771118164,-25.5049991607666 26.075000762939453,-22.915000915527344 25.66699981689453,-19.975000381469727 C24.256000518798828,-9.793000221252441 19.39699935913086,12.029999732971191 3.0420000553131104,25.410999298095703 C3.0420000553131104,25.410999298095703 -8.598999977111816,1.1319999694824219 -25.71299934387207,-18.670000076293945z"/></g><g opacity="1" transform="matrix(1,0,0,1,441.89300537109375,199.99000549316406)"><path fill="rgb(239,137,123)" fill-opacity="1" d=" M-3.052999973297119,20.1560001373291 C-3.052999973297119,20.1560001373291 -7.3420000076293945,2.9210000038146973 -13.312000274658203,-7.72599983215332 C-13.312000274658203,-7.72599983215332 24.976999282836914,-15.592000007629395 24.976999282836914,-15.592000007629395 C24.976999282836914,-15.592000007629395 26.716999053955078,-20.944000244140625 14.812000274658203,-20.055999755859375 C2.9070000648498535,-19.167999267578125 -25.06599998474121,-13.965999603271484 -25.06599998474121,-13.965999603271484 C-25.06599998474121,-13.965999603271484 -8.61400032043457,5.25 -3.052999973297119,20.1560001373291z"/></g><g opacity="1" transform="matrix(1,0,0,1,441.30999755859375,205.11399841308594)"><path stroke-linecap="round" stroke-linejoin="round" fill-opacity="0" stroke="rgb(237,72,72)" stroke-opacity="1" stroke-width="3" d=" M-25.71299934387207,-18.670000076293945 C-25.71299934387207,-18.670000076293945 -10.725000381469727,-24.3799991607666 20.773000717163086,-25.408000946044922 C23.739999771118164,-25.5049991607666 26.075000762939453,-22.915000915527344 25.66699981689453,-19.975000381469727 C24.256000518798828,-9.793000221252441 19.39699935913086,12.029999732971191 3.0420000553131104,25.410999298095703 C3.0420000553131104,25.410999298095703 -8.598999977111816,1.1319999694824219 -25.71299934387207,-18.670000076293945z"/></g></g></g><g transform="matrix(0.999998927116394,0.0014507316518574953,-0.0014507316518574953,0.999998927116394,0.52081298828125,-0.479156494140625)" opacity="1" style="display: block;"><g opacity="1" transform="matrix(1,0,0,1,328.0639953613281,325.4679870605469)"><path stroke-linecap="round" stroke-linejoin="round" fill-opacity="0" stroke="rgb(183,70,21)" stroke-opacity="1" stroke-width="3" d=" M-27.31399917602539,-1.49399995803833 C-27.31399917602539,-1.49399995803833 -23.03499984741211,-4.080999851226807 -23.03499984741211,-4.080999851226807 C-23.03499984741211,-4.080999851226807 -11.991000175476074,6.068999767303467 -1.840999960899353,-4.97599983215332 C-1.840999960899353,-4.97599983215332 4.826000213623047,8.755999565124512 22.636999130249023,1.4930000305175781 C22.636999130249023,1.4930000305175781 25.523000717163086,2.7869999408721924 27.31399917602539,4.97599983215332"/></g><g opacity="1" transform="matrix(1,0,0,1,326.1960144042969,313.2640075683594)"><path stroke-linecap="round" stroke-linejoin="round" fill-opacity="0" stroke="rgb(183,70,21)" stroke-opacity="1" stroke-width="3" d=" M-0.5249999761581421,7.796000003814697 C-0.5249999761581421,7.796000003814697 0.5249999761581421,-7.796000003814697 0.5249999761581421,-7.796000003814697"/></g><g opacity="1" transform="matrix(1,0,0,1,327.9859924316406,300.5870056152344)"><path fill="rgb(247,161,163)" fill-opacity="1" d=" M-1.4559999704360962,7.546000003814697 C-5.557000160217285,7.14900016784668 -5.263999938964844,2.1740000247955322 -6.565999984741211,1.781999945640564 C-7.868000030517578,1.3899999856948853 -10.741999626159668,1.2949999570846558 -11.036999702453613,-1.5880000591278076 C-11.319000244140625,-4.3470001220703125 -9.083999633789062,-7.965000152587891 -0.7749999761581421,-7.540999889373779 C8.081000328063965,-7.089000225067139 10.994999885559082,-3.865999937057495 11.057999610900879,-1.1239999532699585 C11.121000289916992,1.6180000305175781 9.5,2.6519999504089355 7.869999885559082,2.7309999465942383 C6.239999771118164,2.809999942779541 4.997000217437744,2.5439999103546143 4.4039998054504395,3.4570000171661377 C3.2179999351501465,5.2820000648498535 2.013000011444092,7.881999969482422 -1.4559999704360962,7.546000003814697z"/><path stroke-linecap="round" stroke-linejoin="round" fill-opacity="0" stroke="rgb(204,100,110)" stroke-opacity="1" stroke-width="3" d=" M-1.4559999704360962,7.546000003814697 C-5.557000160217285,7.14900016784668 -5.263999938964844,2.1740000247955322 -6.565999984741211,1.781999945640564 C-7.868000030517578,1.3899999856948853 -10.741999626159668,1.2949999570846558 -11.036999702453613,-1.5880000591278076 C-11.319000244140625,-4.3470001220703125 -9.083999633789062,-7.965000152587891 -0.7749999761581421,-7.540999889373779 C8.081000328063965,-7.089000225067139 10.994999885559082,-3.865999937057495 11.057999610900879,-1.1239999532699585 C11.121000289916992,1.6180000305175781 9.5,2.6519999504089355 7.869999885559082,2.7309999465942383 C6.239999771118164,2.809999942779541 4.997000217437744,2.5439999103546143 4.4039998054504395,3.4570000171661377 C3.2179999351501465,5.2820000648498535 2.013000011444092,7.881999969482422 -1.4559999704360962,7.546000003814697z"/></g><g opacity="0.15" transform="matrix(1,0,0,1,326.4219970703125,340.5509948730469)"><path fill="rgb(226,62,30)" fill-opacity="1" d=" M-11.194000244140625,-5.580999851226807 C-11.194000244140625,-5.580999851226807 -1.5670000314712524,-0.0949999988079071 11.194000244140625,-3.3410000801086426 C11.194000244140625,-3.3410000801086426 0,18.150999069213867 -11.194000244140625,-5.580999851226807z"/></g></g><g transform="matrix(0.999998927116394,0.0014507316518574953,-0.0014507316518574953,0.999998927116394,0.52081298828125,-0.479156494140625)" opacity="1" style="display: block;"><g opacity="1" transform="matrix(1,0,0,1,277.6570129394531,263.8070068359375)"><g opacity="1" transform="matrix(1,0,0,1,0,0)"><path fill="rgb(255,255,255)" fill-opacity="1" d=" M21.39699935913086,19.569000244140625 C28.952999114990234,15.02400016784668 30.540000915527344,-8.53499984741211 10.947999954223633,-18.31800079345703 C-14.107999801635742,-30.829999923706055 -23.322999954223633,-14.571000099182129 -25.540000915527344,-7.702000141143799 C-27.756999969482422,-0.8330000042915344 -28.55900001525879,12.190999984741211 -7.954999923706055,20.527999877929688 C1.63100004196167,24.4060001373291 15.406999588012695,23.172000885009766 21.39699935913086,19.569000244140625z"/></g></g><g opacity="1" transform="matrix(1,0,0,1,387.53900146484375,276.2409973144531)"><g opacity="1" transform="matrix(1,0,0,1,0,0)"><path fill="rgb(255,255,255)" fill-opacity="1" d=" M-25.648000717163086,12.821000099182129 C-31.917999267578125,6.4029998779296875 -27.180999755859375,-16.729999542236328 -5.146999835968018,-20.875 C23.033000946044922,-26.176000595092773 27.809999465942383,-8.022000312805176 28.167999267578125,-0.8040000200271606 C28.525999069213867,6.414000034332275 25.83099937438965,19.183000564575195 3.180999994277954,21.660999298095703 C-7.35699987411499,22.81399917602539 -20.677000045776367,17.909000396728516 -25.648000717163086,12.821000099182129z"/></g></g></g><g transform="matrix(0.999998927116394,0.0014507316518574953,-0.0014507316518574953,0.999998927116394,0.52081298828125,-0.479156494140625)" opacity="1" style="display: block;"><g opacity="1" transform="matrix(1,0,0,1,0,0)"><g opacity="1" transform="matrix(1,0,0,1,280.9119873046875,274.0950012207031)"><path fill="rgb(108,159,250)" fill-opacity="1" d=" M13.89900016784668,-11.137999534606934 C20.156999588012695,-3.4570000171661377 18.86199951171875,7.874000072479248 10.930999755859375,14.354999542236328 C3.6689999103546143,20.288999557495117 -7.559999942779541,18.554000854492188 -13.817999839782715,10.873000144958496 C-20.076000213623047,3.191999912261963 -18.812000274658203,-7.306000232696533 -11.732999801635742,-13.461000442504883 C-3.680000066757202,-20.46299934387207 7.640999794006348,-18.819000244140625 13.89900016784668,-11.137999534606934z"/><path stroke-linecap="round" stroke-linejoin="round" fill-opacity="0" stroke="rgb(29,126,191)" stroke-opacity="1" stroke-width="3.004" d=" M13.89900016784668,-11.137999534606934 C20.156999588012695,-3.4570000171661377 18.86199951171875,7.874000072479248 10.930999755859375,14.354999542236328 C3.6689999103546143,20.288999557495117 -7.559999942779541,18.554000854492188 -13.817999839782715,10.873000144958496 C-20.076000213623047,3.191999912261963 -18.812000274658203,-7.306000232696533 -11.732999801635742,-13.461000442504883 C-3.680000066757202,-20.46299934387207 7.640999794006348,-18.819000244140625 13.89900016784668,-11.137999534606934z"/></g><g opacity="1" transform="matrix(1,0,0,1,280.9389953613281,273.99200439453125)"><path fill="rgb(0,0,0)" fill-opacity="1" d=" M9.616000175476074,-7.4720001220703125 C14.036999702453613,-2.0460000038146973 13.3149995803833,5.697000026702881 8.003999710083008,9.824000358581543 C2.693000078201294,13.951000213623047 -5.195000171661377,12.89799976348877 -9.616000175476074,7.4720001220703125 C-14.036999702453613,2.0460000038146973 -13.3149995803833,-5.697000026702881 -8.003999710083008,-9.824000358581543 C-2.693000078201294,-13.951000213623047 5.195000171661377,-12.89799976348877 9.616000175476074,-7.4720001220703125z"/></g><g opacity="1" transform="matrix(1,0,0,1,286.9779968261719,266.59100341796875)"><path fill="rgb(255,255,255)" fill-opacity="1" d=" M3.635999917984009,-2.825000047683716 C5.1579999923706055,-0.9570000171661377 4.763999938964844,1.8220000267028809 2.75600004196167,3.381999969482422 C0.7480000257492065,4.941999912261963 -2.114000082015991,4.692999839782715 -3.635999917984009,2.825000047683716 C-5.1579999923706055,0.9570000171661377 -4.763999938964844,-1.8220000267028809 -2.75600004196167,-3.381999969482422 C-0.7480000257492065,-4.941999912261963 2.114000082015991,-4.692999839782715 3.635999917984009,-2.825000047683716z"/></g></g><g opacity="1" transform="matrix(1,0,0,1,0,0)"><g opacity="1" transform="matrix(1,0,0,1,380.7820129394531,285.34698486328125)"><path fill="rgb(108,159,250)" fill-opacity="1" d=" M16.808000564575195,-7.169000148773193 C20.663999557495117,1.9620000123977661 16.06399917602539,12.61299991607666 6.4070000648498535,16.780000686645508 C-2.434999942779541,20.594999313354492 -12.897000312805176,15.902999877929688 -16.753000259399414,6.771999835968018 C-20.608999252319336,-2.3589999675750732 -16.28499984741211,-12.208999633789062 -7.556000232696533,-16.288000106811523 C2.374000072479248,-20.92799949645996 12.95199966430664,-16.299999237060547 16.808000564575195,-7.169000148773193z"/><path stroke-linecap="round" stroke-linejoin="round" fill-opacity="0" stroke="rgb(29,126,191)" stroke-opacity="1" stroke-width="3.004" d=" M16.808000564575195,-7.169000148773193 C20.663999557495117,1.9620000123977661 16.06399917602539,12.61299991607666 6.4070000648498535,16.780000686645508 C-2.434999942779541,20.594999313354492 -12.897000312805176,15.902999877929688 -16.753000259399414,6.771999835968018 C-20.608999252319336,-2.3589999675750732 -16.28499984741211,-12.208999633789062 -7.556000232696533,-16.288000106811523 C2.374000072479248,-20.92799949645996 12.95199966430664,-16.299999237060547 16.808000564575195,-7.169000148773193z"/></g><g opacity="1" transform="matrix(1,0,0,1,380.7869873046875,285.1730041503906)"><path fill="rgb(0,0,0)" fill-opacity="1" d=" M11.595000267028809,-4.677000045776367 C14.319000244140625,1.7730000019073486 11.335000038146973,9.095999717712402 4.931000232696533,11.678999900817871 C-1.4730000495910645,14.26200008392334 -8.871000289916992,11.126999855041504 -11.595000267028809,4.677000045776367 C-14.319000244140625,-1.7730000019073486 -11.335000038146973,-9.095999717712402 -4.931000232696533,-11.678999900817871 C1.4730000495910645,-14.26200008392334 8.871000289916992,-11.126999855041504 11.595000267028809,-4.677000045776367z"/></g><g opacity="1" transform="matrix(1,0,0,1,387.09600830078125,278.39599609375)"><path fill="rgb(255,255,255)" fill-opacity="1" d=" M4.383999824523926,-1.7680000066757202 C5.322000026702881,0.453000009059906 4.11899995803833,3.0439999103546143 1.6979999542236328,4.020999908447266 C-0.7229999899864197,4.998000144958496 -3.446000099182129,3.989000082015991 -4.383999824523926,1.7680000066757202 C-5.322000026702881,-0.453000009059906 -4.11899995803833,-3.0439999103546143 -1.6979999542236328,-4.020999908447266 C0.7229999899864197,-4.998000144958496 3.446000099182129,-3.989000082015991 4.383999824523926,-1.7680000066757202z"/></g></g></g><g transform="matrix(0.999998927116394,0.0014507316518574953,-0.0014507316518574953,0.999998927116394,0.52081298828125,-0.479156494140625)" opacity="1" style="display: block;"><g opacity="1" transform="matrix(1,0,0,1,276.4159851074219,285.864013671875)"><path fill="rgb(249,172,126)" fill-opacity="1" d=" M-21.583999633789062,-11.871999740600586 C-21.583999633789062,-11.871999740600586 -3.4159998893737793,10.88599967956543 28.333999633789062,-4.613999843597412 C28.333999633789062,-4.613999843597412 24.08300018310547,11.88599967956543 5.078999996185303,14.123000144958496 C-4.053999900817871,15.197999954223633 -24.66699981689453,9.38599967956543 -21.583999633789062,-11.871999740600586z"/></g><g opacity="1" transform="matrix(1,0,0,1,384.1510009765625,298.572998046875)"><path fill="rgb(249,172,126)" fill-opacity="1" d=" M-26.117000579833984,-12.522000312805176 C-26.117000579833984,-12.522000312805176 -4.114999771118164,7.3429999351501465 23.367000579833984,-6.114999771118164 C23.367000579833984,-6.114999771118164 23.849000930786133,16.177000045776367 -0.9779999852180481,13.97599983215332 C-11.28499984741211,13.062000274658203 -26.23699951171875,6.980000019073486 -26.117000579833984,-12.522000312805176z"/></g></g><g transform="matrix(0.999998927116394,0.0014507316518574953,-0.0014507316518574953,0.999998927116394,0.52081298828125,-0.479156494140625)" opacity="1" style="display: block;"><g opacity="1" transform="matrix(1,0,0,1,277.6570129394531,263.8070068359375)"><path stroke-linecap="round" stroke-linejoin="round" fill-opacity="0" stroke="rgb(0,0,0)" stroke-opacity="1" stroke-width="3.827" d=" M21.39699935913086,19.569000244140625 C28.952999114990234,15.02400016784668 30.540000915527344,-8.53499984741211 10.947999954223633,-18.31800079345703 C-14.107999801635742,-30.829999923706055 -23.322999954223633,-14.571000099182129 -25.540000915527344,-7.702000141143799 C-27.756999969482422,-0.8330000042915344 -28.55900001525879,12.190999984741211 -7.954999923706055,20.527999877929688 C1.63100004196167,24.4060001373291 15.406999588012695,23.172000885009766 21.39699935913086,19.569000244140625z"/></g><g opacity="1" transform="matrix(1,0,0,1,387.53900146484375,276.2409973144531)"><path stroke-linecap="round" stroke-linejoin="round" fill-opacity="0" stroke="rgb(0,0,0)" stroke-opacity="1" stroke-width="3.827" d=" M-25.648000717163086,12.821000099182129 C-31.917999267578125,6.4029998779296875 -27.180999755859375,-16.729999542236328 -5.146999835968018,-20.875 C23.033000946044922,-26.176000595092773 27.809999465942383,-8.022000312805176 28.167999267578125,-0.8040000200271606 C28.525999069213867,6.414000034332275 25.83099937438965,19.183000564575195 3.180999994277954,21.660999298095703 C-7.35699987411499,22.81399917602539 -20.677000045776367,17.909000396728516 -25.648000717163086,12.821000099182129z"/></g></g><g transform="matrix(0.999998927116394,0.0014507316518574953,-0.0014507316518574953,0.999998927116394,0.52081298828125,-0.479156494140625)" opacity="1" style="display: block;"><g opacity="1" transform="matrix(1,0,0,1,387.05999755859375,263.1300048828125)"><path fill="rgb(249,172,126)" fill-opacity="1" d=" M-29.740999221801758,12.736000061035156 C-29.740999221801758,12.736000061035156 -4.466000080108643,-8.854999542236328 28.569000244140625,12.538999557495117 C28.569000244140625,12.538999557495117 39.117000579833984,-12.53600025177002 -3.072999954223633,-12.736000061035156 C-3.072999954223633,-12.736000061035156 -26.257999420166016,-12.039999961853027 -29.740999221801758,12.736000061035156z"/></g><g opacity="1" transform="matrix(1,0,0,1,393.9360046386719,273.73699951171875)"><path fill="rgb(0,0,0)" fill-opacity="1" d=" M-38.599998474121094,4.177999973297119 C-33.34299850463867,-2.8589999675750732 -17.77199935913086,-18.816999435424805 10.246999740600586,-9.26099967956543 C11.567000389099121,-8.810999870300293 12.994000434875488,-8.765999794006348 14.347999572753906,-9.10200023651123 C14.347999572753906,-9.10200023651123 26.618999481201172,-12.14900016784668 26.618999481201172,-12.14900016784668 C26.618999481201172,-12.14900016784668 25.027000427246094,-6.2779998779296875 22.738000869750977,-3.492000102996826 C22.738000869750977,-3.492000102996826 32.5890007019043,-1.5010000467300415 38.757999420166016,-2.8940000534057617 C38.757999420166016,-2.8940000534057617 35.17499923706055,2.7769999504089355 27.016000747680664,3.9709999561309814 C27.016000747680664,3.9709999561309814 23.43400001525879,9.642999649047852 19.155000686645508,12.229999542236328 C19.155000686645508,12.229999542236328 20.051000595092773,3.2739999294281006 20.051000595092773,3.2739999294281006 C20.051000595092773,3.2739999294281006 -6.53000020980835,-13.515000343322754 -37.57099914550781,5.2820000648498535 C-38.29600143432617,5.7210001945495605 -39.106998443603516,4.85699987411499 -38.599998474121094,4.177999973297119z"/><path stroke-linecap="round" stroke-linejoin="round" fill-opacity="0" stroke="rgb(0,0,0)" stroke-opacity="1" stroke-width="1" d=" M-38.599998474121094,4.177999973297119 C-33.34299850463867,-2.8589999675750732 -17.77199935913086,-18.816999435424805 10.246999740600586,-9.26099967956543 C11.567000389099121,-8.810999870300293 12.994000434875488,-8.765999794006348 14.347999572753906,-9.10200023651123 C14.347999572753906,-9.10200023651123 26.618999481201172,-12.14900016784668 26.618999481201172,-12.14900016784668 C26.618999481201172,-12.14900016784668 25.027000427246094,-6.2779998779296875 22.738000869750977,-3.492000102996826 C22.738000869750977,-3.492000102996826 32.5890007019043,-1.5010000467300415 38.757999420166016,-2.8940000534057617 C38.757999420166016,-2.8940000534057617 35.17499923706055,2.7769999504089355 27.016000747680664,3.9709999561309814 C27.016000747680664,3.9709999561309814 23.43400001525879,9.642999649047852 19.155000686645508,12.229999542236328 C19.155000686645508,12.229999542236328 20.051000595092773,3.2739999294281006 20.051000595092773,3.2739999294281006 C20.051000595092773,3.2739999294281006 -6.53000020980835,-13.515000343322754 -37.57099914550781,5.2820000648498535 C-38.29600143432617,5.7210001945495605 -39.106998443603516,4.85699987411499 -38.599998474121094,4.177999973297119z"/></g><g opacity="1" transform="matrix(1,0,0,1,385.75,254.33700561523438)"><path stroke-linecap="round" stroke-linejoin="round" fill-opacity="0" stroke="rgb(183,70,21)" stroke-opacity="1" stroke-width="3" d=" M-20.4689998626709,4.409999847412109 C-20.4689998626709,4.409999847412109 -7.498000144958496,-11.918000221252441 20.4689998626709,-0.14399999380111694"/></g></g><g transform="matrix(-0.9699437022209167,-0.24332928657531738,-0.24332928657531738,0.9699437022209167,721.8806762695312,91.57836151123047)" opacity="1" style="display: block;"><g opacity="1" transform="matrix(1,0,0,1,387.05999755859375,263.1300048828125)"><path fill="rgb(249,172,126)" fill-opacity="1" d=" M-29.740999221801758,12.736000061035156 C-29.740999221801758,12.736000061035156 -4.466000080108643,-8.854999542236328 28.569000244140625,12.538999557495117 C28.569000244140625,12.538999557495117 39.117000579833984,-12.53600025177002 -3.072999954223633,-12.736000061035156 C-3.072999954223633,-12.736000061035156 -26.257999420166016,-12.039999961853027 -29.740999221801758,12.736000061035156z"/></g><g opacity="1" transform="matrix(1,0,0,1,393.9360046386719,273.73699951171875)"><path fill="rgb(0,0,0)" fill-opacity="1" d=" M-38.599998474121094,4.177999973297119 C-33.34299850463867,-2.8589999675750732 -17.77199935913086,-18.816999435424805 10.246999740600586,-9.26099967956543 C11.567000389099121,-8.810999870300293 12.994000434875488,-8.765999794006348 14.347999572753906,-9.10200023651123 C14.347999572753906,-9.10200023651123 26.618999481201172,-12.14900016784668 26.618999481201172,-12.14900016784668 C26.618999481201172,-12.14900016784668 25.027000427246094,-6.2779998779296875 22.738000869750977,-3.492000102996826 C22.738000869750977,-3.492000102996826 32.5890007019043,-1.5010000467300415 38.757999420166016,-2.8940000534057617 C38.757999420166016,-2.8940000534057617 35.17499923706055,2.7769999504089355 27.016000747680664,3.9709999561309814 C27.016000747680664,3.9709999561309814 23.43400001525879,9.642999649047852 19.155000686645508,12.229999542236328 C19.155000686645508,12.229999542236328 20.051000595092773,3.2739999294281006 20.051000595092773,3.2739999294281006 C20.051000595092773,3.2739999294281006 -6.53000020980835,-13.515000343322754 -37.57099914550781,5.2820000648498535 C-38.29600143432617,5.7210001945495605 -39.106998443603516,4.85699987411499 -38.599998474121094,4.177999973297119z"/><path stroke-linecap="round" stroke-linejoin="round" fill-opacity="0" stroke="rgb(0,0,0)" stroke-opacity="1" stroke-width="1" d=" M-38.599998474121094,4.177999973297119 C-33.34299850463867,-2.8589999675750732 -17.77199935913086,-18.816999435424805 10.246999740600586,-9.26099967956543 C11.567000389099121,-8.810999870300293 12.994000434875488,-8.765999794006348 14.347999572753906,-9.10200023651123 C14.347999572753906,-9.10200023651123 26.618999481201172,-12.14900016784668 26.618999481201172,-12.14900016784668 C26.618999481201172,-12.14900016784668 25.027000427246094,-6.2779998779296875 22.738000869750977,-3.492000102996826 C22.738000869750977,-3.492000102996826 32.5890007019043,-1.5010000467300415 38.757999420166016,-2.8940000534057617 C38.757999420166016,-2.8940000534057617 35.17499923706055,2.7769999504089355 27.016000747680664,3.9709999561309814 C27.016000747680664,3.9709999561309814 23.43400001525879,9.642999649047852 19.155000686645508,12.229999542236328 C19.155000686645508,12.229999542236328 20.051000595092773,3.2739999294281006 20.051000595092773,3.2739999294281006 C20.051000595092773,3.2739999294281006 -6.53000020980835,-13.515000343322754 -37.57099914550781,5.2820000648498535 C-38.29600143432617,5.7210001945495605 -39.106998443603516,4.85699987411499 -38.599998474121094,4.177999973297119z"/></g><g opacity="1" transform="matrix(1,0,0,1,385.75,254.33700561523438)"><path stroke-linecap="round" stroke-linejoin="round" fill-opacity="0" stroke="rgb(183,70,21)" stroke-opacity="1" stroke-width="3" d=" M-20.4689998626709,4.409999847412109 C-20.4689998626709,4.409999847412109 -7.498000144958496,-11.918000221252441 20.4689998626709,-0.14399999380111694"/></g></g><g transform="matrix(0.999998927116394,0.0014507316518574953,-0.0014507316518574953,0.999998927116394,0.52081298828125,-0.479156494140625)" opacity="1" style="display: block;"><g opacity="1" transform="matrix(1,0,0,1,286.1730041503906,223.1840057373047)"><path fill="rgb(186,85,49)" fill-opacity="1" d=" M-26.215999603271484,-3.7890000343322754 C-26.215999603271484,-3.7890000343322754 -18.69099998474121,-4.2820000648498535 -18.69099998474121,-4.2820000648498535 C-15.656000137329102,-4.480999946594238 -12.616999626159668,-3.9700000286102295 -9.814000129699707,-2.7909998893737793 C-9.814000129699707,-2.7909998893737793 20.4950008392334,9.958999633789062 20.4950008392334,9.958999633789062 C22.27199935913086,10.706999778747559 24.33099937438965,10.121000289916992 25.448999404907227,8.550999641418457 C25.448999404907227,8.550999641418457 25.448999404907227,8.550999641418457 25.448999404907227,8.550999641418457 C26.917999267578125,6.48799991607666 26.20400047302246,3.6050000190734863 23.937000274658203,2.4769999980926514 C16.562999725341797,-1.190999984741211 1.128999948501587,-8.354999542236328 -10.494000434875488,-10.255999565124512 C-10.494000434875488,-10.255999565124512 -18.454999923706055,-11.053000450134277 -26.215999603271484,-3.7890000343322754z"/><path stroke-linecap="round" stroke-linejoin="round" fill-opacity="0" stroke="rgb(170,77,45)" stroke-opacity="1" stroke-width="2" d=" M-26.215999603271484,-3.7890000343322754 C-26.215999603271484,-3.7890000343322754 -18.69099998474121,-4.2820000648498535 -18.69099998474121,-4.2820000648498535 C-15.656000137329102,-4.480999946594238 -12.616999626159668,-3.9700000286102295 -9.814000129699707,-2.7909998893737793 C-9.814000129699707,-2.7909998893737793 20.4950008392334,9.958999633789062 20.4950008392334,9.958999633789062 C22.27199935913086,10.706999778747559 24.33099937438965,10.121000289916992 25.448999404907227,8.550999641418457 C25.448999404907227,8.550999641418457 25.448999404907227,8.550999641418457 25.448999404907227,8.550999641418457 C26.917999267578125,6.48799991607666 26.20400047302246,3.6050000190734863 23.937000274658203,2.4769999980926514 C16.562999725341797,-1.190999984741211 1.128999948501587,-8.354999542236328 -10.494000434875488,-10.255999565124512 C-10.494000434875488,-10.255999565124512 -18.454999923706055,-11.053000450134277 -26.215999603271484,-3.7890000343322754z"/></g><g opacity="1" transform="matrix(1,0,0,1,383.864990234375,219.81100463867188)"><path fill="rgb(186,85,49)" fill-opacity="1" d=" M26.722999572753906,12.104000091552734 C26.722999572753906,12.104000091552734 19.444000244140625,10.130000114440918 19.444000244140625,10.130000114440918 C16.509000778198242,9.333999633789062 13.428999900817871,9.232000350952148 10.447999954223633,9.833000183105469 C10.447999954223633,9.833000183105469 -21.785999298095703,16.32699966430664 -21.785999298095703,16.32699966430664 C-23.676000595092773,16.70800018310547 -25.57699966430664,15.72700023651123 -26.36199951171875,13.965999603271484 C-26.36199951171875,13.965999603271484 -26.36199951171875,13.965999603271484 -26.36199951171875,13.965999603271484 C-27.39299964904785,11.652999877929688 -26.124000549316406,8.967000007629395 -23.67799949645996,8.310999870300293 C-15.723999977111816,6.176000118255615 0.824999988079071,2.2119998931884766 12.593999862670898,2.6510000228881836 C12.593999862670898,2.6510000228881836 20.554000854492188,3.447000026702881 26.722999572753906,12.104000091552734z"/><path stroke-linecap="round" stroke-linejoin="round" fill-opacity="0" stroke="rgb(170,77,45)" stroke-opacity="1" stroke-width="2" d=" M26.722999572753906,12.104000091552734 C26.722999572753906,12.104000091552734 19.444000244140625,10.130000114440918 19.444000244140625,10.130000114440918 C16.509000778198242,9.333999633789062 13.428999900817871,9.232000350952148 10.447999954223633,9.833000183105469 C10.447999954223633,9.833000183105469 -21.785999298095703,16.32699966430664 -21.785999298095703,16.32699966430664 C-23.676000595092773,16.70800018310547 -25.57699966430664,15.72700023651123 -26.36199951171875,13.965999603271484 C-26.36199951171875,13.965999603271484 -26.36199951171875,13.965999603271484 -26.36199951171875,13.965999603271484 C-27.39299964904785,11.652999877929688 -26.124000549316406,8.967000007629395 -23.67799949645996,8.310999870300293 C-15.723999977111816,6.176000118255615 0.824999988079071,2.2119998931884766 12.593999862670898,2.6510000228881836 C12.593999862670898,2.6510000228881836 20.554000854492188,3.447000026702881 26.722999572753906,12.104000091552734z"/></g></g><g transform="matrix(0.9963740110397339,0.08508061617612839,-0.08508061617612839,0.9963740110397339,15.412757873535156,-26.137845993041992)" opacity="1" style="display: block;"><g opacity="1" transform="matrix(1,0,0,1,378.9280090332031,169.1529998779297)"><path fill="rgb(234,125,87)" fill-opacity="1" d=" M20.07200050354004,-4.1529998779296875 C7.072000026702881,-33.15299987792969 -18.92799949645996,-74.15299987792969 -52.928001403808594,-52.15299987792969 C-67.0199966430664,-42.20600128173828 -78.35700225830078,-29.5049991607666 -83.53399658203125,-13.491000175476074 C-83.53399658203125,-13.491000175476074 -82.83499908447266,-13.758000373840332 -82.83499908447266,-13.758000373840332 C-82.83499908447266,-13.758000373840332 -80.79499816894531,-9.031000137329102 -80.79499816894531,-9.031000137329102 C-80.79499816894531,-9.031000137329102 -76.96399688720703,-2.115999937057495 -76.96399688720703,-2.115999937057495 C-76.96399688720703,-2.115999937057495 -68.20800018310547,-9.279999732971191 -52.387001037597656,-6.691999912261963 C-52.387001037597656,-6.691999912261963 -56.465999603271484,-6.09499979019165 -60.744998931884766,-3.507999897003174 C-60.744998931884766,-3.507999897003174 -45.72100067138672,-3.010999917984009 -39.6510009765625,6.640999794006348 C-33.582000732421875,16.292999267578125 -9.60200023651123,57.88600158691406 35.573001861572266,58.3849983215332 C80.74800109863281,58.88399887084961 84.927001953125,37.19200134277344 83.23600006103516,23.95800018310547 C83.23600006103516,23.95800018310547 82.93800354003906,16.89299964904785 82.93800354003906,16.89299964904785 C82.93800354003906,16.89299964904785 76.89199829101562,20.104000091552734 69.0530014038086,21.586000442504883 C67.91000366210938,21.802000045776367 66.76799774169922,21.913999557495117 65.63300323486328,21.947999954223633 C47.5880012512207,25.01799964904785 27.4950008392334,12.920000076293945 20.07200050354004,-4.1529998779296875z"/></g><g opacity="1" transform="matrix(1,0,0,1,368.23699951171875,148.14100646972656)"><path fill="rgb(244,216,166)" fill-opacity="1" d=" M55.42599868774414,30.253000259399414 C44.042999267578125,7.114999771118164 13.362000465393066,-46.57699966430664 -24.878999710083008,-43.292999267578125 C-67.302001953125,-39.650001525878906 -76.3239974975586,8.845999717712402 -76.3239974975586,8.845999717712402 C-76.3239974975586,8.845999717712402 -72.84400177001953,7.519999980926514 -72.84400177001953,7.519999980926514 C-67.66699981689453,-8.494000434875488 -56.32899856567383,-21.194000244140625 -42.23699951171875,-31.141000747680664 C-8.237000465393066,-53.14099884033203 17.76300048828125,-12.140999794006348 30.76300048828125,16.858999252319336 C38.18600082397461,33.93199920654297 58.27899932861328,46.029998779296875 76.3239974975586,42.959999084472656 C67.60700225830078,43.22200012207031 59.369998931884766,38.26900100708008 55.42599868774414,30.253000259399414z"/></g><g opacity="1" transform="matrix(1,0,0,1,380.27301025390625,184.58299255371094)"><path fill="rgb(244,216,166)" fill-opacity="1" d=" M-78.85600280761719,-17.097999572753906 C-78.85600280761719,-17.097999572753906 -65.72200012207031,-27.8439998626709 -49.30400085449219,-21.177000045776367 C-32.88600158691406,-14.510000228881836 -21.243999481201172,-0.2800000011920929 -4.7270002365112305,25.492000579833984 C11.789999961853027,51.263999938964844 64.6259994506836,45.49399948120117 72.88500213623047,33.255001068115234 C81.14399719238281,21.016000747680664 82.13999938964844,11.065999984741211 82.13999938964844,11.065999984741211 C82.13999938964844,11.065999984741211 66.11900329589844,40.61800003051758 34.07899856567383,29.37299919128418 C34.07899856567383,29.37299919128418 14.675999641418457,22.408000946044922 -7.810999870300293,-14.01099967956543 C-30.29800033569336,-50.43000030517578 -44.92499923706055,-44.858001708984375 -60.448001861572266,-40.38100051879883 C-75.97100067138672,-35.90399932861328 -82.13999938964844,-24.461000442504883 -82.13999938964844,-24.461000442504883 C-82.13999938964844,-24.461000442504883 -78.85600280761719,-17.097999572753906 -78.85600280761719,-17.097999572753906z"/></g><g opacity="1" transform="matrix(1,0,0,1,342.71099853515625,133.5919952392578)"><path fill="rgb(239,148,108)" fill-opacity="1" d=" M-47.165000915527344,22.250999450683594 C-47.165000915527344,22.250999450683594 -23.582000732421875,-12.574999809265137 8.258999824523926,-9.390000343322754 C38.52199935913086,-6.36299991607666 47.165000915527344,13.595999717712402 47.165000915527344,13.595999717712402 C47.165000915527344,13.595999717712402 30.150999069213867,-27.299999237060547 -4.576000213623047,-21.729000091552734 C-4.576000213623047,-21.729000091552734 -34.527000427246094,-13.670000076293945 -47.165000915527344,22.250999450683594z"/></g><g opacity="0.18" transform="matrix(1,0,0,1,337.8349914550781,161.8159942626953)"><path fill="rgb(191,43,23)" fill-opacity="1" d=" M46.46900177001953,-39.30500030517578 C46.46900177001953,-39.30500030517578 20.697999954223633,-52.9370002746582 5.374000072479248,-50.45000076293945 C5.374000072479248,-50.45000076293945 -7.36299991607666,-43.683998107910156 -4.178999900817871,-35.32600021362305 C-0.9950000047683716,-26.968000411987305 21.892000198364258,-34.72800064086914 41.59199905395508,19.50200080871582 C41.59199905395508,19.50200080871582 27.58099937438965,-3.950000047683716 13.631999969482422,-2.390000104904175 C-0.597000002861023,-0.7979999780654907 37.3129997253418,22.089000701904297 42.88399887084961,56.816001892089844 C42.88399887084961,56.816001892089844 13.432000160217285,39.79899978637695 0.0989999994635582,12.336000442504883 C0.0989999994635582,12.336000442504883 -14.029999732971191,2.882999897003174 -20.100000381469727,3.2809998989105225 C-20.100000381469727,3.2809998989105225 -15.821999549865723,0.6940000057220459 -15.821999549865723,0.6940000057220459 C-15.821999549865723,0.6940000057220459 -29.55299949645996,-2.688999891281128 -36.41899871826172,5.669000148773193 C-36.41899871826172,5.669000148773193 -42.28900146484375,-5.9730000495910645 -42.28900146484375,-5.9730000495910645 C-42.28900146484375,-5.9730000495910645 -46.46900177001953,-4.38100004196167 -46.46900177001953,-4.38100004196167 C-46.46900177001953,-4.38100004196167 -33.73099899291992,-61.39699935913086 15.026000022888184,-56.52000045776367 C15.026000022888184,-56.52000045776367 32.83700180053711,-53.733001708984375 46.46900177001953,-39.30500030517578z"/></g><g opacity="1" transform="matrix(1,0,0,1,380.5480041503906,178.0850067138672)"><path stroke-linecap="round" stroke-linejoin="round" fill-opacity="0" stroke="rgb(183,70,21)" stroke-opacity="1" stroke-width="3" d=" M-81.96800231933594,-17.416000366210938 C-81.96800231933594,-17.416000366210938 -61.17100143432617,-44.47999954223633 -34.902000427246094,-35.823001861572266 C-8.633000373840332,-27.166000366210938 5.0970001220703125,36.518001556396484 45.196998596191406,37.513999938964844 C67.00700378417969,38.055999755859375 77.72599792480469,25.780000686645508 81.96800231933594,15.286999702453613"/></g><g opacity="1" transform="matrix(1,0,0,1,356.1369934082031,194.2239990234375)"><path stroke-linecap="round" stroke-linejoin="round" fill-opacity="0" stroke="rgb(183,70,21)" stroke-opacity="1" stroke-width="3" d=" M-47.61199951171875,-30.513999938964844 C-47.61199951171875,-30.513999938964844 -26.809999465942383,-39.52399826049805 -6.710999965667725,-19.423999786376953 C13.387999534606934,0.6759999990463257 15.04699993133545,26.524999618530273 47.61199951171875,32.52799987792969"/></g><g opacity="1" transform="matrix(1,0,0,1,368.43499755859375,151.0679931640625)"><path stroke-linecap="round" stroke-linejoin="round" fill-opacity="0" stroke="rgb(183,70,21)" stroke-opacity="1" stroke-width="3" d=" M-72.34200286865234,4.327000141143799 C-72.34200286865234,4.327000141143799 -50.749000549316406,-50.797000885009766 -11.843000411987305,-37.861000061035156 C27.062999725341797,-24.924999237060547 22.597999572753906,39.80099868774414 72.34200286865234,39.827999114990234"/></g><g opacity="1" transform="matrix(1,0,0,1,377.18798828125,166.12600708007812)"><path stroke-linecap="round" stroke-linejoin="round" fill-opacity="0" stroke="rgb(183,70,21)" stroke-opacity="1" stroke-width="3" d=" M-75.2249984741211,0.9120000004768372 C-75.2249984741211,0.9120000004768372 -66.46800231933594,-6.251999855041504 -50.64699935913086,-3.6649999618530273 C-50.64699935913086,-3.6649999618530273 -54.72600173950195,-3.068000078201294 -59.005001068115234,-0.48100000619888306 C-59.005001068115234,-0.48100000619888306 -43.97999954223633,0.017000000923871994 -37.9109992980957,9.668999671936035 C-31.841999053955078,19.320999145507812 -7.861999988555908,60.91400146484375 37.3129997253418,61.41299819946289 C82.48799896240234,61.9119987487793 86.66699981689453,40.220001220703125 84.97599792480469,26.986000061035156 C84.97599792480469,26.986000061035156 84.6780014038086,19.92099952697754 84.6780014038086,19.92099952697754 C84.6780014038086,19.92099952697754 78.63200378417969,23.131999969482422 70.79299926757812,24.61400032043457 C60.87200164794922,26.48900032043457 50.93199920654297,21.32900047302246 46.474998474121094,12.269000053405762 C35.09199905395508,-10.869000434875488 4.4120001792907715,-64.56099700927734 -33.82899856567383,-61.277000427246094 C-76.25199890136719,-57.63399887084961 -85.27400207519531,-9.137999534606934 -85.27400207519531,-9.137999534606934"/></g></g><g transform="matrix(0.9998195171356201,-0.018999559804797173,0.018999559804797173,0.9998195171356201,-7.125946044921875,8.186309814453125)" opacity="1" style="display: block;"><g opacity="1" transform="matrix(1,0,0,1,381.2659912109375,428.39599609375)"><path fill="rgb(255,161,177)" fill-opacity="1" d=" M8.206000328063965,-40.53300094604492 C-1.9869999885559082,-27.145000457763672 -15.746000289916992,-8.602999687194824 -33.60499954223633,-1.590000033378601 C-50.01499938964844,4.854000091552734 -34.915000915527344,45.71200180053711 -14.765999794006348,49.104000091552734 C8.95300006866455,53.09700012207031 27.733999252319336,27.16699981689453 32.777000427246094,19.39900016784668 C50.16899871826172,-7.390999794006348 55.23400115966797,-21.645999908447266 48.683998107910156,-46.76100158691406"/><path stroke-linecap="round" stroke-linejoin="round" fill-opacity="0" stroke="rgb(214,56,105)" stroke-opacity="1" stroke-width="3" d=" M8.206000328063965,-40.53300094604492 C-1.9869999885559082,-27.145000457763672 -15.746000289916992,-8.602999687194824 -33.60499954223633,-1.590000033378601 C-50.01499938964844,4.854000091552734 -34.915000915527344,45.71200180053711 -14.765999794006348,49.104000091552734 C8.95300006866455,53.09700012207031 27.733999252319336,27.16699981689453 32.777000427246094,19.39900016784668 C50.16899871826172,-7.390999794006348 55.23400115966797,-21.645999908447266 48.683998107910156,-46.76100158691406"/></g><g opacity="1" transform="matrix(1,0,0,1,411.260986328125,379.67999267578125)"><path stroke-linecap="round" stroke-linejoin="round" fill-opacity="0" stroke="rgb(242,87,143)" stroke-opacity="1" stroke-width="3" d=" M-14.26099967956543,3.319999933242798 C-14.26099967956543,3.319999933242798 -1.406000018119812,-7.809000015258789 14.26099967956543,-1.2510000467300415"/></g></g><g transform="matrix(0.9998195171356201,-0.018999559804797173,0.018999559804797173,0.9998195171356201,-6.679891109466553,8.20991325378418)" opacity="1" style="display: block;"><g opacity="1" transform="matrix(1,0,0,1,335.0719909667969,439.2510070800781)"><path fill="rgb(255,161,177)" fill-opacity="1" d=" M44.00899887084961,7.328000068664551 C41.75899887084961,-3.8499999046325684 30.32699966430664,-12.642999649047852 22.614999771118164,-17.173999786376953 C16.96299934387207,-20.4950008392334 3.8540000915527344,-32.933998107910156 -2.746000051498413,-39.34299850463867 C-5.125999927520752,-41.65399932861328 -8.805999755859375,-41.90299987792969 -11.51099967956543,-39.981998443603516 C-28.98900032043457,-27.570999145507812 -40.68600082397461,-11.640000343322754 -45.81700134277344,-3.7809998989105225 C-47.638999938964844,-0.9900000095367432 -47.178001403808594,2.696000099182129 -44.737998962402344,4.9670000076293945 C-31.94099998474121,16.881000518798828 14.04391098022461,51.82917785644531 45.29391098022461,36.95417785644531"/></g><g opacity="1" transform="matrix(1,0,0,1,325.37701416015625,452.89599609375)"><path fill="rgb(255,133,159)" fill-opacity="1" d=" M-29.555999755859375,-27.489999771118164 C-29.555999755859375,-27.489999771118164 -27.37299919128418,-15.3149995803833 -27.37299919128418,-15.3149995803833 C-27.37299919128418,-15.3149995803833 -21.117000579833984,-18.899999618530273 -21.117000579833984,-18.899999618530273 C-21.117000579833984,-18.899999618530273 -6.9875335693359375,14.301733016967773 37.706199645996094,26.949289321899414 C37.706199645996094,26.949289321899414 7.234777927398682,33.9716682434082 -36.62300109863281,-11.932000160217285 C-36.62300109863281,-11.932000160217285 -41.54399871826172,-13.267000198364258 -29.555999755859375,-27.489999771118164z"/></g><g opacity="1" transform="matrix(1,0,0,1,329.510986328125,437.7980041503906)"><path stroke-linecap="round" stroke-linejoin="round" fill-opacity="0" stroke="rgb(242,87,143)" stroke-opacity="1" stroke-width="3" d=" M-20.736000061035156,21.368000030517578 C-20.736000061035156,21.368000030517578 15.041999816894531,21.21299934387207 20.736000061035156,-21.368000030517578"/></g><g opacity="1" transform="matrix(1,0,0,1,335.8219909667969,439.10101318359375)"><path stroke-linecap="round" stroke-linejoin="round" fill-opacity="0" stroke="rgb(214,56,105)" stroke-opacity="1" stroke-width="3" d=" M43.25899887084961,7.4770002365112305 C41.00899887084961,-3.7009999752044678 29.57699966430664,-12.493000030517578 21.864999771118164,-17.02400016784668 C16.21299934387207,-20.344999313354492 3.1040000915527344,-32.784000396728516 -3.496000051498413,-39.19300079345703 C-5.875999927520752,-41.50400161743164 -9.555999755859375,-41.75299835205078 -12.26099967956543,-39.832000732421875 C-29.73900032043457,-27.42099952697754 -41.43600082397461,-11.491000175476074 -46.56700134277344,-3.631999969482422 C-48.388999938964844,-0.8410000205039978 -47.928001403808594,2.8459999561309814 -45.487998962402344,5.117000102996826 C-32.691001892089844,17.0310001373291 9.628155708312988,52.4122428894043 45.28942108154297,37.40128707885742"/></g><g opacity="1" transform="matrix(1,0,0,1,304.56298828125,412.5989990234375)"><path fill="rgb(249,172,126)" fill-opacity="1" d=" M20.875999450683594,-2.7279999256134033 C20.875999450683594,-2.7279999256134033 16.714000701904297,-11.942999839782715 16.714000701904297,-11.942999839782715 C11.937000274658203,-22.520999908447266 -0.9160000085830688,-26.68199920654297 -10.986000061035156,-20.910999298095703 C-10.986000061035156,-20.910999298095703 -10.986000061035156,-20.90999984741211 -10.986000061035156,-20.90999984741211 C-21.04400062561035,-15.145999908447266 -23.95800018310547,-1.9780000448226929 -17.273000717163086,7.492000102996826 C-17.273000717163086,7.492000102996826 -5.959000110626221,23.518999099731445 -5.959000110626221,23.518999099731445 C-5.959000110626221,23.518999099731445 15.99899959564209,17.48900032043457 20.875999450683594,-2.7279999256134033z"/></g><g opacity="1" transform="matrix(1,0,0,1,304.56298828125,412.5989990234375)"><path stroke-linecap="round" stroke-linejoin="round" fill-opacity="0" stroke="rgb(188,117,98)" stroke-opacity="1" stroke-width="3" d=" M-5.959000110626221,23.518999099731445 C-5.959000110626221,23.518999099731445 -17.273000717163086,7.492000102996826 -17.273000717163086,7.492000102996826 C-23.95800018310547,-1.9780000448226929 -21.04400062561035,-15.145999908447266 -10.986000061035156,-20.90999984741211 C-10.986000061035156,-20.90999984741211 -10.986000061035156,-20.910999298095703 -10.986000061035156,-20.910999298095703 C-0.9160000085830688,-26.68199920654297 11.937000274658203,-22.520999908447266 16.714000701904297,-11.942999839782715 C16.714000701904297,-11.942999839782715 20.875999450683594,-2.7279999256134033 20.875999450683594,-2.7279999256134033"/></g><g opacity="1" transform="matrix(1,0,0,1,311.6910095214844,420.4670104980469)"><path stroke-linecap="round" stroke-linejoin="round" fill-opacity="0" stroke="rgb(214,56,105)" stroke-opacity="1" stroke-width="3" d=" M-17.21299934387207,17.37700080871582 C-17.21299934387207,17.37700080871582 8.135000228881836,13.079000473022461 17.21299934387207,-17.37700080871582"/></g></g><g transform="matrix(0.9998195171356201,-0.018999559804797173,0.018999559804797173,0.9998195171356201,-6.679891109466553,8.20991325378418)" opacity="1" style="display: block;"><g opacity="1" transform="matrix(1,0,0,1,294.9339904785156,395.04901123046875)"><path fill="rgb(248,248,248)" fill-opacity="1" d=" M25.416000366210938,8.980999946594238 C25.416000366210938,8.980999946594238 15.57800006866455,-21.485000610351562 3.194000005722046,-29.850000381469727 C-7.554999828338623,-37.11000061035156 -29.097999572753906,-19.62700080871582 -24.875,7.507999897003174 C-23.226999282836914,18.0939998626709 -16.232999801635742,27.23900032043457 -6.2129998207092285,31.030000686645508 C-5.784999847412109,31.191999435424805 -5.348999977111816,31.347999572753906 -4.9029998779296875,31.496999740600586 C-4.9029998779296875,31.496999740600586 13.154000282287598,32.17900085449219 25.416000366210938,8.980999946594238z"/></g><g opacity="1" transform="matrix(1,0,0,1,294.9339904785156,395.0480041503906)"><path stroke-linecap="round" stroke-linejoin="round" fill-opacity="0" stroke="rgb(188,117,98)" stroke-opacity="1" stroke-width="3" d=" M25.416000366210938,8.982000350952148 C25.416000366210938,8.982000350952148 15.57800006866455,-21.483999252319336 3.194000005722046,-29.849000930786133 C-7.554999828338623,-37.10900115966797 -29.097999572753906,-19.625999450683594 -24.875,7.508999824523926 C-23.226999282836914,18.094999313354492 -16.232999801635742,27.239999771118164 -6.2129998207092285,31.0310001373291 C-5.784999847412109,31.19300079345703 -5.348999977111816,31.349000930786133 -4.9029998779296875,31.49799919128418"/></g></g><g transform="matrix(0.9998195171356201,-0.018999559804797173,0.018999559804797173,0.9998195171356201,-6.679891109466553,8.20991325378418)" opacity="1" style="display: block;"><g opacity="1" transform="matrix(1,0,0,1,268.1789855957031,401.38299560546875)"><path fill="rgb(248,248,248)" fill-opacity="1" d=" M23.351999282836914,25.239999771118164 C23.351999282836914,25.239999771118164 0.3310000002384186,25.48699951171875 -9.0649995803833,-0.041999999433755875 C-9.0649995803833,-0.041999999433755875 -24.051000595092773,-7.335000038146973 -23.326000213623047,-20.66900062561035 C-23.17099952697754,-23.513999938964844 -20.55900001525879,-25.57200050354004 -17.735000610351562,-25.195999145507812 C-12.45199966430664,-24.492000579833984 -3.7109999656677246,-21.73200035095215 3.321000099182129,-11.729999542236328 C3.321000099182129,-11.729999542236328 22.23900032043457,-13.756999969482422 22.21500015258789,4.270999908447266"/></g><g opacity="0.15" transform="matrix(1,0,0,1,268.3890075683594,400.95599365234375)"><path fill="rgb(226,62,30)" fill-opacity="1" d=" M23.559999465942383,24.142000198364258 C23.559999465942383,24.142000198364258 -1,14.458000183105469 -0.9760000109672546,-3.569999933242798 C-0.9760000109672546,-3.569999933242798 -22.649999618530273,-15.413999557495117 -14.095999717712402,-23.889999389648438 C-14.095999717712402,-23.889999389648438 -32.34000015258789,-27.908000946044922 -18.167999267578125,-6.644000053405762 C-18.167999267578125,-6.644000053405762 -13.956999778747559,-2.865999937057495 -8.748000144958496,0.8569999933242798 C-8.748000144958496,0.8569999933242798 -0.4050000011920929,25.44099998474121 23.559999465942383,24.142000198364258z"/></g><g opacity="1" transform="matrix(1,0,0,1,268.1789855957031,401.38299560546875)"><path stroke-linecap="round" stroke-linejoin="round" fill-opacity="0" stroke="rgb(188,117,98)" stroke-opacity="1" stroke-width="3" d=" M23.351999282836914,25.239999771118164 C23.351999282836914,25.239999771118164 0.3310000002384186,25.48699951171875 -9.0649995803833,-0.041999999433755875 C-9.0649995803833,-0.041999999433755875 -24.051000595092773,-7.335000038146973 -23.326000213623047,-20.66900062561035 C-23.17099952697754,-23.513999938964844 -20.55900001525879,-25.57200050354004 -17.735000610351562,-25.195999145507812 C-12.45199966430664,-24.492000579833984 -3.7109999656677246,-21.73200035095215 3.321000099182129,-11.729999542236328 C3.321000099182129,-11.729999542236328 22.23900032043457,-13.756999969482422 22.21500015258789,4.270999908447266"/></g></g><g transform="matrix(0.9998195171356201,-0.018999559804797173,0.018999559804797173,0.9998195171356201,233.7024688720703,364.74212646484375)" opacity="1" style="display: block;"><g opacity="1" transform="matrix(1,0,0,1,0,0)"><path fill="rgb(236,233,255)" fill-opacity="1" d=" M34.262001037597656,36.96799850463867 C34.262001037597656,36.96799850463867 -45.51300048828125,-21.658000946044922 -45.51300048828125,-21.658000946044922 C-49.74100112915039,-24.764999389648438 -50.650001525878906,-30.711000442504883 -47.542999267578125,-34.93899917602539 C-47.542999267578125,-34.93899917602539 -47.542999267578125,-34.93899917602539 -47.542999267578125,-34.93899917602539 C-44.43600082397461,-39.16699981689453 -38.4900016784668,-40.07500076293945 -34.262001037597656,-36.96799850463867 C-34.262001037597656,-36.96799850463867 45.51300048828125,21.658000946044922 45.51300048828125,21.658000946044922 C49.74100112915039,24.764999389648438 50.650001525878906,30.711000442504883 47.542999267578125,34.93899917602539 C47.542999267578125,34.93899917602539 47.542999267578125,34.93899917602539 47.542999267578125,34.93899917602539 C44.43600082397461,39.16699981689453 38.4900016784668,40.07500076293945 34.262001037597656,36.96799850463867z"/><path stroke-linecap="round" stroke-linejoin="round" fill-opacity="0" stroke="rgb(139,134,224)" stroke-opacity="1" stroke-width="3" d=" M34.262001037597656,36.96799850463867 C34.262001037597656,36.96799850463867 -45.51300048828125,-21.658000946044922 -45.51300048828125,-21.658000946044922 C-49.74100112915039,-24.764999389648438 -50.650001525878906,-30.711000442504883 -47.542999267578125,-34.93899917602539 C-47.542999267578125,-34.93899917602539 -47.542999267578125,-34.93899917602539 -47.542999267578125,-34.93899917602539 C-44.43600082397461,-39.16699981689453 -38.4900016784668,-40.07500076293945 -34.262001037597656,-36.96799850463867 C-34.262001037597656,-36.96799850463867 45.51300048828125,21.658000946044922 45.51300048828125,21.658000946044922 C49.74100112915039,24.764999389648438 50.650001525878906,30.711000442504883 47.542999267578125,34.93899917602539 C47.542999267578125,34.93899917602539 47.542999267578125,34.93899917602539 47.542999267578125,34.93899917602539 C44.43600082397461,39.16699981689453 38.4900016784668,40.07500076293945 34.262001037597656,36.96799850463867z"/></g></g><g transform="matrix(0.9998195171356201,-0.018999559804797173,0.018999559804797173,0.9998195171356201,-6.679891109466553,8.20991325378418)" opacity="1" style="display: block;"><g opacity="1" transform="matrix(1,0,0,1,273.5830078125,363.4960021972656)"><path fill="rgb(248,248,248)" fill-opacity="1" d=" M28.440000534057617,5.85099983215332 C9.866999626159668,-15.894000053405762 -18.132999420166016,-10.473999977111816 -27.062000274658203,-8.02299976348877 C-28.400999069213867,-7.65500020980835 -28.888999938964844,-6.014999866485596 -27.96299934387207,-4.980999946594238 C-27.96299934387207,-4.980999946594238 -24.489999771118164,-2.6010000705718994 -24.489999771118164,-2.6010000705718994 C-24.489999771118164,-2.6010000705718994 -25.184999465942383,12.515000343322754 12.758999824523926,10.223999977111816"/></g><g opacity="0.15" transform="matrix(1,0,0,1,266.0069885253906,365.49200439453125)"><path fill="rgb(226,62,30)" fill-opacity="1" d=" M-20.790000915527344,-8.777999877929688 C-20.790000915527344,-8.777999877929688 -16.93600082397461,0.9259999990463257 20.790000915527344,7.686999797821045 C20.790000915527344,7.686999797821045 -3.7699999809265137,13.833999633789062 -17.281999588012695,-3.059999942779541 C-17.281999588012695,-3.059999942779541 -20.790000915527344,-8.777999877929688 -20.790000915527344,-8.777999877929688z"/></g><g opacity="1" transform="matrix(1,0,0,1,267.6310119628906,366.4169921875)"><path stroke-linecap="round" stroke-linejoin="round" fill-opacity="0" stroke="rgb(188,117,98)" stroke-opacity="1" stroke-width="3" d=" M-18.711000442504883,-7.514999866485596 C-18.711000442504883,-7.514999866485596 -19.232999801635742,9.593999862670898 18.711000442504883,7.302999973297119"/></g><g opacity="1" transform="matrix(1,0,0,1,273.552001953125,361.1910095214844)"><path stroke-linecap="round" stroke-linejoin="round" fill-opacity="0" stroke="rgb(188,117,98)" stroke-opacity="1" stroke-width="3" d=" M28.908000946044922,7.906000137329102 C9.072999954223633,-14.440999984741211 -18.101999282836914,-8.170000076293945 -27.0310001373291,-5.718999862670898 C-28.3700008392334,-5.35099983215332 -28.944000244140625,-4.705999851226807 -28.01799964904785,-3.671999931335449 C-28.01799964904785,-3.671999931335449 -24.631999969482422,-2.2890000343322754 -24.631999969482422,-2.2890000343322754"/></g><g opacity="1" transform="matrix(1,0,0,1,253.625,356.93701171875)"><path fill="rgb(108,159,250)" fill-opacity="1" d=" M1.0360000133514404,3.2860000133514404 C1.0360000133514404,3.2860000133514404 -8.098999977111816,1.0679999589920044 -8.098999977111816,1.0679999589920044 C-10.355999946594238,0.5199999809265137 -10.194999694824219,-1.4900000095367432 -7.8470001220703125,-1.9700000286102295 C-5.203999996185303,-2.510999917984009 -1.5740000009536743,-3.0789999961853027 3.242000102996826,-3.497999906539917 C6.7729997634887695,-3.805000066757202 9.982000350952148,-2.0940001010894775 9.684000015258789,0.08900000154972076 C9.538999557495117,1.152999997138977 8.557999610900879,2.250999927520752 5.890999794006348,3.118000030517578 C4.375999927520752,3.6110000610351562 2.5940001010894775,3.6640000343322754 1.0360000133514404,3.2860000133514404z"/><path stroke-linecap="round" stroke-linejoin="round" fill-opacity="0" stroke="rgb(29,126,191)" stroke-opacity="1" stroke-width="3.004" d=" M1.0360000133514404,3.2860000133514404 C1.0360000133514404,3.2860000133514404 -8.098999977111816,1.0679999589920044 -8.098999977111816,1.0679999589920044 C-10.355999946594238,0.5199999809265137 -10.194999694824219,-1.4900000095367432 -7.8470001220703125,-1.9700000286102295 C-5.203999996185303,-2.510999917984009 -1.5740000009536743,-3.0789999961853027 3.242000102996826,-3.497999906539917 C6.7729997634887695,-3.805000066757202 9.982000350952148,-2.0940001010894775 9.684000015258789,0.08900000154972076 C9.538999557495117,1.152999997138977 8.557999610900879,2.250999927520752 5.890999794006348,3.118000030517578 C4.375999927520752,3.6110000610351562 2.5940001010894775,3.6640000343322754 1.0360000133514404,3.2860000133514404z"/></g></g><g transform="matrix(0.9998195171356201,-0.018999559804797173,0.018999559804797173,0.9998195171356201,-6.679891109466553,8.20991325378418)" opacity="1" style="display: block;"><g opacity="1" transform="matrix(1,0,0,1,0,0)"><g opacity="1" transform="matrix(1,0,0,1,275.6780090332031,391.8659973144531)"><path stroke-linecap="round" stroke-linejoin="round" fill-opacity="0" stroke="rgb(188,117,98)" stroke-opacity="1" stroke-width="3" d=" M-1.090000033378601,1.253999948501587 C-1.090000033378601,1.253999948501587 1.090000033378601,-1.253999948501587 1.090000033378601,-1.253999948501587"/></g><g opacity="1" transform="matrix(1,0,0,1,282.364013671875,382.6340026855469)"><path fill="rgb(248,248,248)" fill-opacity="1" d=" M12.6850004196167,-12.680999755859375 C12.6850004196167,-12.680999755859375 -17.569000244140625,-16.597999572753906 -12.720000267028809,11.390000343322754 C-12.479000091552734,12.781999588012695 -10.788999557495117,13.357999801635742 -9.765999794006348,12.383000373840332 C-9.765999794006348,12.383000373840332 -7.415999889373779,10.142999649047852 -7.415999889373779,10.142999649047852 C-7.415999889373779,10.142999649047852 1.9830000400543213,14.345999717712402 13.246000289916992,5.3379998207092285"/></g><g opacity="0.15" transform="matrix(1,0,0,1,284.1510009765625,389.97601318359375)"><path fill="rgb(226,62,30)" fill-opacity="1" d=" M-12.472999572753906,5.593999862670898 C-12.472999572753906,5.593999862670898 -7.580999851226807,-8.88599967956543 10.817000389099121,-4.900000095367432 C12.562999725341797,-4.521999835968018 13.07800006866455,-2.2809998989105225 11.635000228881836,-1.2269999980926514 C7.186999797821045,2.0220000743865967 -1.0839999914169312,6.776000022888184 -7.664999961853027,3.1689999103546143 C-7.664999961853027,3.1689999103546143 -12.472999572753906,5.593999862670898 -12.472999572753906,5.593999862670898z"/></g><g opacity="1" transform="matrix(1,0,0,1,282.364013671875,382.6340026855469)"><path stroke-linecap="round" stroke-linejoin="round" fill-opacity="0" stroke="rgb(188,117,98)" stroke-opacity="1" stroke-width="3" d=" M12.6850004196167,-12.680999755859375 C12.6850004196167,-12.680999755859375 -17.569000244140625,-16.597999572753906 -12.720000267028809,11.390000343322754 C-12.479000091552734,12.781999588012695 -10.788999557495117,13.357999801635742 -9.765999794006348,12.383000373840332 C-9.765999794006348,12.383000373840332 -7.415999889373779,10.142999649047852 -7.415999889373779,10.142999649047852 C-7.415999889373779,10.142999649047852 1.9830000400543213,14.345999717712402 13.246000289916992,5.3379998207092285"/></g></g><g opacity="1" transform="matrix(1,0,0,1,272.3450012207031,391.0199890136719)"><path fill="rgb(108,159,250)" fill-opacity="1" d=" M-3.7309999465942383,-2.552000045776367 C-3.7679998874664307,-0.7099999785423279 -3.6050000190734863,1.7109999656677246 -2.937000036239624,4.5970001220703125 C-2.3889999389648438,6.961999893188477 0.5960000157356262,7.232999801635742 1.399999976158142,4.980000019073486 C1.399999976158142,4.980000019073486 3.4769999980926514,-0.8410000205039978 3.4769999980926514,-0.8410000205039978 C4.209000110626221,-2.8919999599456787 3.3389999866485596,-5.261000156402588 1.4730000495910645,-6.159999847412109 C1.4179999828338623,-6.185999870300293 1.3630000352859497,-6.211999893188477 1.3070000410079956,-6.236999988555908 C-1.0700000524520874,-7.297999858856201 -3.674999952316284,-5.336999893188477 -3.7309999465942383,-2.552000045776367z"/><path stroke-linecap="round" stroke-linejoin="round" fill-opacity="0" stroke="rgb(29,126,191)" stroke-opacity="1" stroke-width="3.004" d=" M-3.7309999465942383,-2.552000045776367 C-3.7679998874664307,-0.7099999785423279 -3.6050000190734863,1.7109999656677246 -2.937000036239624,4.5970001220703125 C-2.3889999389648438,6.961999893188477 0.5960000157356262,7.232999801635742 1.399999976158142,4.980000019073486 C1.399999976158142,4.980000019073486 3.4769999980926514,-0.8410000205039978 3.4769999980926514,-0.8410000205039978 C4.209000110626221,-2.8919999599456787 3.3389999866485596,-5.261000156402588 1.4730000495910645,-6.159999847412109 C1.4179999828338623,-6.185999870300293 1.3630000352859497,-6.211999893188477 1.3070000410079956,-6.236999988555908 C-1.0700000524520874,-7.297999858856201 -3.674999952316284,-5.336999893188477 -3.7309999465942383,-2.552000045776367z"/></g></g><g transform="matrix(0.9998195171356201,-0.018999559804797173,0.018999559804797173,0.9998195171356201,-6.679891109466553,8.20991325378418)" opacity="1" style="display: block;"><g opacity="1" transform="matrix(1,0,0,1,0,0)"><g opacity="1" transform="matrix(1,0,0,1,289.85101318359375,397.4750061035156)"><path fill="rgb(248,248,248)" fill-opacity="1" d=" M9.484000205993652,-12.83899974822998 C9.484000205993652,-12.83899974822998 -14.397000312805176,-12.602999687194824 -13.529999732971191,10.918000221252441 C-13.473999977111816,12.4350004196167 -11.805000305175781,13.33899974822998 -10.51099967956543,12.545000076293945 C-10.51099967956543,12.545000076293945 -7.540999889373779,10.722999572753906 -7.540999889373779,10.722999572753906 C-7.540999889373779,10.722999572753906 2.7669999599456787,13.842000007629395 10.781999588012695,2.1050000190734863 C10.781999588012695,2.1050000190734863 11.21399974822998,7.085999965667725 13.553000450134277,10.89799976348877"/></g><g opacity="0.15" transform="matrix(1,0,0,1,288.57000732421875,405.12799072265625)"><path fill="rgb(226,62,30)" fill-opacity="1" d=" M-11.522000312805176,6.0370001792907715 C-11.522000312805176,6.0370001792907715 -2.5989999771118164,-6.7829999923706055 11.522000312805176,-6.001999855041504 C11.522000312805176,-6.001999855041504 4.418000221252441,4.6529998779296875 -6.714000225067139,3.611999988555908 C-6.714000225067139,3.611999988555908 -11.522000312805176,6.0370001792907715 -11.522000312805176,6.0370001792907715z"/></g><g opacity="1" transform="matrix(1,0,0,1,289.85101318359375,397.4750061035156)"><path stroke-linecap="round" stroke-linejoin="round" fill-opacity="0" stroke="rgb(188,117,98)" stroke-opacity="1" stroke-width="3" d=" M9.484000205993652,-12.83899974822998 C9.484000205993652,-12.83899974822998 -14.397000312805176,-12.602999687194824 -13.529999732971191,10.918000221252441 C-13.473999977111816,12.4350004196167 -11.805000305175781,13.33899974822998 -10.51099967956543,12.545000076293945 C-10.51099967956543,12.545000076293945 -8.62399959564209,9.812999725341797 -8.62399959564209,9.812999725341797 C-8.62399959564209,9.812999725341797 2.7669999599456787,13.842000007629395 10.781999588012695,2.1050000190734863 C10.781999588012695,2.1050000190734863 11.21399974822998,7.085999965667725 13.553000450134277,10.89799976348877"/></g></g><g opacity="1" transform="matrix(1,0,0,1,279.5419921875,406.4100036621094)"><path fill="rgb(108,159,250)" fill-opacity="1" d=" M-2.8399999141693115,-2.614000082015991 C-3.2660000324249268,-1.2740000486373901 -3.6440000534057617,0.5350000262260437 -3.684000015258789,2.7990000247955322 C-3.7170000076293945,4.6539998054504395 -1.1950000524520874,5.53000020980835 -0.01899999938905239,4.063000202178955 C-0.01899999938905239,4.063000202178955 3.0199999809265137,0.2720000147819519 3.0199999809265137,0.2720000147819519 C4.091000080108643,-1.062999963760376 3.8469998836517334,-2.99399995803833 2.427000045776367,-4.074999809265137 C2.384999990463257,-4.10699987411499 2.3420000076293945,-4.138000011444092 2.2990000247955322,-4.169000148773193 C0.47200000286102295,-5.485000133514404 -2.196000099182129,-4.639999866485596 -2.8399999141693115,-2.614000082015991z"/><path stroke-linecap="round" stroke-linejoin="round" fill-opacity="0" stroke="rgb(29,126,191)" stroke-opacity="1" stroke-width="3.004" d=" M-2.8399999141693115,-2.614000082015991 C-3.2660000324249268,-1.2740000486373901 -3.6440000534057617,0.5350000262260437 -3.684000015258789,2.7990000247955322 C-3.7170000076293945,4.6539998054504395 -1.1950000524520874,5.53000020980835 -0.01899999938905239,4.063000202178955 C-0.01899999938905239,4.063000202178955 3.0199999809265137,0.2720000147819519 3.0199999809265137,0.2720000147819519 C4.091000080108643,-1.062999963760376 3.8469998836517334,-2.99399995803833 2.427000045776367,-4.074999809265137 C2.384999990463257,-4.10699987411499 2.3420000076293945,-4.138000011444092 2.2990000247955322,-4.169000148773193 C0.47200000286102295,-5.485000133514404 -2.196000099182129,-4.639999866485596 -2.8399999141693115,-2.614000082015991z"/></g></g><g transform="matrix(0.9999893307685852,0.004619478713721037,-0.004619478713721037,0.9999893307685852,1.7367140054702759,-1.3371529579162598)" opacity="1" style="display: block;"><g opacity="1" transform="matrix(1,0,0,1,220.9949951171875,430.2650146484375)"><path fill="rgb(255,161,177)" fill-opacity="1" d=" M37.44599914550781,11.54800033569336 C37.08599853515625,-10.611000061035156 19.2549991607666,-30.256000518798828 13.97599983215332,-35.59299850463867 C13.074999809265137,-36.50400161743164 11.854000091552734,-37.040000915527344 10.572999954223633,-37.0359992980957 C-16.264999389648438,-36.94200134277344 -31.822999954223633,-22.451000213623047 -37.0260009765625,-16.582000732421875 C-38.284000396728516,-15.163000106811523 -38.59299850463867,-13.140000343322754 -37.8120002746582,-11.411999702453613 C-33.10900115966797,-1.0019999742507935 -14.812999725341797,35.5359992980957 10.87600040435791,36.9640007019043 C25.667999267578125,37.7859992980957 33.797000885009766,31.395000457763672 38.237998962402344,24.709999084472656"/></g><g opacity="1" transform="matrix(1,0,0,1,208.9320068359375,436.3330078125)"><path fill="rgb(255,133,159)" fill-opacity="1" d=" M-16.184999465942383,-31.488000869750977 C-16.184999465942383,-31.488000869750977 -12.564000129699707,-14.402999877929688 -12.564000129699707,-14.402999877929688 C-12.564000129699707,-14.402999877929688 -3.565999984741211,-14.20300006866455 5.543000221252441,-19.00200080871582 C5.543000221252441,-19.00200080871582 4.252999782562256,-11.350000381469727 -2.4679999351501465,-8.425999641418457 C-5.4670000076293945,-7.120999813079834 -6.956999778747559,-3.7090001106262207 -5.855999946594238,-0.6290000081062317 C-2.3589999675750732,9.157999992370605 3.066999912261963,26.68899917602539 26.427000045776367,31.474000930786133 C26.427000045776367,31.474000930786133 -6.63100004196167,33.74100112915039 -26.427000045776367,-20.711999893188477 C-26.427000045776367,-20.711999893188477 -23.316999435424805,-25.645000457763672 -16.184999465942383,-31.488000869750977z"/></g><g opacity="1" transform="matrix(1,0,0,1,221.3719940185547,427.3320007324219)"><path stroke-linecap="round" stroke-linejoin="round" fill-opacity="0" stroke="rgb(242,87,143)" stroke-opacity="1" stroke-width="3" d=" M-27.493000030517578,11.020999908447266 C-27.493000030517578,11.020999908447266 12.27400016784668,29.643999099731445 27.493000030517578,-14.883999824523926"/></g><g opacity="1" transform="matrix(1,0,0,1,220.9949951171875,430.2650146484375)"><path stroke-linecap="round" stroke-linejoin="round" fill-opacity="0" stroke="rgb(214,56,105)" stroke-opacity="1" stroke-width="3" d=" M37.44599914550781,11.54800033569336 C37.08599853515625,-10.611000061035156 19.2549991607666,-30.256000518798828 13.97599983215332,-35.59299850463867 C13.074999809265137,-36.50400161743164 11.854000091552734,-37.040000915527344 10.572999954223633,-37.0359992980957 C-16.264999389648438,-36.94200134277344 -31.822999954223633,-22.451000213623047 -37.0260009765625,-16.582000732421875 C-38.284000396728516,-15.163000106811523 -38.59299850463867,-13.140000343322754 -37.8120002746582,-11.411999702453613 C-33.10900115966797,-1.0019999742507935 -14.812999725341797,35.5359992980957 10.87600040435791,36.9640007019043 C25.667999267578125,37.7859992980957 33.797000885009766,31.395000457763672 38.237998962402344,24.709999084472656"/></g><g opacity="1" transform="matrix(1,0,0,1,211.50900268554688,403.8630065917969)"><path fill="rgb(249,172,126)" fill-opacity="1" d=" M19.781999588012695,-3.003999948501587 C19.781999588012695,-3.003999948501587 16.197999954223633,-8.861000061035156 16.197999954223633,-8.861000061035156 C10.946999549865723,-16.732999801635742 0.8320000171661377,-19.740999221801758 -7.864999771118164,-16.017000198364258 C-7.864999771118164,-16.017000198364258 -7.864999771118164,-16.017000198364258 -7.864999771118164,-16.017000198364258 C-19.06999969482422,-11.220000267028809 -23.246000289916992,2.5220000743865967 -16.604999542236328,12.744999885559082 C-16.604999542236328,12.744999885559082 -13.447999954223633,17.604000091552734 -13.447999954223633,17.604000091552734 C-13.447999954223633,17.604000091552734 17.826000213623047,15.116000175476074 19.781999588012695,-3.003999948501587z"/></g><g opacity="1" transform="matrix(1,0,0,1,211.50900268554688,403.8630065917969)"><path stroke-linecap="round" stroke-linejoin="round" fill-opacity="0" stroke="rgb(183,70,21)" stroke-opacity="1" stroke-width="3" d=" M-13.447999954223633,17.604000091552734 C-13.447999954223633,17.604000091552734 -16.604999542236328,12.744999885559082 -16.604999542236328,12.744999885559082 C-23.246000289916992,2.5220000743865967 -19.06999969482422,-11.220000267028809 -7.864999771118164,-16.017000198364258 C-7.864999771118164,-16.017000198364258 -7.864999771118164,-16.017000198364258 -7.864999771118164,-16.017000198364258 C0.8320000171661377,-19.740999221801758 10.946999549865723,-16.732999801635742 16.197999954223633,-8.861000061035156 C16.197999954223633,-8.861000061035156 19.781999588012695,-3.003999948501587 19.781999588012695,-3.003999948501587"/></g><g opacity="1" transform="matrix(1,0,0,1,211.1750030517578,410.5799865722656)"><path stroke-linecap="round" stroke-linejoin="round" fill-opacity="0" stroke="rgb(214,56,105)" stroke-opacity="1" stroke-width="3" d=" M-22.20599937438965,6.684000015258789 C-22.20599937438965,6.684000015258789 -18.34000015258789,12.770999908447266 -7.297999858856201,11.015999794006348 C3.74399995803833,9.26099967956543 20.983999252319336,-1.3589999675750732 22.20599937438965,-11.333999633789062"/></g></g><g transform="matrix(0.9999893307685852,0.004619478713721037,-0.004619478713721037,0.9999893307685852,1.7367140054702759,-1.3371529579162598)" opacity="1" style="display: block;"><g opacity="1" transform="matrix(1,0,0,1,201.07400512695312,375.88800048828125)"><path fill="rgb(248,248,248)" fill-opacity="1" d=" M26.308000564575195,23.225000381469727 C26.308000564575195,23.225000381469727 26.5310001373291,13.22700023651123 20.621000289916992,9.095000267028809 C20.621000289916992,9.095000267028809 35.972999572753906,-6.567999839782715 23.197999954223633,-16.854000091552734 C23.197999954223633,-16.854000091552734 23.530000686645508,-31.850000381469727 11.51099967956543,-31.117000579833984 C11.51099967956543,-31.117000579833984 8.755999565124512,-42.180999755859375 -3.2850000858306885,-40.448001861572266 C-15.326000213623047,-38.71500015258789 -32.72200012207031,-21.097000122070312 -27.233999252319336,2.0309998989105225 C-21.746000289916992,25.159000396728516 -10.038000106811523,38.422000885009766 -3.0840001106262207,40.57699966430664 C-3.0840001106262207,40.57699966430664 17.37700080871582,42.53099822998047 26.308000564575195,23.225000381469727z"/></g><g opacity="0.15" transform="matrix(1,0,0,1,184.37899780273438,375.42999267578125)"><path fill="rgb(226,62,30)" fill-opacity="1" d=" M12.920999526977539,-40.500999450683594 C12.920999526977539,-40.500999450683594 -25.58099937438965,-18.35099983215332 12.121999740600586,40.500999450683594 C12.121999740600586,40.500999450683594 -44.75299835205078,-10.77400016784668 12.920999526977539,-40.500999450683594z"/></g><g opacity="1" transform="matrix(1,0,0,1,202.2469940185547,352.5409851074219)"><path stroke-linecap="round" stroke-linejoin="round" fill-opacity="0" stroke="rgb(188,117,98)" stroke-opacity="1" stroke-width="3" d=" M-13.01099967956543,7.716000080108643 C-13.01099967956543,7.716000080108643 -2.2899999618530273,-8.920999526977539 13.01099967956543,-7.645999908447266"/></g><g opacity="1" transform="matrix(1,0,0,1,212.71499633789062,364.7300109863281)"><path stroke-linecap="round" stroke-linejoin="round" fill-opacity="0" stroke="rgb(188,117,98)" stroke-opacity="1" stroke-width="3" d=" M-12.704000473022461,5.76800012588501 C-12.704000473022461,5.76800012588501 0.9879999756813049,-9.963000297546387 12.704000473022461,-4.685999870300293"/></g><g opacity="1" transform="matrix(1,0,0,1,221.26400756835938,382.2149963378906)"><path stroke-linecap="round" stroke-linejoin="round" fill-opacity="0" stroke="rgb(188,117,98)" stroke-opacity="1" stroke-width="3" d=" M1.6299999952316284,-6.208000183105469 C1.6299999952316284,-6.208000183105469 -3.5239999294281006,0.6790000200271606 -3.5239999294281006,0.6790000200271606 C-3.5239999294281006,0.6790000200271606 0.796999990940094,1.5169999599456787 3.5239999294281006,6.208000183105469"/></g><g opacity="1" transform="matrix(1,0,0,1,201.07400512695312,375.8599853515625)"><path stroke-linecap="round" stroke-linejoin="round" fill-opacity="0" stroke="rgb(188,117,98)" stroke-opacity="1" stroke-width="3" d=" M26.308000564575195,23.253000259399414 C26.308000564575195,23.253000259399414 26.5310001373291,13.255000114440918 20.621000289916992,9.123000144958496 C20.621000289916992,9.123000144958496 35.972999572753906,-6.539999961853027 23.197999954223633,-16.826000213623047 C23.197999954223633,-16.826000213623047 23.530000686645508,-31.82200050354004 11.51099967956543,-31.089000701904297 C11.51099967956543,-31.089000701904297 8.755999565124512,-42.15299987792969 -3.2850000858306885,-40.41999816894531 C-15.326000213623047,-38.6870002746582 -32.72200012207031,-21.069000244140625 -27.233999252319336,2.059000015258789 C-21.746000289916992,25.187000274658203 -10.038000106811523,38.44900131225586 -3.0840001106262207,40.604000091552734"/></g></g></g><g transform="matrix(1,0,0,1,0,0)" opacity="1" style="display: block;"><g opacity="1" transform="matrix(1,0,0,1,45.62699890136719,305.45098876953125)"><g opacity="1" transform="matrix(1,0,0,1,0,0)"></g></g><g opacity="1" transform="matrix(1,0,0,1,47,302)"></g></g><g transform="matrix(1,0,0,1,0,0)" opacity="1" style="display: block;"><g opacity="1" transform="matrix(1,0,0,1,17,263)"></g><g opacity="1" transform="matrix(1,0,0,1,51.61600112915039,274.29901123046875)"></g></g><g transform="matrix(1,0,0,1,57.62699890136719,242.18800354003906)" opacity="1" style="display: block;"><g opacity="1" transform="matrix(1,0,0,1,0,0)"></g></g><g transform="matrix(1,0,0,1,82.5,182.5)" opacity="1" style="display: block;"><g opacity="1" transform="matrix(1,0,0,1,0,0)"></g></g><g transform="matrix(1,0,0,1,0,0)" opacity="1" style="display: block;"><g opacity="1" transform="matrix(1,0,0,1,127.5999984741211,78.7229995727539)"></g><g opacity="1" transform="matrix(1,0,0,1,149.78500366210938,106.3030014038086)"></g></g><g transform="matrix(1,0,0,1,176.7449951171875,84.97899627685547)" opacity="1" style="display: block;"></g><g transform="matrix(1,0,0,1,0,0)" opacity="1" style="display: block;"></g><g transform="matrix(1,0,0,1,0,0)" opacity="1" style="display: block;"></g><g transform="matrix(1,0,0,1,312.0669860839844,42.48400115966797)" opacity="1" style="display: block;"><g opacity="1" transform="matrix(1,0,0,1,0,0)"></g></g><g transform="matrix(1,0,0,1,348,42.5)" opacity="1" style="display: block;"><g opacity="1" transform="matrix(1,0,0,1,0,0)"></g></g></g></svg>