<svg width="44" height="40" viewBox="0 0 44 40" fill="none" xmlns="http://www.w3.org/2000/svg">
<g filter="url(#filter0_d_198_173)">
<path d="M26 29V27C26 25.9391 25.5786 24.9217 24.8284 24.1716C24.0783 23.4214 23.0609 23 22 23H15C13.9391 23 12.9217 23.4214 12.1716 24.1716C11.4214 24.9217 11 25.9391 11 27V29" stroke="white" stroke-width="2" stroke-linecap="round" stroke-linejoin="round"/>
<path d="M18.5 19C20.7091 19 22.5 17.2091 22.5 15C22.5 12.7909 20.7091 11 18.5 11C16.2909 11 14.5 12.7909 14.5 15C14.5 17.2091 16.2909 19 18.5 19Z" stroke="white" stroke-width="2" stroke-linecap="round" stroke-linejoin="round"/>
<path d="M27 19L29 21L33 17" stroke="white" stroke-width="2" stroke-linecap="round" stroke-linejoin="round"/>
</g>
<defs>
<filter id="filter0_d_198_173" x="0" y="0" width="44" height="40" filterUnits="userSpaceOnUse" color-interpolation-filters="sRGB">
<feFlood flood-opacity="0" result="BackgroundImageFix"/>
<feColorMatrix in="SourceAlpha" type="matrix" values="0 0 0 0 0 0 0 0 0 0 0 0 0 0 0 0 0 0 127 0" result="hardAlpha"/>
<feOffset/>
<feGaussianBlur stdDeviation="5"/>
<feComposite in2="hardAlpha" operator="out"/>
<feColorMatrix type="matrix" values="0 0 0 0 0 0 0 0 0 0 0 0 0 0 0 0 0 0 0.5 0"/>
<feBlend mode="normal" in2="BackgroundImageFix" result="effect1_dropShadow_198_173"/>
<feBlend mode="normal" in="SourceGraphic" in2="effect1_dropShadow_198_173" result="shape"/>
</filter>
</defs>
</svg>
