<svg width="12" height="10" viewBox="0 0 12 10" fill="none" xmlns="http://www.w3.org/2000/svg">
<path d="M7.81807 9.18182V8.27274C7.81807 7.79054 7.62652 7.32808 7.28555 6.98711C6.94458 6.64615 6.48212 6.45459 5.99992 6.45459H2.81815C2.33595 6.45459 1.87349 6.64615 1.53252 6.98711C1.19155 7.32808 1 7.79054 1 8.27274V9.18182" stroke="white" stroke-linecap="round" stroke-linejoin="round"/>
<path d="M4.40946 4.63631C5.4136 4.63631 6.22761 3.82229 6.22761 2.81815C6.22761 1.81401 5.4136 1 4.40946 1C3.40532 1 2.59131 1.81401 2.59131 2.81815C2.59131 3.82229 3.40532 4.63631 4.40946 4.63631Z" stroke="white" stroke-linecap="round" stroke-linejoin="round"/>
<path d="M9.63574 3.27246V5.99969" stroke="white" stroke-linecap="round" stroke-linejoin="round"/>
<path d="M11.0002 4.63672H8.27295" stroke="white" stroke-linecap="round" stroke-linejoin="round"/>
</svg>
