<svg width="211" height="172" viewBox="0 0 211 172" fill="none" xmlns="http://www.w3.org/2000/svg">
<path fill-rule="evenodd" clip-rule="evenodd" d="M0 0.329346V12.771C0 19.736 5.7258 25.3831 12.7879 25.3831H49.553C69.411 25.3831 87.9167 51.7349 87.9167 70.3138V156.234C87.9167 164.941 95.073 171.999 103.902 171.999H195.015C203.844 171.999 211 164.941 211 156.234V64.7961C211 56.0889 203.844 49.0309 195.015 49.0309H108.697C80.7187 49.0309 62.3409 23.0183 62.3409 11.9826V0.329346H0Z" fill="url(#paint0_linear_1074_759)"/>
<g filter="url(#filter0_d_1074_759)">
<rect x="165.026" y="140.375" width="2.12594" height="4.25189" fill="#0AAAAA"/>
<rect x="133.137" y="112.739" width="2.12594" height="4.25189" fill="#17D6C7"/>
<rect x="162.9" y="112.739" width="2.12594" height="4.25189" fill="#17D6C7"/>
<rect x="135.263" y="110.613" width="4.25189" height="2.12594" fill="#17D6C7"/>
<rect x="158.648" y="110.613" width="4.25189" height="2.12594" fill="#17D6C7"/>
<rect x="156.522" y="146.754" width="2.12594" height="2.12594" fill="#17D6C7"/>
<rect x="156.522" y="138.25" width="2.12594" height="2.12594" fill="#17D6C7"/>
<rect x="139.516" y="146.754" width="2.12594" height="2.12594" fill="#17D6C7"/>
<rect x="139.516" y="110.613" width="4.25189" height="2.12594" fill="#0AAAAA"/>
<rect x="154.396" y="110.613" width="4.25189" height="2.12594" fill="#0AAAAA"/>
<rect x="143.767" y="112.739" width="2.12594" height="6.37783" fill="#0AAAAA"/>
<rect x="141.642" y="112.739" width="2.12594" height="8.50378" fill="white"/>
<rect x="160.774" y="114.864" width="2.12594" height="6.37783" fill="#00002F"/>
<rect x="135.263" y="114.864" width="2.12594" height="6.37783" fill="#00002F"/>
<rect x="156.522" y="119.116" width="4.25189" height="2.12594" fill="#00002F"/>
<rect x="137.389" y="119.116" width="4.25189" height="2.12594" fill="#00002F"/>
<rect x="154.396" y="112.739" width="2.12594" height="8.50378" fill="white"/>
<rect x="135.263" y="112.739" width="6.37783" height="2.12594" fill="white"/>
<rect x="156.522" y="121.242" width="6.37783" height="2.12594" fill="white"/>
<rect x="156.522" y="112.739" width="6.37783" height="2.12594" fill="white"/>
<rect x="135.263" y="121.242" width="6.37783" height="2.12594" fill="white"/>
<rect x="152.271" y="112.739" width="2.12594" height="6.37783" fill="#0AAAAA"/>
<rect x="133.137" y="116.99" width="2.12594" height="4.25189" fill="#0AAAAA"/>
<rect x="162.9" y="116.99" width="2.12594" height="4.25189" fill="#0AAAAA"/>
<rect x="131.011" y="121.242" width="2.12594" height="2.12594" fill="#0AAAAA"/>
<rect x="137.389" y="116.99" width="2.12594" height="2.12594" fill="#605DDA"/>
<rect x="137.389" y="114.864" width="2.12594" height="2.12594" fill="#8199DC"/>
<rect x="139.516" y="114.864" width="2.12594" height="2.12594" fill="#BCD4FF"/>
<rect x="156.522" y="114.864" width="2.12594" height="2.12594" fill="#BCD4FF"/>
<rect x="158.648" y="114.864" width="2.12594" height="2.12594" fill="#8199DC"/>
<rect x="156.522" y="116.99" width="2.12594" height="2.12594" fill="#8199DC"/>
<rect x="139.516" y="116.99" width="2.12594" height="2.12594" fill="#8199DC"/>
<rect x="158.648" y="116.99" width="2.12594" height="2.12594" fill="#605DDA"/>
<rect x="141.642" y="121.242" width="2.12594" height="2.12594" fill="#087A91"/>
<rect x="133.137" y="125.494" width="2.12594" height="4.25189" fill="#087A91"/>
<rect x="135.263" y="123.368" width="4.25189" height="2.12594" fill="#087A91"/>
<rect x="133.137" y="146.754" width="6.37783" height="2.12594" fill="#087A91"/>
<rect x="135.263" y="140.375" width="2.12594" height="6.37783" fill="#087A91"/>
<rect x="135.263" y="125.494" width="4.25189" height="2.12594" fill="#003F55"/>
<rect x="143.767" y="121.242" width="10.6297" height="2.12594" fill="#003F55"/>
<rect x="143.767" y="123.368" width="10.6297" height="2.12594" fill="#A2CDFF"/>
<rect x="143.767" y="146.754" width="10.6297" height="2.12594" fill="#A2CDFF"/>
<rect x="143.767" y="125.494" width="10.6297" height="2.12594" fill="#A9DFFF"/>
<rect x="139.516" y="127.62" width="4.25189" height="2.12594" fill="#D5F3E4"/>
<rect x="139.516" y="127.62" width="4.25189" height="2.12594" fill="#A9DFFF"/>
<rect x="141.642" y="131.872" width="2.12594" height="4.25189" fill="#A9DFFF"/>
<rect x="154.396" y="140.375" width="2.12594" height="4.25189" fill="#A9DFFF"/>
<rect x="141.642" y="140.375" width="2.12594" height="4.25189" fill="#A9DFFF"/>
<rect x="152.271" y="136.124" width="2.12594" height="4.25189" fill="#A9DFFF"/>
<rect x="143.767" y="136.124" width="2.12594" height="4.25189" fill="#A9DFFF"/>
<rect x="154.396" y="131.872" width="2.12594" height="4.25189" fill="#A9DFFF"/>
<rect x="156.522" y="129.746" width="4.25189" height="2.12594" fill="#A9DFFF"/>
<rect x="137.389" y="129.746" width="4.25189" height="2.12594" fill="#A9DFFF"/>
<rect x="145.893" y="144.628" width="6.37783" height="2.12594" fill="#A9DFFF"/>
<rect x="145.893" y="142.501" width="6.37783" height="2.12594" fill="#C4EBFF"/>
<rect x="145.893" y="136.124" width="6.37783" height="4.25189" fill="#C4EBFF"/>
<rect x="143.767" y="140.375" width="10.6297" height="2.12594" fill="#C4EBFF"/>
<rect x="143.767" y="127.62" width="10.6297" height="2.12594" fill="#C4EBFF"/>
<rect x="141.642" y="129.746" width="14.8816" height="2.12594" fill="#C4EBFF"/>
<rect x="143.767" y="131.872" width="10.6297" height="4.25189" fill="#C4EBFF"/>
<rect x="143.767" y="142.501" width="2.12594" height="2.12594" fill="#A9DFFF"/>
<rect x="152.271" y="142.501" width="2.12594" height="2.12594" fill="#A9DFFF"/>
<rect x="154.396" y="127.62" width="4.25189" height="2.12594" fill="#A9DFFF"/>
<rect x="139.516" y="125.494" width="4.25189" height="2.12594" fill="#A2CDFF"/>
<rect x="141.642" y="144.628" width="4.25189" height="2.12594" fill="#A2CDFF"/>
<rect x="145.893" y="148.88" width="6.37783" height="2.12594" fill="#A2CDFF"/>
<rect x="152.271" y="144.628" width="4.25189" height="2.12594" fill="#A2CDFF"/>
<rect x="158.648" y="127.62" width="4.25189" height="2.12594" fill="#A2CDFF"/>
<rect x="154.396" y="125.494" width="4.25189" height="2.12594" fill="#A2CDFF"/>
<rect x="135.263" y="127.62" width="4.25189" height="2.12594" fill="#A2CDFF"/>
<rect x="154.396" y="123.368" width="4.25189" height="2.12594" fill="#003F55"/>
<rect x="158.648" y="125.494" width="4.25189" height="2.12594" fill="#003F55"/>
<rect x="139.516" y="123.368" width="4.25189" height="2.12594" fill="#003F55"/>
<rect x="143.767" y="148.88" width="2.12594" height="2.12594" fill="#003F55"/>
<rect x="135.263" y="148.88" width="4.25189" height="2.12594" fill="#003F55"/>
<rect x="158.648" y="148.88" width="4.25189" height="2.12594" fill="#003F55"/>
<rect x="152.271" y="148.88" width="2.12594" height="2.12594" fill="#003F55"/>
<rect x="158.648" y="123.368" width="4.25189" height="2.12594" fill="#087A91"/>
<rect x="162.9" y="125.494" width="2.12594" height="4.25189" fill="#087A91"/>
<rect x="154.396" y="121.242" width="2.12594" height="2.12594" fill="#087A91"/>
<rect x="165.026" y="121.242" width="2.12594" height="2.12594" fill="#0AAAAA"/>
<rect x="145.893" y="116.99" width="6.37783" height="2.12594" fill="#0E919F"/>
<rect x="162.9" y="121.242" width="2.12594" height="4.25189" fill="#0E919F"/>
<rect x="165.026" y="123.368" width="2.12594" height="4.25189" fill="#0E919F"/>
<rect x="143.767" y="119.116" width="10.6297" height="2.12594" fill="#0E919F"/>
<rect x="133.137" y="121.242" width="2.12594" height="4.25189" fill="#0E919F"/>
<rect x="131.011" y="123.368" width="2.12594" height="4.25189" fill="#0E919F"/>
<rect x="137.389" y="140.375" width="2.12594" height="6.37783" fill="#17D6C7"/>
<rect x="158.648" y="140.375" width="2.12594" height="6.37783" fill="#17D6C7"/>
<rect x="139.516" y="138.25" width="2.12594" height="2.12594" fill="#17D6C7"/>
<rect x="139.516" y="136.124" width="4.25189" height="2.12594" fill="#0AAAAA"/>
<rect x="154.396" y="148.88" width="4.25189" height="2.12594" fill="#0AAAAA"/>
<rect x="154.396" y="136.124" width="4.25189" height="2.12594" fill="#0AAAAA"/>
<rect x="139.516" y="148.88" width="4.25189" height="2.12594" fill="#0AAAAA"/>
<rect x="139.516" y="140.375" width="2.12594" height="6.37783" fill="#0AAAAA"/>
<rect x="133.137" y="140.375" width="2.12594" height="6.37783" fill="#0A99A2"/>
<rect x="162.9" y="140.375" width="2.12594" height="6.37783" fill="#0A99A2"/>
<rect x="131.011" y="144.628" width="2.12594" height="2.12594" fill="#0A99A2"/>
<rect x="165.026" y="144.628" width="2.12594" height="2.12594" fill="#0A99A2"/>
<rect x="137.389" y="133.998" width="4.25189" height="2.12594" fill="#0A99A2"/>
<rect x="156.522" y="133.998" width="4.25189" height="2.12594" fill="#0A99A2"/>
<rect x="137.389" y="136.124" width="2.12594" height="2.12594" fill="#0A99A2"/>
<rect x="160.774" y="138.25" width="2.12594" height="2.12594" fill="#0A99A2"/>
<rect x="158.648" y="136.124" width="2.12594" height="2.12594" fill="#0A99A2"/>
<rect x="135.263" y="138.25" width="2.12594" height="2.12594" fill="#0A99A2"/>
<rect x="156.522" y="140.375" width="2.12594" height="6.37783" fill="#0AAAAA"/>
<rect x="141.642" y="138.25" width="2.12594" height="2.12594" fill="#0AAAAA"/>
<rect x="154.396" y="138.25" width="2.12594" height="2.12594" fill="#0AAAAA"/>
<rect x="154.396" y="146.754" width="2.12594" height="2.12594" fill="#0AAAAA"/>
<rect x="131.011" y="140.375" width="2.12594" height="4.25189" fill="#0AAAAA"/>
<rect x="133.137" y="138.25" width="2.12594" height="2.12594" fill="#0AAAAA"/>
<rect x="135.263" y="136.124" width="2.12594" height="2.12594" fill="#0AAAAA"/>
<rect x="162.9" y="138.25" width="2.12594" height="2.12594" fill="#0AAAAA"/>
<rect x="160.774" y="136.124" width="2.12594" height="2.12594" fill="#0AAAAA"/>
<rect x="141.642" y="146.754" width="2.12594" height="2.12594" fill="#0AAAAA"/>
<rect x="158.648" y="146.754" width="6.37783" height="2.12594" fill="#087A91"/>
<rect x="160.774" y="140.375" width="2.12594" height="6.37783" fill="#087A91"/>
<rect x="158.648" y="138.25" width="2.12594" height="2.12594" fill="#087A91"/>
<rect x="137.389" y="138.25" width="2.12594" height="2.12594" fill="#087A91"/>
<rect x="137.389" y="131.872" width="4.25189" height="2.12594" fill="#087A91"/>
<rect x="156.522" y="131.872" width="4.25189" height="2.12594" fill="#087A91"/>
</g>
<g filter="url(#filter1_d_1074_759)">
<path d="M134.341 70.4387H130.031V95.9866H134.341V70.4387Z" fill="#605DDA"/>
<path d="M147.271 66.1807H134.341V70.4386H147.271V66.1807Z" fill="#605DDA"/>
<path d="M151.58 74.6965H130.031V78.9545H151.58V74.6965Z" fill="#605DDA"/>
<path d="M168.82 66.1807H155.891V70.4386H168.82V66.1807Z" fill="#605DDA"/>
<path d="M168.82 91.7285H155.891V95.9865H168.82V91.7285Z" fill="#605DDA"/>
<path d="M151.581 70.4387H147.271V95.9866H151.581V70.4387Z" fill="#605DDA"/>
<path d="M108.481 66.1807H104.171V95.9865H108.481V66.1807Z" fill="#605DDA"/>
<path d="M117.101 83.2124H112.792V87.4704H117.101V83.2124Z" fill="#605DDA"/>
<path d="M112.791 87.4707H104.171V91.7287H112.791V87.4707Z" fill="#605DDA"/>
<path d="M125.721 66.1807H121.411V95.9865H125.721V66.1807Z" fill="#605DDA"/>
<path d="M125.721 87.4707H117.101V91.7287H125.721V87.4707Z" fill="#605DDA"/>
<path d="M164.51 66.1807H160.2V95.9865H164.51V66.1807Z" fill="#605DDA"/>
<path d="M177.44 70.4387H173.13V91.7286H177.44V70.4387Z" fill="#605DDA"/>
<path d="M194.68 74.6965H181.75V78.9545H194.68V74.6965Z" fill="#605DDA"/>
<path d="M190.37 91.7285H177.44V95.9865H190.37V91.7285Z" fill="#605DDA"/>
<path d="M194.68 91.7285H190.37V74.8297H194.68V91.7285Z" fill="#605DDA"/>
<path d="M194.68 70.4387H177.44V66.1807H194.68V70.4387Z" fill="#605DDA"/>
</g>
<g filter="url(#filter2_d_1074_759)">
<path d="M134.324 68.2581H130.014V93.8059H134.324V68.2581Z" fill="#17D6C7"/>
<path d="M147.254 64H134.324V68.258H147.254V64Z" fill="#17D6C7"/>
<path d="M151.564 72.5159H130.014V76.7738H151.564V72.5159Z" fill="#17D6C7"/>
<path d="M168.803 64H155.874V68.258H168.803V64Z" fill="#17D6C7"/>
<path d="M168.803 89.5476H155.874V93.8056H168.803V89.5476Z" fill="#17D6C7"/>
<path d="M151.564 68.2581H147.254V93.8059H151.564V68.2581Z" fill="#17D6C7"/>
<path d="M108.464 64H104.154V93.8058H108.464V64Z" fill="#17D6C7"/>
<path d="M117.084 81.0317H112.774V85.2897H117.084V81.0317Z" fill="#17D6C7"/>
<path d="M112.774 85.2898H104.154V89.5478H112.774V85.2898Z" fill="#17D6C7"/>
<path d="M125.704 64H121.394V93.8058H125.704V64Z" fill="#17D6C7"/>
<path d="M125.704 85.2898H117.084V89.5478H125.704V85.2898Z" fill="#17D6C7"/>
<path d="M164.494 64H160.184V93.8058H164.494V64Z" fill="#17D6C7"/>
<path d="M177.423 68.2581H173.113V89.5479H177.423V68.2581Z" fill="#17D6C7"/>
<path d="M194.663 72.5159H181.733V76.7738H194.663V72.5159Z" fill="#17D6C7"/>
<path d="M190.353 89.5476H177.423V93.8056H190.353V89.5476Z" fill="#17D6C7"/>
<path d="M194.663 89.5476H190.353V72.6488H194.663V89.5476Z" fill="#17D6C7"/>
<path d="M194.663 68.2581H177.423V64.0001H194.663V68.2581Z" fill="#17D6C7"/>
</g>
<defs>
<filter id="filter0_d_1074_759" x="127.011" y="110.613" width="44.1411" height="48.3931" filterUnits="userSpaceOnUse" color-interpolation-filters="sRGB">
<feFlood flood-opacity="0" result="BackgroundImageFix"/>
<feColorMatrix in="SourceAlpha" type="matrix" values="0 0 0 0 0 0 0 0 0 0 0 0 0 0 0 0 0 0 127 0" result="hardAlpha"/>
<feOffset dy="4"/>
<feGaussianBlur stdDeviation="2"/>
<feComposite in2="hardAlpha" operator="out"/>
<feColorMatrix type="matrix" values="0 0 0 0 0 0 0 0 0 0 0 0 0 0 0 0 0 0 0.25 0"/>
<feBlend mode="normal" in2="BackgroundImageFix" result="effect1_dropShadow_1074_759"/>
<feBlend mode="normal" in="SourceGraphic" in2="effect1_dropShadow_1074_759" result="shape"/>
</filter>
<filter id="filter1_d_1074_759" x="100.171" y="66.1807" width="98.5088" height="37.8059" filterUnits="userSpaceOnUse" color-interpolation-filters="sRGB">
<feFlood flood-opacity="0" result="BackgroundImageFix"/>
<feColorMatrix in="SourceAlpha" type="matrix" values="0 0 0 0 0 0 0 0 0 0 0 0 0 0 0 0 0 0 127 0" result="hardAlpha"/>
<feOffset dy="4"/>
<feGaussianBlur stdDeviation="2"/>
<feComposite in2="hardAlpha" operator="out"/>
<feColorMatrix type="matrix" values="0 0 0 0 0 0 0 0 0 0 0 0 0 0 0 0 0 0 0.25 0"/>
<feBlend mode="normal" in2="BackgroundImageFix" result="effect1_dropShadow_1074_759"/>
<feBlend mode="normal" in="SourceGraphic" in2="effect1_dropShadow_1074_759" result="shape"/>
</filter>
<filter id="filter2_d_1074_759" x="100.154" y="64" width="98.5088" height="37.8059" filterUnits="userSpaceOnUse" color-interpolation-filters="sRGB">
<feFlood flood-opacity="0" result="BackgroundImageFix"/>
<feColorMatrix in="SourceAlpha" type="matrix" values="0 0 0 0 0 0 0 0 0 0 0 0 0 0 0 0 0 0 127 0" result="hardAlpha"/>
<feOffset dy="4"/>
<feGaussianBlur stdDeviation="2"/>
<feComposite in2="hardAlpha" operator="out"/>
<feColorMatrix type="matrix" values="0 0 0 0 0 0 0 0 0 0 0 0 0 0 0 0 0 0 0.25 0"/>
<feBlend mode="normal" in2="BackgroundImageFix" result="effect1_dropShadow_1074_759"/>
<feBlend mode="normal" in="SourceGraphic" in2="effect1_dropShadow_1074_759" result="shape"/>
</filter>
<linearGradient id="paint0_linear_1074_759" x1="211" y1="171.999" x2="38" y2="-1.00062" gradientUnits="userSpaceOnUse">
<stop stop-color="#8432DC"/>
<stop offset="1" stop-color="#44EB99"/>
</linearGradient>
</defs>
</svg>
