<svg width="212" height="192" viewBox="0 0 212 192" fill="none" xmlns="http://www.w3.org/2000/svg">
<g clip-path="url(#clip0_53_61)">
<path fill-rule="evenodd" clip-rule="evenodd" d="M0 0.0524902V12.5628C0 19.5663 5.72864 25.2445 12.7942 25.2445H49.5776C69.4454 25.2445 87.9602 51.7418 87.9602 70.4234V156.818C87.9602 165.573 95.1201 172.67 103.953 172.67H195.112C203.945 172.67 211.104 165.573 211.104 156.818V64.8752C211.104 56.1199 203.945 49.0229 195.112 49.0229H108.751C80.7587 49.0229 62.3718 22.8667 62.3718 11.7701V0.0524902H0Z" fill="url(#paint0_linear_53_61)"/>
<path fill-rule="evenodd" clip-rule="evenodd" d="M162.326 150.635C161.499 150.431 160.785 150.255 160.785 149.653C160.785 148.846 161.737 148.759 162.145 148.759C162.712 148.759 163.035 148.841 163.457 149.041C163.662 148.883 164.597 148.164 164.597 148.164C163.981 147.754 163.055 147.434 162.155 147.434C160.011 147.434 159.247 148.624 159.247 149.738C159.247 151.343 160.583 151.678 161.762 151.972C162.591 152.179 163.306 152.358 163.306 152.97C163.306 153.283 163.126 153.81 161.926 153.81C161.129 153.81 160.255 153.518 159.636 153.046L159.115 154.29C159.746 154.805 160.842 155.135 161.916 155.135C163.695 155.135 164.845 154.235 164.845 152.841C164.845 151.254 163.506 150.925 162.326 150.635Z" fill="#1D2633"/>
<path fill-rule="evenodd" clip-rule="evenodd" d="M169.737 153.769H167.818V151.864H169.737C170.613 151.864 171.058 152.18 171.058 152.816C171.058 153.454 170.625 153.769 169.737 153.769ZM167.818 148.804H169.458C170.492 148.804 170.708 149.301 170.708 149.714C170.708 150.313 170.276 150.624 169.458 150.624H167.818V148.804ZM171.362 151.17L171.288 151.144L171.357 151.106C171.943 150.773 172.267 150.197 172.267 149.483C172.267 148.282 171.291 147.564 169.657 147.564H166.28V155.008H169.856C171.636 155.008 172.616 154.293 172.616 152.993C172.616 152.109 172.159 151.445 171.362 151.17Z" fill="#1D2633"/>
<path fill-rule="evenodd" clip-rule="evenodd" d="M177.824 148.801L179.435 147.562H174.043V155.005H179.435V153.766H175.582V151.86H178.868V150.621H175.582V148.801H177.824Z" fill="#1D2633"/>
<path fill-rule="evenodd" clip-rule="evenodd" d="M182.408 148.804H183.772C184.758 148.804 185.3 149.311 185.3 150.232C185.3 151.153 184.758 151.66 183.772 151.66H182.408V148.804ZM186.951 155.008L185.385 152.59C186.309 152.169 186.842 151.339 186.842 150.228C186.842 148.585 185.679 147.564 183.805 147.564H180.87V155.008H182.408V152.899H183.805C183.849 152.899 183.892 152.898 183.935 152.898L185.302 155.008H186.951Z" fill="#1D2633"/>
<path fill-rule="evenodd" clip-rule="evenodd" d="M155.684 151.285C155.684 150.907 155.65 150.537 155.588 150.177L154.314 151.158C154.315 151.2 154.315 151.242 154.315 151.285C154.315 153.908 152.271 156.042 149.758 156.042C147.246 156.042 145.202 153.908 145.202 151.285C145.202 148.662 147.246 146.529 149.758 146.529C150.711 146.529 151.595 146.835 152.327 147.359L153.48 146.472C152.462 145.614 151.168 145.1 149.758 145.1C146.486 145.1 143.833 147.869 143.833 151.285C143.833 154.701 146.486 157.47 149.758 157.47C153.031 157.47 155.684 154.701 155.684 151.285Z" fill="#1D2633"/>
<path fill-rule="evenodd" clip-rule="evenodd" d="M154.444 147.504C154.723 147.882 154.963 148.294 155.154 148.733L149.756 152.887L147.499 151.411V149.635L149.756 151.111L154.444 147.504Z" fill="#1D2633"/>
<path fill-rule="evenodd" clip-rule="evenodd" d="M175.181 86.518C174.727 86.0446 174.473 85.4027 174.473 84.7332V76.5306C174.473 75.2602 173.487 74.2302 172.269 74.2302H165.11C163.893 74.2302 162.906 75.2602 162.906 76.5306V84.0044C162.906 85.2746 163.893 86.3048 165.11 86.3048H172.964C173.605 86.3048 174.221 86.5705 174.673 87.044L174.676 87.0461C175.129 87.5192 175.384 88.1611 175.384 88.8306V136.102C175.384 137.372 176.37 138.402 177.587 138.402H184.747C185.964 138.402 186.951 137.372 186.951 136.102V89.5578C186.951 88.287 185.964 87.257 184.747 87.257H176.891C176.25 87.257 175.635 86.9914 175.181 86.518Z" fill="#1D2633"/>
<path fill-rule="evenodd" clip-rule="evenodd" d="M121.39 113.103L121.399 113.094C121.852 112.623 122.465 112.358 123.105 112.358H142.537C143.748 112.358 144.73 111.334 144.73 110.069V101.844C144.73 101.181 144.984 100.544 145.435 100.076L145.443 100.067C145.897 99.5964 146.509 99.3321 147.149 99.3321H155.015C156.225 99.3321 157.208 98.3063 157.208 97.0413V89.5472C157.208 88.2827 156.225 87.257 155.015 87.257H147.148C146.507 87.257 145.892 86.9911 145.439 86.518C144.985 86.0446 144.73 85.4027 144.73 84.7332V76.5204C144.73 75.2556 143.748 74.2302 142.537 74.2302H111.348C110.117 74.2302 109.119 75.2724 109.119 76.5585V83.9765C109.119 85.2624 110.117 86.3048 111.348 86.3048H143.221C143.862 86.3048 144.478 86.5711 144.932 87.045C145.386 87.5189 145.642 88.1617 145.642 88.8319V97.7651C145.642 98.4322 145.386 99.0723 144.934 99.5434L144.927 99.5488C144.475 100.02 143.861 100.284 143.222 100.284H123.79C122.578 100.284 121.596 101.309 121.596 102.574V110.792C121.596 111.458 121.343 112.096 120.892 112.567L120.884 112.575C120.433 113.046 119.822 113.311 119.184 113.311H111.312C110.101 113.311 109.119 114.335 109.119 115.6V123.095C109.119 124.36 110.101 125.385 111.312 125.385H119.192C119.829 125.385 120.441 125.649 120.892 126.12C121.343 126.59 121.596 127.229 121.596 127.894V136.111C121.596 137.376 122.578 138.401 123.79 138.402H154.978C156.209 138.402 157.208 137.36 157.208 136.074V128.656C157.208 127.37 156.209 126.328 154.978 126.328L123.104 126.327C122.465 126.327 121.851 126.063 121.399 125.593L121.39 125.584C120.939 125.116 120.685 124.479 120.685 123.816V114.871C120.685 114.208 120.939 113.571 121.39 113.103Z" fill="#1D2633"/>
<path fill-rule="evenodd" clip-rule="evenodd" d="M182.35 109.44L182.322 109.41C182.278 109.365 182.254 109.305 182.254 109.242V108.368C182.254 108.237 182.153 108.13 182.027 108.13H179.979C179.919 108.13 179.86 108.106 179.817 108.061L179.803 108.046C179.76 108.001 179.735 107.94 179.735 107.877V105.732C179.735 105.601 179.634 105.494 179.508 105.494H178.752C178.626 105.494 178.523 105.601 178.523 105.732V111.98C178.523 112.11 178.626 112.217 178.752 112.217H179.508C179.634 112.217 179.735 112.11 179.735 111.98V108.086L179.764 108.116C179.807 108.161 179.83 108.221 179.83 108.284V109.158C179.83 109.289 179.933 109.396 180.059 109.396H182.107C182.168 109.396 182.225 109.421 182.269 109.465L182.283 109.481C182.326 109.525 182.35 109.586 182.35 109.649V111.98C182.35 112.11 182.452 112.217 182.578 112.217H183.334C183.46 112.217 183.562 112.11 183.562 111.98V105.732C183.562 105.601 183.46 105.494 183.334 105.494H182.578C182.452 105.494 182.35 105.601 182.35 105.732V109.44Z" fill="white"/>
<path fill-rule="evenodd" clip-rule="evenodd" d="M182.281 102.88L182.27 102.891C182.226 102.937 182.167 102.962 182.105 102.962H181.043H179.981C179.919 102.962 179.859 102.937 179.815 102.891L179.804 102.88C179.76 102.834 179.735 102.772 179.735 102.707V99.0263C179.735 98.9616 179.76 98.8996 179.804 98.8537L179.815 98.8411C179.859 98.7953 179.919 98.7701 179.981 98.7701H182.104C182.166 98.7701 182.225 98.7953 182.269 98.8411L182.281 98.8537C182.325 98.8996 182.35 98.9616 182.35 99.0263V99.8903C182.35 100.025 182.454 100.134 182.584 100.134H183.328C183.457 100.134 183.561 100.025 183.561 99.8903V99.1135C183.561 98.9787 183.457 98.8699 183.328 98.8699H182.499C182.437 98.8699 182.378 98.8438 182.334 98.798L182.323 98.7863C182.279 98.7404 182.254 98.6784 182.254 98.6137V97.7488C182.254 97.6139 182.15 97.5051 182.021 97.5051H180.065C179.936 97.5051 179.83 97.6139 179.83 97.7488V98.6137C179.83 98.6784 179.806 98.7404 179.762 98.7863L179.751 98.798C179.707 98.8438 179.648 98.8699 179.586 98.8699H178.757C178.629 98.8699 178.523 98.9787 178.523 99.1135V102.619C178.523 102.754 178.629 102.863 178.757 102.863H179.585C179.648 102.863 179.707 102.889 179.751 102.935L179.762 102.946C179.806 102.992 179.83 103.054 179.83 103.119V103.984C179.83 104.119 179.936 104.227 180.065 104.227H181.397H182.021C182.15 104.227 182.254 104.119 182.254 103.984V103.119C182.254 103.054 182.279 102.992 182.323 102.946L182.333 102.935C182.377 102.89 182.437 102.863 182.498 102.863H183.328C183.457 102.863 183.562 102.755 183.562 102.62V101.843C183.562 101.708 183.457 101.599 183.328 101.599H182.584C182.454 101.599 182.35 101.708 182.35 101.843V102.706C182.35 102.772 182.325 102.834 182.281 102.88Z" fill="white"/>
<path fill-rule="evenodd" clip-rule="evenodd" d="M182.269 114.817L182.281 114.83C182.325 114.876 182.35 114.938 182.35 115.003V118.683C182.35 118.748 182.325 118.81 182.281 118.856L182.27 118.868C182.226 118.913 182.167 118.939 182.105 118.939H179.981C179.919 118.939 179.859 118.913 179.815 118.868L179.804 118.856C179.76 118.81 179.735 118.748 179.735 118.683V115.003C179.735 114.938 179.76 114.876 179.804 114.83L179.816 114.817C179.86 114.771 179.919 114.746 179.981 114.746H182.104C182.167 114.746 182.226 114.771 182.269 114.817ZM182.254 114.59V113.725C182.254 113.59 182.15 113.481 182.021 113.481H180.065C179.936 113.481 179.831 113.59 179.831 113.725V114.59C179.831 114.655 179.806 114.717 179.763 114.762L179.751 114.774C179.707 114.82 179.648 114.846 179.586 114.846H178.758C178.629 114.846 178.523 114.955 178.523 115.09V118.595C178.523 118.73 178.629 118.84 178.758 118.84H179.586C179.648 118.84 179.707 118.865 179.751 118.911L179.763 118.923C179.806 118.968 179.831 119.03 179.831 119.095V119.96C179.831 120.095 179.936 120.204 180.065 120.204H182.021C182.15 120.204 182.254 120.095 182.254 119.96V119.095C182.254 119.03 182.279 118.968 182.323 118.923L182.334 118.912C182.377 118.866 182.437 118.841 182.499 118.841H183.328C183.457 118.841 183.561 118.731 183.561 118.596V115.09C183.561 114.955 183.457 114.846 183.328 114.846H182.499C182.437 114.846 182.378 114.82 182.334 114.774L182.323 114.762C182.279 114.717 182.254 114.655 182.254 114.59Z" fill="white"/>
<path fill-rule="evenodd" clip-rule="evenodd" d="M182.269 122.807L182.281 122.82C182.325 122.866 182.35 122.927 182.35 122.992V126.672C182.35 126.737 182.325 126.799 182.281 126.845L182.27 126.857C182.226 126.902 182.167 126.928 182.105 126.928H179.981C179.919 126.928 179.859 126.902 179.815 126.857L179.804 126.845C179.76 126.799 179.735 126.737 179.735 126.672V122.992C179.735 122.927 179.76 122.866 179.804 122.82L179.816 122.807C179.86 122.761 179.919 122.735 179.981 122.735H182.104C182.167 122.735 182.226 122.761 182.269 122.807ZM182.254 122.58V121.715C182.254 121.58 182.15 121.471 182.021 121.471H180.065C179.936 121.471 179.831 121.58 179.831 121.715V122.58C179.831 122.644 179.806 122.706 179.763 122.752L179.751 122.764C179.707 122.81 179.648 122.835 179.586 122.835H178.758C178.629 122.835 178.523 122.945 178.523 123.08V126.585C178.523 126.72 178.629 126.829 178.758 126.829H179.586C179.648 126.829 179.707 126.855 179.751 126.9L179.763 126.912C179.806 126.958 179.831 127.02 179.831 127.085V127.949C179.831 128.084 179.936 128.193 180.065 128.193H182.021C182.15 128.193 182.254 128.084 182.254 127.949V127.085C182.254 127.02 182.279 126.958 182.323 126.912L182.334 126.901C182.377 126.856 182.437 126.83 182.499 126.83H183.328C183.457 126.83 183.561 126.721 183.561 126.586V123.08C183.561 122.945 183.457 122.835 183.328 122.835H182.499C182.437 122.835 182.378 122.81 182.334 122.764L182.323 122.752C182.279 122.706 182.254 122.644 182.254 122.58Z" fill="white"/>
<path fill-rule="evenodd" clip-rule="evenodd" d="M179.83 89.7651V90.6301C179.83 90.6949 179.806 90.7569 179.762 90.8027L179.751 90.8144C179.707 90.8603 179.648 90.8864 179.586 90.8864H178.757C178.629 90.8864 178.523 90.9951 178.523 91.13V91.9068C178.523 92.0416 178.629 92.1504 178.757 92.1504H179.586C179.648 92.1504 179.707 92.1765 179.751 92.2223L179.762 92.234C179.806 92.2799 179.83 92.3419 179.83 92.4067V93.2715C179.83 93.4064 179.936 93.5152 180.065 93.5152H182.105C182.167 93.5152 182.226 93.5413 182.269 93.5871L182.281 93.5988C182.325 93.6447 182.35 93.7067 182.35 93.7714V94.7226C182.35 94.7873 182.325 94.8494 182.281 94.8952L182.269 94.9069C182.226 94.9528 182.167 94.9788 182.105 94.9788H178.757C178.629 94.9788 178.523 95.0876 178.523 95.2225V96.0002C178.523 96.1341 178.629 96.2438 178.757 96.2438H182.021C182.15 96.2438 182.254 96.1341 182.254 96.0002V95.1353C182.254 95.0705 182.279 95.0085 182.323 94.9627L182.333 94.951C182.377 94.906 182.437 94.8799 182.498 94.8799H183.328C183.457 94.8799 183.562 94.7712 183.562 94.6363V93.8586C183.562 93.7247 183.457 93.615 183.328 93.615H182.499C182.437 93.615 182.378 93.5898 182.334 93.544L182.323 93.5314C182.279 93.4855 182.254 93.4235 182.254 93.3587V92.4948C182.254 92.3599 182.15 92.2502 182.021 92.2502H179.981C179.919 92.2502 179.859 92.225 179.815 92.1792L179.804 92.1666C179.76 92.1208 179.735 92.0596 179.735 91.994V91.0419C179.735 90.9772 179.76 90.9151 179.804 90.8702L179.815 90.8576C179.859 90.8117 179.919 90.7857 179.981 90.7857H183.328C183.457 90.7857 183.562 90.6769 183.562 90.542V89.7651C183.562 89.6304 183.457 89.5212 183.328 89.5212H180.065C179.936 89.5212 179.83 89.6304 179.83 89.7651Z" fill="white"/>
<path fill-rule="evenodd" clip-rule="evenodd" d="M179.815 134.844L179.804 134.832C179.76 134.786 179.735 134.724 179.735 134.659V129.701C179.735 129.567 179.631 129.458 179.502 129.458H178.757C178.629 129.458 178.523 129.567 178.523 129.701V134.571C178.523 134.706 178.629 134.816 178.757 134.816H179.586C179.648 134.816 179.707 134.841 179.751 134.887L179.762 134.899C179.806 134.944 179.83 135.006 179.83 135.071V135.936C179.83 136.071 179.936 136.181 180.064 136.181H183.328C183.457 136.181 183.561 136.071 183.561 135.936V135.159C183.561 135.024 183.457 134.916 183.328 134.916H179.981C179.919 134.916 179.859 134.89 179.815 134.844Z" fill="white"/>
</g>
<defs>
<linearGradient id="paint0_linear_53_61" x1="-148.15" y1="-190.167" x2="208.14" y2="181.096" gradientUnits="userSpaceOnUse">
<stop stop-color="#861BE3"/>
<stop offset="1" stop-color="#00FFC1"/>
</linearGradient>
<clipPath id="clip0_53_61">
<rect width="211.104" height="192" fill="white"/>
</clipPath>
</defs>
</svg>
