<svg width="31" height="36" viewBox="0 0 31 36" fill="none" xmlns="http://www.w3.org/2000/svg">
<path d="M15.244 6.27153C15.854 6.27153 17.3033 6.65913 17.3033 6.65913C21.2297 7.5632 23.9933 11.1971 23.9933 15.3V26.3433L24.7961 27.1537L25.4668 27.8307H4.84898L5.51971 27.1537L6.32248 26.3433V15.3C6.32248 11.1972 9.08613 7.5632 13.0125 6.65913C13.0125 6.65913 14.5664 6.27153 15.0718 6.27153M15.1579 0C13.6419 0 12.483 1.16983 12.483 2.7V3.95991C7.40033 5.13017 3.5665 9.81 3.5665 15.3V25.2L0 28.8V30.6H30.3158V28.8L26.7493 25.2V15.3C26.7493 9.81 22.9154 5.13017 17.8328 3.95991V2.7C17.8328 1.16983 16.6739 0 15.1579 0ZM18.7244 32.4H11.5913C11.5913 34.3801 13.1961 36 15.1579 36C17.1197 36 18.7244 34.3801 18.7244 32.4Z" fill="white"/>
</svg>
