<svg width="36" height="36" viewBox="0 0 36 36" fill="none" xmlns="http://www.w3.org/2000/svg">
<path d="M35.5209 33.2067L26.2341 23.92C28.3236 21.3122 29.4598 18.0689 29.4545 14.7273C29.4545 6.59373 22.8612 0 14.7272 0C6.59372 0 0 6.59373 0 14.7273C0 22.8608 6.59372 29.4545 14.7272 29.4545C18.2045 29.4545 21.4003 28.2494 23.9199 26.2338L33.2067 35.5205C33.3584 35.6727 33.5387 35.7934 33.7373 35.8757C33.9358 35.958 34.1487 36.0002 34.3636 36C34.6872 36 35.0036 35.9041 35.2727 35.7243C35.5418 35.5445 35.7515 35.289 35.8754 34.99C35.9993 34.691 36.0317 34.362 35.9686 34.0446C35.9055 33.7272 35.7497 33.4356 35.5209 33.2067ZM14.7272 26.1818C8.40108 26.1818 3.27272 21.0535 3.27272 14.7273C3.27272 8.40109 8.40108 3.27273 14.7272 3.27273C21.0538 3.27273 26.1818 8.40109 26.1818 14.7273C26.1818 21.0535 21.0538 26.1818 14.7272 26.1818Z" fill="white"/>
</svg>
