<svg width="40" height="42" viewBox="0 0 40 42" fill="none" xmlns="http://www.w3.org/2000/svg">
<g filter="url(#filter0_d_484_60)">
<path d="M26 17C27.6569 17 29 15.6569 29 14C29 12.3431 27.6569 11 26 11C24.3431 11 23 12.3431 23 14C23 15.6569 24.3431 17 26 17Z" stroke="white" stroke-width="2" stroke-linecap="round" stroke-linejoin="round"/>
<path d="M14 24C15.6569 24 17 22.6569 17 21C17 19.3431 15.6569 18 14 18C12.3431 18 11 19.3431 11 21C11 22.6569 12.3431 24 14 24Z" stroke="white" stroke-width="2" stroke-linecap="round" stroke-linejoin="round"/>
<path d="M26 31C27.6569 31 29 29.6569 29 28C29 26.3431 27.6569 25 26 25C24.3431 25 23 26.3431 23 28C23 29.6569 24.3431 31 26 31Z" stroke="white" stroke-width="2" stroke-linecap="round" stroke-linejoin="round"/>
<path d="M16.5898 22.5098L23.4198 26.4898" stroke="white" stroke-width="2" stroke-linecap="round" stroke-linejoin="round"/>
<path d="M23.4098 15.5098L16.5898 19.4898" stroke="white" stroke-width="2" stroke-linecap="round" stroke-linejoin="round"/>
</g>
<defs>
<filter id="filter0_d_484_60" x="0" y="0" width="40" height="42" filterUnits="userSpaceOnUse" color-interpolation-filters="sRGB">
<feFlood flood-opacity="0" result="BackgroundImageFix"/>
<feColorMatrix in="SourceAlpha" type="matrix" values="0 0 0 0 0 0 0 0 0 0 0 0 0 0 0 0 0 0 127 0" result="hardAlpha"/>
<feOffset/>
<feGaussianBlur stdDeviation="5"/>
<feComposite in2="hardAlpha" operator="out"/>
<feColorMatrix type="matrix" values="0 0 0 0 0 0 0 0 0 0 0 0 0 0 0 0 0 0 0.25 0"/>
<feBlend mode="normal" in2="BackgroundImageFix" result="effect1_dropShadow_484_60"/>
<feBlend mode="normal" in="SourceGraphic" in2="effect1_dropShadow_484_60" result="shape"/>
</filter>
</defs>
</svg>
