<svg width="928" height="928" viewBox="0 0 928 928" fill="none" xmlns="http://www.w3.org/2000/svg">
<rect width="928" height="928" rx="70" fill="url(#paint0_linear_619_246)"/>
<g filter="url(#filter0_d_619_246)">
<rect x="680.118" y="594.353" width="28.8824" height="57.7647" fill="#0AAAAA"/>
<rect x="246.882" y="218.883" width="28.8824" height="57.7647" fill="#17D6C7"/>
<rect x="651.235" y="218.883" width="28.8824" height="57.7647" fill="#17D6C7"/>
<rect x="275.765" y="190" width="57.7647" height="28.8824" fill="#17D6C7"/>
<rect x="593.471" y="190" width="57.7647" height="28.8824" fill="#17D6C7"/>
<rect x="564.588" y="681" width="28.8824" height="28.8824" fill="#17D6C7"/>
<rect x="564.588" y="565.471" width="28.8824" height="28.8824" fill="#17D6C7"/>
<rect x="333.529" y="681" width="28.8824" height="28.8824" fill="#17D6C7"/>
<rect x="333.529" y="190" width="57.7647" height="28.8824" fill="#0AAAAA"/>
<rect x="535.706" y="190" width="57.7647" height="28.8824" fill="#0AAAAA"/>
<rect x="391.294" y="218.883" width="28.8824" height="86.6471" fill="#0AAAAA"/>
<rect x="362.412" y="218.883" width="28.8824" height="115.529" fill="white"/>
<rect x="622.353" y="247.765" width="28.8824" height="86.6471" fill="#00002F"/>
<rect x="275.765" y="247.765" width="28.8824" height="86.6471" fill="#00002F"/>
<rect x="564.588" y="305.529" width="57.7647" height="28.8824" fill="#00002F"/>
<rect x="304.647" y="305.529" width="57.7647" height="28.8824" fill="#00002F"/>
<rect x="535.706" y="218.883" width="28.8824" height="115.529" fill="white"/>
<rect x="275.765" y="218.883" width="86.6471" height="28.8824" fill="white"/>
<rect x="564.588" y="334.412" width="86.6471" height="28.8824" fill="white"/>
<rect x="564.588" y="218.883" width="86.6471" height="28.8824" fill="white"/>
<rect x="275.765" y="334.412" width="86.6471" height="28.8824" fill="white"/>
<rect x="506.824" y="218.883" width="28.8824" height="86.6471" fill="#0AAAAA"/>
<rect x="246.882" y="276.647" width="28.8824" height="57.7647" fill="#0AAAAA"/>
<rect x="651.235" y="276.647" width="28.8824" height="57.7647" fill="#0AAAAA"/>
<rect x="218" y="334.412" width="28.8824" height="28.8824" fill="#0AAAAA"/>
<rect x="304.647" y="276.647" width="28.8824" height="28.8824" fill="#605DDA"/>
<rect x="304.647" y="247.765" width="28.8824" height="28.8824" fill="#8199DC"/>
<rect x="333.529" y="247.765" width="28.8824" height="28.8824" fill="#BCD4FF"/>
<rect x="564.588" y="247.765" width="28.8824" height="28.8824" fill="#BCD4FF"/>
<rect x="593.471" y="247.765" width="28.8824" height="28.8824" fill="#8199DC"/>
<rect x="564.588" y="276.647" width="28.8824" height="28.8824" fill="#8199DC"/>
<rect x="333.529" y="276.647" width="28.8824" height="28.8824" fill="#8199DC"/>
<rect x="593.471" y="276.647" width="28.8824" height="28.8824" fill="#605DDA"/>
<rect x="362.412" y="334.412" width="28.8824" height="28.8824" fill="#087A91"/>
<rect x="246.882" y="392.177" width="28.8824" height="57.7647" fill="#087A91"/>
<rect x="275.765" y="363.294" width="57.7647" height="28.8824" fill="#087A91"/>
<rect x="246.882" y="681" width="86.6471" height="28.8824" fill="#087A91"/>
<rect x="275.765" y="594.353" width="28.8824" height="86.6471" fill="#087A91"/>
<rect x="275.765" y="392.177" width="57.7647" height="28.8824" fill="#003F55"/>
<rect x="391.294" y="334.412" width="144.412" height="28.8824" fill="#003F55"/>
<rect x="391.294" y="363.294" width="144.412" height="28.8824" fill="#A2CDFF"/>
<rect x="391.294" y="681" width="144.412" height="28.8824" fill="#A2CDFF"/>
<rect x="391.294" y="392.177" width="144.412" height="28.8824" fill="#A9DFFF"/>
<rect x="333.529" y="421.059" width="57.7647" height="28.8824" fill="#D5F3E4"/>
<rect x="333.529" y="421.059" width="57.7647" height="28.8824" fill="#A9DFFF"/>
<rect x="362.412" y="478.823" width="28.8824" height="57.7647" fill="#A9DFFF"/>
<rect x="535.706" y="594.353" width="28.8824" height="57.7647" fill="#A9DFFF"/>
<rect x="362.412" y="594.353" width="28.8824" height="57.7647" fill="#A9DFFF"/>
<rect x="506.824" y="536.588" width="28.8824" height="57.7647" fill="#A9DFFF"/>
<rect x="391.294" y="536.588" width="28.8824" height="57.7647" fill="#A9DFFF"/>
<rect x="535.706" y="478.823" width="28.8824" height="57.7647" fill="#A9DFFF"/>
<rect x="564.588" y="449.941" width="57.7647" height="28.8824" fill="#A9DFFF"/>
<rect x="304.647" y="449.941" width="57.7647" height="28.8824" fill="#A9DFFF"/>
<rect x="420.176" y="652.117" width="86.6471" height="28.8824" fill="#A9DFFF"/>
<rect x="420.176" y="623.235" width="86.6471" height="28.8824" fill="#C4EBFF"/>
<rect x="420.176" y="536.588" width="86.6471" height="57.7647" fill="#C4EBFF"/>
<rect x="391.294" y="594.353" width="144.412" height="28.8824" fill="#C4EBFF"/>
<rect x="391.294" y="421.059" width="144.412" height="28.8824" fill="#C4EBFF"/>
<rect x="362.412" y="449.941" width="202.176" height="28.8824" fill="#C4EBFF"/>
<rect x="391.294" y="478.823" width="144.412" height="57.7647" fill="#C4EBFF"/>
<rect x="391.294" y="623.235" width="28.8824" height="28.8824" fill="#A9DFFF"/>
<rect x="506.824" y="623.235" width="28.8824" height="28.8824" fill="#A9DFFF"/>
<rect x="535.706" y="421.059" width="57.7647" height="28.8824" fill="#A9DFFF"/>
<rect x="333.529" y="392.177" width="57.7647" height="28.8824" fill="#A2CDFF"/>
<rect x="362.412" y="652.117" width="57.7647" height="28.8824" fill="#A2CDFF"/>
<rect x="420.176" y="709.883" width="86.6471" height="28.8824" fill="#A2CDFF"/>
<rect x="506.824" y="652.117" width="57.7647" height="28.8824" fill="#A2CDFF"/>
<rect x="593.471" y="421.059" width="57.7647" height="28.8824" fill="#A2CDFF"/>
<rect x="535.706" y="392.177" width="57.7647" height="28.8824" fill="#A2CDFF"/>
<rect x="275.765" y="421.059" width="57.7647" height="28.8824" fill="#A2CDFF"/>
<rect x="535.706" y="363.294" width="57.7647" height="28.8824" fill="#003F55"/>
<rect x="593.471" y="392.177" width="57.7647" height="28.8824" fill="#003F55"/>
<rect x="333.529" y="363.294" width="57.7647" height="28.8824" fill="#003F55"/>
<rect x="391.294" y="709.883" width="28.8824" height="28.8824" fill="#003F55"/>
<rect x="275.765" y="709.883" width="57.7647" height="28.8824" fill="#003F55"/>
<rect x="593.471" y="709.883" width="57.7647" height="28.8824" fill="#003F55"/>
<rect x="506.824" y="709.883" width="28.8824" height="28.8824" fill="#003F55"/>
<rect x="593.471" y="363.294" width="57.7647" height="28.8824" fill="#087A91"/>
<rect x="651.235" y="392.177" width="28.8824" height="57.7647" fill="#087A91"/>
<rect x="535.706" y="334.412" width="28.8824" height="28.8824" fill="#087A91"/>
<rect x="680.118" y="334.412" width="28.8824" height="28.8824" fill="#0AAAAA"/>
<rect x="420.176" y="276.647" width="86.6471" height="28.8824" fill="#0E919F"/>
<rect x="651.235" y="334.412" width="28.8824" height="57.7647" fill="#0E919F"/>
<rect x="680.118" y="363.294" width="28.8824" height="57.7647" fill="#0E919F"/>
<rect x="391.294" y="305.529" width="144.412" height="28.8824" fill="#0E919F"/>
<rect x="246.882" y="334.412" width="28.8824" height="57.7647" fill="#0E919F"/>
<rect x="218" y="363.294" width="28.8824" height="57.7647" fill="#0E919F"/>
<rect x="304.647" y="594.353" width="28.8824" height="86.6471" fill="#17D6C7"/>
<rect x="593.471" y="594.353" width="28.8824" height="86.6471" fill="#17D6C7"/>
<rect x="333.529" y="565.471" width="28.8824" height="28.8824" fill="#17D6C7"/>
<rect x="333.529" y="536.588" width="57.7647" height="28.8824" fill="#0AAAAA"/>
<rect x="535.706" y="709.883" width="57.7647" height="28.8824" fill="#0AAAAA"/>
<rect x="535.706" y="536.588" width="57.7647" height="28.8824" fill="#0AAAAA"/>
<rect x="333.529" y="709.883" width="57.7647" height="28.8824" fill="#0AAAAA"/>
<rect x="333.529" y="594.353" width="28.8824" height="86.6471" fill="#0AAAAA"/>
<rect x="246.882" y="594.353" width="28.8824" height="86.6471" fill="#0A99A2"/>
<rect x="651.235" y="594.353" width="28.8824" height="86.6471" fill="#0A99A2"/>
<rect x="218" y="652.117" width="28.8824" height="28.8824" fill="#0A99A2"/>
<rect x="680.118" y="652.117" width="28.8824" height="28.8824" fill="#0A99A2"/>
<rect x="304.647" y="507.706" width="57.7647" height="28.8824" fill="#0A99A2"/>
<rect x="564.588" y="507.706" width="57.7647" height="28.8824" fill="#0A99A2"/>
<rect x="304.647" y="536.588" width="28.8824" height="28.8824" fill="#0A99A2"/>
<rect x="622.353" y="565.471" width="28.8824" height="28.8824" fill="#0A99A2"/>
<rect x="593.471" y="536.588" width="28.8824" height="28.8824" fill="#0A99A2"/>
<rect x="275.765" y="565.471" width="28.8824" height="28.8824" fill="#0A99A2"/>
<rect x="564.588" y="594.353" width="28.8824" height="86.6471" fill="#0AAAAA"/>
<rect x="362.412" y="565.471" width="28.8824" height="28.8824" fill="#0AAAAA"/>
<rect x="535.706" y="565.471" width="28.8824" height="28.8824" fill="#0AAAAA"/>
<rect x="535.706" y="681" width="28.8824" height="28.8824" fill="#0AAAAA"/>
<rect x="218" y="594.353" width="28.8824" height="57.7647" fill="#0AAAAA"/>
<rect x="246.882" y="565.471" width="28.8824" height="28.8824" fill="#0AAAAA"/>
<rect x="275.765" y="536.588" width="28.8824" height="28.8824" fill="#0AAAAA"/>
<rect x="651.235" y="565.471" width="28.8824" height="28.8824" fill="#0AAAAA"/>
<rect x="622.353" y="536.588" width="28.8824" height="28.8824" fill="#0AAAAA"/>
<rect x="362.412" y="681" width="28.8824" height="28.8824" fill="#0AAAAA"/>
<rect x="593.471" y="681" width="86.6471" height="28.8824" fill="#087A91"/>
<rect x="622.353" y="594.353" width="28.8824" height="86.6471" fill="#087A91"/>
<rect x="593.471" y="565.471" width="28.8824" height="28.8824" fill="#087A91"/>
<rect x="304.647" y="565.471" width="28.8824" height="28.8824" fill="#087A91"/>
<rect x="304.647" y="478.823" width="57.7647" height="28.8824" fill="#087A91"/>
<rect x="564.588" y="478.823" width="57.7647" height="28.8824" fill="#087A91"/>
</g>
<defs>
<filter id="filter0_d_619_246" x="214" y="190" width="499" height="556.766" filterUnits="userSpaceOnUse" color-interpolation-filters="sRGB">
<feFlood flood-opacity="0" result="BackgroundImageFix"/>
<feColorMatrix in="SourceAlpha" type="matrix" values="0 0 0 0 0 0 0 0 0 0 0 0 0 0 0 0 0 0 127 0" result="hardAlpha"/>
<feOffset dy="4"/>
<feGaussianBlur stdDeviation="2"/>
<feComposite in2="hardAlpha" operator="out"/>
<feColorMatrix type="matrix" values="0 0 0 0 0 0 0 0 0 0 0 0 0 0 0 0 0 0 0.25 0"/>
<feBlend mode="normal" in2="BackgroundImageFix" result="effect1_dropShadow_619_246"/>
<feBlend mode="normal" in="SourceGraphic" in2="effect1_dropShadow_619_246" result="shape"/>
</filter>
<linearGradient id="paint0_linear_619_246" x1="-410" y1="-403" x2="928" y2="928" gradientUnits="userSpaceOnUse">
<stop stop-color="#44EB99"/>
<stop offset="1" stop-color="#8432DC"/>
</linearGradient>
</defs>
</svg>
