<svg width="520" height="580" viewBox="0 0 520 580" fill="none" xmlns="http://www.w3.org/2000/svg">
<g filter="url(#filter0_d_1085_762)">
<rect x="485.14" y="420.997" width="30.0712" height="60.1424" fill="#0AAAAA"/>
<rect x="34.071" y="30.0713" width="30.0712" height="60.1424" fill="#17D6C7"/>
<rect x="455.068" y="30.0713" width="30.0712" height="60.1424" fill="#17D6C7"/>
<rect x="64.1423" width="60.1424" height="30.0712" fill="#17D6C7"/>
<rect x="394.926" width="60.1424" height="30.0712" fill="#17D6C7"/>
<rect x="364.854" y="511.211" width="30.0712" height="30.0712" fill="#17D6C7"/>
<rect x="364.854" y="390.926" width="30.0712" height="30.0712" fill="#17D6C7"/>
<rect x="124.285" y="511.211" width="30.0712" height="30.0712" fill="#17D6C7"/>
<rect x="124.285" width="60.1424" height="30.0712" fill="#0AAAAA"/>
<rect x="334.783" width="60.1424" height="30.0712" fill="#0AAAAA"/>
<rect x="184.427" y="30.0713" width="30.0712" height="90.2136" fill="#0AAAAA"/>
<rect x="154.356" y="30.0713" width="30.0712" height="120.285" fill="white"/>
<rect x="424.997" y="60.1416" width="30.0712" height="90.2136" fill="#00002F"/>
<rect x="64.1423" y="60.1416" width="30.0712" height="90.2136" fill="#00002F"/>
<rect x="364.854" y="120.284" width="60.1424" height="30.0712" fill="#00002F"/>
<rect x="94.2136" y="120.284" width="60.1424" height="30.0712" fill="#00002F"/>
<rect x="334.783" y="30.0713" width="30.0712" height="120.285" fill="white"/>
<rect x="64.1423" y="30.0713" width="90.2136" height="30.0712" fill="white"/>
<rect x="364.854" y="150.356" width="90.2136" height="30.0712" fill="white"/>
<rect x="364.854" y="30.0713" width="90.2136" height="30.0712" fill="white"/>
<rect x="64.1423" y="150.356" width="90.2136" height="30.0712" fill="white"/>
<rect x="304.712" y="30.0713" width="30.0712" height="90.2136" fill="#0AAAAA"/>
<rect x="34.071" y="90.2139" width="30.0712" height="60.1424" fill="#0AAAAA"/>
<rect x="455.068" y="90.2139" width="30.0712" height="60.1424" fill="#0AAAAA"/>
<rect x="4" y="150.356" width="30.0712" height="30.0712" fill="#0AAAAA"/>
<rect x="94.2136" y="90.2139" width="30.0712" height="30.0712" fill="#605DDA"/>
<rect x="94.2136" y="60.1416" width="30.0712" height="30.0712" fill="#8199DC"/>
<rect x="124.285" y="60.1416" width="30.0712" height="30.0712" fill="#BCD4FF"/>
<rect x="364.854" y="60.1416" width="30.0712" height="30.0712" fill="#BCD4FF"/>
<rect x="394.926" y="60.1416" width="30.0712" height="30.0712" fill="#8199DC"/>
<rect x="364.854" y="90.2139" width="30.0712" height="30.0712" fill="#8199DC"/>
<rect x="124.285" y="90.2139" width="30.0712" height="30.0712" fill="#8199DC"/>
<rect x="394.926" y="90.2139" width="30.0712" height="30.0712" fill="#605DDA"/>
<rect x="154.356" y="150.356" width="30.0712" height="30.0712" fill="#087A91"/>
<rect x="34.071" y="210.5" width="30.0712" height="60.1424" fill="#087A91"/>
<rect x="64.1423" y="180.427" width="60.1424" height="30.0712" fill="#087A91"/>
<rect x="34.071" y="511.211" width="90.2136" height="30.0712" fill="#087A91"/>
<rect x="64.1423" y="420.997" width="30.0712" height="90.2136" fill="#087A91"/>
<rect x="64.1423" y="210.5" width="60.1424" height="30.0712" fill="#003F55"/>
<rect x="184.427" y="150.356" width="150.356" height="30.0712" fill="#003F55"/>
<rect x="184.427" y="180.427" width="150.356" height="30.0712" fill="#A2CDFF"/>
<rect x="184.427" y="511.211" width="150.356" height="30.0712" fill="#A2CDFF"/>
<rect x="184.427" y="210.5" width="150.356" height="30.0712" fill="#A9DFFF"/>
<rect x="124.285" y="240.569" width="60.1424" height="30.0712" fill="#D5F3E4"/>
<rect x="124.285" y="240.569" width="60.1424" height="30.0712" fill="#A9DFFF"/>
<rect x="154.356" y="300.712" width="30.0712" height="60.1424" fill="#A9DFFF"/>
<rect x="334.783" y="420.997" width="30.0712" height="60.1424" fill="#A9DFFF"/>
<rect x="154.356" y="420.997" width="30.0712" height="60.1424" fill="#A9DFFF"/>
<rect x="304.712" y="360.854" width="30.0712" height="60.1424" fill="#A9DFFF"/>
<rect x="184.427" y="360.854" width="30.0712" height="60.1424" fill="#A9DFFF"/>
<rect x="334.783" y="300.712" width="30.0712" height="60.1424" fill="#A9DFFF"/>
<rect x="364.854" y="270.642" width="60.1424" height="30.0712" fill="#A9DFFF"/>
<rect x="94.2136" y="270.642" width="60.1424" height="30.0712" fill="#A9DFFF"/>
<rect x="214.499" y="481.139" width="90.2136" height="30.0712" fill="#A9DFFF"/>
<rect x="214.499" y="451.068" width="90.2136" height="30.0712" fill="#C4EBFF"/>
<rect x="214.499" y="360.854" width="90.2136" height="60.1424" fill="#C4EBFF"/>
<rect x="184.427" y="420.997" width="150.356" height="30.0712" fill="#C4EBFF"/>
<rect x="184.427" y="240.569" width="150.356" height="30.0712" fill="#C4EBFF"/>
<rect x="154.356" y="270.642" width="210.499" height="30.0712" fill="#C4EBFF"/>
<rect x="184.427" y="300.712" width="150.356" height="60.1424" fill="#C4EBFF"/>
<rect x="184.427" y="451.068" width="30.0712" height="30.0712" fill="#A9DFFF"/>
<rect x="304.712" y="451.068" width="30.0712" height="30.0712" fill="#A9DFFF"/>
<rect x="334.783" y="240.569" width="60.1424" height="30.0712" fill="#A9DFFF"/>
<rect x="124.285" y="210.5" width="60.1424" height="30.0712" fill="#A2CDFF"/>
<rect x="154.356" y="481.139" width="60.1424" height="30.0712" fill="#A2CDFF"/>
<rect x="214.499" y="541.282" width="90.2136" height="30.0712" fill="#A2CDFF"/>
<rect x="304.712" y="481.139" width="60.1424" height="30.0712" fill="#A2CDFF"/>
<rect x="394.926" y="240.569" width="60.1424" height="30.0712" fill="#A2CDFF"/>
<rect x="334.783" y="210.5" width="60.1424" height="30.0712" fill="#A2CDFF"/>
<rect x="64.1423" y="240.569" width="60.1424" height="30.0712" fill="#A2CDFF"/>
<rect x="334.783" y="180.427" width="60.1424" height="30.0712" fill="#003F55"/>
<rect x="394.926" y="210.5" width="60.1424" height="30.0712" fill="#003F55"/>
<rect x="124.285" y="180.427" width="60.1424" height="30.0712" fill="#003F55"/>
<rect x="184.427" y="541.282" width="30.0712" height="30.0712" fill="#003F55"/>
<rect x="64.1423" y="541.282" width="60.1424" height="30.0712" fill="#003F55"/>
<rect x="394.926" y="541.282" width="60.1424" height="30.0712" fill="#003F55"/>
<rect x="304.712" y="541.282" width="30.0712" height="30.0712" fill="#003F55"/>
<rect x="394.926" y="180.427" width="60.1424" height="30.0712" fill="#087A91"/>
<rect x="455.068" y="210.5" width="30.0712" height="60.1424" fill="#087A91"/>
<rect x="334.783" y="150.356" width="30.0712" height="30.0712" fill="#087A91"/>
<rect x="485.14" y="150.356" width="30.0712" height="30.0712" fill="#0AAAAA"/>
<rect x="214.499" y="90.2139" width="90.2136" height="30.0712" fill="#0E919F"/>
<rect x="455.068" y="150.356" width="30.0712" height="60.1424" fill="#0E919F"/>
<rect x="485.14" y="180.427" width="30.0712" height="60.1424" fill="#0E919F"/>
<rect x="184.427" y="120.284" width="150.356" height="30.0712" fill="#0E919F"/>
<rect x="34.071" y="150.356" width="30.0712" height="60.1424" fill="#0E919F"/>
<rect x="4" y="180.427" width="30.0712" height="60.1424" fill="#0E919F"/>
<rect x="94.2136" y="420.997" width="30.0712" height="90.2136" fill="#17D6C7"/>
<rect x="394.926" y="420.997" width="30.0712" height="90.2136" fill="#17D6C7"/>
<rect x="124.285" y="390.926" width="30.0712" height="30.0712" fill="#17D6C7"/>
<rect x="124.285" y="360.854" width="60.1424" height="30.0712" fill="#0AAAAA"/>
<rect x="334.783" y="541.282" width="60.1424" height="30.0712" fill="#0AAAAA"/>
<rect x="334.783" y="360.854" width="60.1424" height="30.0712" fill="#0AAAAA"/>
<rect x="124.285" y="541.282" width="60.1424" height="30.0712" fill="#0AAAAA"/>
<rect x="124.285" y="420.997" width="30.0712" height="90.2136" fill="#0AAAAA"/>
<rect x="34.071" y="420.997" width="30.0712" height="90.2136" fill="#0A99A2"/>
<rect x="455.068" y="420.997" width="30.0712" height="90.2136" fill="#0A99A2"/>
<rect x="4" y="481.139" width="30.0712" height="30.0712" fill="#0A99A2"/>
<rect x="485.14" y="481.139" width="30.0712" height="30.0712" fill="#0A99A2"/>
<rect x="94.2136" y="330.783" width="60.1424" height="30.0712" fill="#0A99A2"/>
<rect x="364.854" y="330.783" width="60.1424" height="30.0712" fill="#0A99A2"/>
<rect x="94.2136" y="360.854" width="30.0712" height="30.0712" fill="#0A99A2"/>
<rect x="424.997" y="390.926" width="30.0712" height="30.0712" fill="#0A99A2"/>
<rect x="394.926" y="360.854" width="30.0712" height="30.0712" fill="#0A99A2"/>
<rect x="64.1423" y="390.926" width="30.0712" height="30.0712" fill="#0A99A2"/>
<rect x="364.854" y="420.997" width="30.0712" height="90.2136" fill="#0AAAAA"/>
<rect x="154.356" y="390.926" width="30.0712" height="30.0712" fill="#0AAAAA"/>
<rect x="334.783" y="390.926" width="30.0712" height="30.0712" fill="#0AAAAA"/>
<rect x="334.783" y="511.211" width="30.0712" height="30.0712" fill="#0AAAAA"/>
<rect x="4" y="420.997" width="30.0712" height="60.1424" fill="#0AAAAA"/>
<rect x="34.071" y="390.926" width="30.0712" height="30.0712" fill="#0AAAAA"/>
<rect x="64.1423" y="360.854" width="30.0712" height="30.0712" fill="#0AAAAA"/>
<rect x="455.068" y="390.926" width="30.0712" height="30.0712" fill="#0AAAAA"/>
<rect x="424.997" y="360.854" width="30.0712" height="30.0712" fill="#0AAAAA"/>
<rect x="154.356" y="511.211" width="30.0712" height="30.0712" fill="#0AAAAA"/>
<rect x="394.926" y="511.211" width="90.2136" height="30.0712" fill="#087A91"/>
<rect x="424.997" y="420.997" width="30.0712" height="90.2136" fill="#087A91"/>
<rect x="394.926" y="390.926" width="30.0712" height="30.0712" fill="#087A91"/>
<rect x="94.2136" y="390.926" width="30.0712" height="30.0712" fill="#087A91"/>
<rect x="94.2136" y="300.712" width="60.1424" height="30.0712" fill="#087A91"/>
<rect x="364.854" y="300.712" width="60.1424" height="30.0712" fill="#087A91"/>
</g>
<defs>
<filter id="filter0_d_1085_762" x="0" y="0" width="519.211" height="579.354" filterUnits="userSpaceOnUse" color-interpolation-filters="sRGB">
<feFlood flood-opacity="0" result="BackgroundImageFix"/>
<feColorMatrix in="SourceAlpha" type="matrix" values="0 0 0 0 0 0 0 0 0 0 0 0 0 0 0 0 0 0 127 0" result="hardAlpha"/>
<feOffset dy="4"/>
<feGaussianBlur stdDeviation="2"/>
<feComposite in2="hardAlpha" operator="out"/>
<feColorMatrix type="matrix" values="0 0 0 0 0 0 0 0 0 0 0 0 0 0 0 0 0 0 0.25 0"/>
<feBlend mode="normal" in2="BackgroundImageFix" result="effect1_dropShadow_1085_762"/>
<feBlend mode="normal" in="SourceGraphic" in2="effect1_dropShadow_1085_762" result="shape"/>
</filter>
</defs>
</svg>
